<svg width="95" height="86" viewBox="0 0 95 86" fill="none" xmlns="http://www.w3.org/2000/svg">
<rect width="95" height="86" rx="20" fill="white"/>
<path d="M27.0215 13.8989H30.5127C31.5625 13.8989 32.5269 14.0739 33.4058 14.4238C34.2928 14.7738 35.0659 15.2702 35.7251 15.9131C36.3843 16.5479 36.897 17.3128 37.2632 18.208C37.6294 19.0951 37.8125 20.0838 37.8125 21.1743C37.8125 22.2485 37.6294 23.2292 37.2632 24.1162C36.897 25.0033 36.3843 25.7682 35.7251 26.4111C35.0659 27.0459 34.2928 27.5342 33.4058 27.876C32.5269 28.2178 31.5625 28.3887 30.5127 28.3887H27.0215C25.9798 28.3887 25.0155 28.2178 24.1284 27.876C23.2414 27.5342 22.4642 27.0459 21.7969 26.4111C21.1377 25.7764 20.625 25.0195 20.2588 24.1406C19.9007 23.2536 19.7217 22.2729 19.7217 21.1987C19.7217 20.1082 19.9007 19.1195 20.2588 18.2324C20.625 17.3372 21.1377 16.5682 21.7969 15.9253C22.4642 15.2743 23.2414 14.7738 24.1284 14.4238C25.0155 14.0739 25.9798 13.8989 27.0215 13.8989ZM27.0215 16.3403C26.11 16.3403 25.3247 16.5356 24.6655 16.9263C24.0063 17.3088 23.4977 17.8621 23.1396 18.5864C22.7897 19.3107 22.6147 20.1815 22.6147 21.1987C22.6147 21.9474 22.7165 22.6147 22.9199 23.2007C23.1234 23.7866 23.4163 24.283 23.7988 24.6899C24.1813 25.0968 24.6452 25.4102 25.1904 25.6299C25.7357 25.8496 26.346 25.9595 27.0215 25.9595H30.5371C31.4404 25.9595 32.2176 25.7682 32.8687 25.3857C33.5197 24.9951 34.0202 24.4417 34.3701 23.7256C34.7282 23.0094 34.9072 22.159 34.9072 21.1743C34.9072 20.4175 34.8055 19.742 34.6021 19.1479C34.4067 18.5457 34.1178 18.0371 33.7354 17.6221C33.361 17.207 32.9053 16.8896 32.3682 16.6699C31.8311 16.4502 31.2207 16.3403 30.5371 16.3403H27.0215ZM30.2441 11.4941V30.7324H27.3022V11.4941H30.2441ZM40.1436 23.5425V23.2617C40.1436 22.3096 40.2819 21.4266 40.5586 20.6128C40.8353 19.7909 41.234 19.0788 41.7549 18.4766C42.2839 17.8662 42.9268 17.3942 43.6836 17.0605C44.4486 16.7188 45.3112 16.5479 46.2715 16.5479C47.2399 16.5479 48.1025 16.7188 48.8594 17.0605C49.6243 17.3942 50.2713 17.8662 50.8003 18.4766C51.3293 19.0788 51.7321 19.7909 52.0088 20.6128C52.2855 21.4266 52.4238 22.3096 52.4238 23.2617V23.5425C52.4238 24.4946 52.2855 25.3776 52.0088 26.1914C51.7321 27.0052 51.3293 27.7173 50.8003 28.3276C50.2713 28.9299 49.6284 29.4019 48.8716 29.7437C48.1147 30.0773 47.2562 30.2441 46.2959 30.2441C45.3275 30.2441 44.4608 30.0773 43.6958 29.7437C42.939 29.4019 42.2961 28.9299 41.7671 28.3276C41.2381 27.7173 40.8353 27.0052 40.5586 26.1914C40.2819 25.3776 40.1436 24.4946 40.1436 23.5425ZM43.0854 23.2617V23.5425C43.0854 24.1366 43.1465 24.6981 43.2686 25.2271C43.3906 25.756 43.5819 26.2199 43.8423 26.6187C44.1027 27.0174 44.4364 27.3307 44.8433 27.5586C45.2502 27.7865 45.7344 27.9004 46.2959 27.9004C46.8411 27.9004 47.3132 27.7865 47.7119 27.5586C48.1188 27.3307 48.4525 27.0174 48.7129 26.6187C48.9733 26.2199 49.1646 25.756 49.2866 25.2271C49.4168 24.6981 49.4819 24.1366 49.4819 23.5425V23.2617C49.4819 22.6758 49.4168 22.1224 49.2866 21.6016C49.1646 21.0726 48.9692 20.6047 48.7007 20.1978C48.4403 19.7909 48.1066 19.4735 47.6997 19.2456C47.3009 19.0096 46.8249 18.8916 46.2715 18.8916C45.7181 18.8916 45.238 19.0096 44.8311 19.2456C44.4323 19.4735 44.1027 19.7909 43.8423 20.1978C43.5819 20.6047 43.3906 21.0726 43.2686 21.6016C43.1465 22.1224 43.0854 22.6758 43.0854 23.2617ZM61.2246 16.792V30H58.2705V16.792H61.2246ZM65.5581 16.792V19.1113H54.0103V16.792H65.5581ZM66.998 23.5425V23.2617C66.998 22.3096 67.1364 21.4266 67.4131 20.6128C67.6898 19.7909 68.0885 19.0788 68.6094 18.4766C69.1383 17.8662 69.7812 17.3942 70.5381 17.0605C71.3031 16.7188 72.1657 16.5479 73.126 16.5479C74.0944 16.5479 74.957 16.7188 75.7139 17.0605C76.4788 17.3942 77.1258 17.8662 77.6548 18.4766C78.1838 19.0788 78.5866 19.7909 78.8633 20.6128C79.14 21.4266 79.2783 22.3096 79.2783 23.2617V23.5425C79.2783 24.4946 79.14 25.3776 78.8633 26.1914C78.5866 27.0052 78.1838 27.7173 77.6548 28.3276C77.1258 28.9299 76.4829 29.4019 75.7261 29.7437C74.9692 30.0773 74.1107 30.2441 73.1504 30.2441C72.182 30.2441 71.3153 30.0773 70.5503 29.7437C69.7935 29.4019 69.1506 28.9299 68.6216 28.3276C68.0926 27.7173 67.6898 27.0052 67.4131 26.1914C67.1364 25.3776 66.998 24.4946 66.998 23.5425ZM69.9399 23.2617V23.5425C69.9399 24.1366 70.001 24.6981 70.123 25.2271C70.2451 25.756 70.4364 26.2199 70.6968 26.6187C70.9572 27.0174 71.2909 27.3307 71.6978 27.5586C72.1047 27.7865 72.5889 27.9004 73.1504 27.9004C73.6956 27.9004 74.1676 27.7865 74.5664 27.5586C74.9733 27.3307 75.307 27.0174 75.5674 26.6187C75.8278 26.2199 76.019 25.756 76.1411 25.2271C76.2713 24.6981 76.3364 24.1366 76.3364 23.5425V23.2617C76.3364 22.6758 76.2713 22.1224 76.1411 21.6016C76.019 21.0726 75.8237 20.6047 75.5552 20.1978C75.2948 19.7909 74.9611 19.4735 74.5542 19.2456C74.1554 19.0096 73.6794 18.8916 73.126 18.8916C72.5726 18.8916 72.0924 19.0096 71.6855 19.2456C71.2868 19.4735 70.9572 19.7909 70.6968 20.1978C70.4364 20.6047 70.2451 21.0726 70.123 21.6016C70.001 22.1224 69.9399 22.6758 69.9399 23.2617Z" fill="black"/>
</svg>
