<svg width="95" height="86" viewBox="0 0 95 86" fill="none" xmlns="http://www.w3.org/2000/svg">
<rect width="95" height="86" rx="20" fill="white"/>
<path d="M47 26C44.8986 26 42.8443 26.6231 41.0971 27.7906C39.3498 28.9581 37.988 30.6175 37.1838 32.559C36.3796 34.5005 36.1692 36.6368 36.5792 38.6978C36.9891 40.7589 38.0011 42.6521 39.487 44.138C40.9729 45.6239 42.8661 46.6359 44.9272 47.0458C46.9882 47.4558 49.1246 47.2454 51.066 46.4412C53.0075 45.637 54.6669 44.2752 55.8344 42.5279C57.0019 40.7807 57.625 38.7264 57.625 36.625C57.625 33.8071 56.5056 31.1046 54.513 29.112C52.5204 27.1194 49.8179 26 47 26ZM47 43C45.7392 43 44.5066 42.6261 43.4582 41.9256C42.4099 41.2251 41.5928 40.2295 41.1103 39.0646C40.6278 37.8997 40.5015 36.6179 40.7475 35.3813C40.9935 34.1447 41.6006 33.0088 42.4922 32.1172C43.3838 31.2256 44.5197 30.6185 45.7563 30.3725C46.9929 30.1265 48.2747 30.2528 49.4396 30.7353C50.6045 31.2178 51.6001 32.0349 52.3006 33.0832C53.0011 34.1316 53.375 35.3641 53.375 36.625C53.3733 38.3152 52.7011 39.9358 51.5059 41.1309C50.3108 42.3261 48.6902 42.9983 47 43Z" fill="black"/>
<path d="M47 13.25C41.116 13.25 35.3642 14.9948 30.4718 18.2638C25.5794 21.5328 21.7663 26.1791 19.5146 31.6152C17.2629 37.0513 16.6737 43.033 17.8217 48.8039C18.9696 54.5749 21.803 59.8758 25.9636 64.0364C30.1242 68.197 35.4251 71.0305 41.1961 72.1784C46.967 73.3263 52.9487 72.7371 58.3848 70.4854C63.8209 68.2337 68.4673 64.4206 71.7362 59.5282C75.0052 54.6359 76.75 48.884 76.75 43C76.741 35.1126 73.6038 27.5508 68.0265 21.9735C62.4492 16.3963 54.8874 13.259 47 13.25V13.25ZM34.25 65.0511V62.125C34.2517 60.4348 34.9239 58.8142 36.1191 57.6191C37.3143 56.4239 38.9348 55.7517 40.625 55.75H53.375C55.0652 55.7517 56.6858 56.4239 57.881 57.6191C59.0761 58.8142 59.7483 60.4348 59.75 62.125V65.0511C55.8807 67.3104 51.4806 68.501 47 68.501C42.5194 68.501 38.1193 67.3104 34.25 65.0511V65.0511ZM63.983 61.9678C63.9407 59.1805 62.805 56.5214 60.8208 54.5634C58.8366 52.6054 56.1626 51.5053 53.375 51.5H40.625C37.8374 51.5053 35.1634 52.6054 33.1792 54.5634C31.195 56.5214 30.0594 59.1805 30.017 61.9678C26.1635 58.5268 23.4459 53.9966 22.2243 48.9769C21.0026 43.9572 21.3345 38.6849 23.1759 33.8579C25.0173 29.031 28.2814 24.8773 32.5359 21.9467C36.7905 19.0161 41.8349 17.4469 47.0011 17.4469C52.1673 17.4469 57.2117 19.0161 61.4662 21.9467C65.7208 24.8773 68.9849 29.031 70.8263 33.8579C72.6677 38.6849 72.9995 43.9572 71.7779 48.9769C70.5562 53.9966 67.8387 58.5268 63.9851 61.9678H63.983Z" fill="black"/>
</svg>
