<svg width="96" height="40" viewBox="0 0 96 40" fill="none" xmlns="http://www.w3.org/2000/svg">
<g clip-path="url(#clip0_250_342)">
<rect width="96" height="40" rx="20" fill="#6750A4"/>
<rect width="96" height="40" fill="white" fill-opacity="0.12"/>
<path d="M31.6855 19.2031V20.5635H26.4014V19.2031H31.6855ZM26.8252 15.0469V25H25.1094V15.0469H26.8252ZM33.0049 15.0469V25H31.2959V15.0469H33.0049ZM39.1547 23.5166V19.9893C39.1547 19.7249 39.1068 19.4971 39.0111 19.3057C38.9154 19.1143 38.7696 18.9661 38.5736 18.8613C38.3822 18.7565 38.1407 18.7041 37.849 18.7041C37.5801 18.7041 37.3477 18.7497 37.1518 18.8408C36.9558 18.932 36.8031 19.055 36.6938 19.21C36.5844 19.3649 36.5297 19.5404 36.5297 19.7363H34.8891C34.8891 19.4447 34.9597 19.1621 35.101 18.8887C35.2423 18.6152 35.4473 18.3714 35.7162 18.1572C35.9851 17.943 36.3064 17.7744 36.6801 17.6514C37.0538 17.5283 37.473 17.4668 37.9379 17.4668C38.4939 17.4668 38.9861 17.5602 39.4145 17.7471C39.8474 17.9339 40.1869 18.2165 40.433 18.5947C40.6837 18.9684 40.809 19.4378 40.809 20.0029V23.291C40.809 23.6283 40.8318 23.9313 40.8773 24.2002C40.9275 24.4645 40.9981 24.6947 41.0893 24.8906V25H39.4008C39.3233 24.8223 39.2618 24.5967 39.2162 24.3232C39.1752 24.0452 39.1547 23.7764 39.1547 23.5166ZM39.3939 20.502L39.4076 21.5205H38.225C37.9197 21.5205 37.6508 21.5501 37.4184 21.6094C37.1859 21.6641 36.9923 21.7461 36.8373 21.8555C36.6824 21.9648 36.5661 22.097 36.4887 22.252C36.4112 22.4069 36.3725 22.5824 36.3725 22.7783C36.3725 22.9743 36.418 23.1543 36.5092 23.3184C36.6003 23.4779 36.7325 23.6032 36.9057 23.6943C37.0834 23.7855 37.2976 23.8311 37.5482 23.8311C37.8855 23.8311 38.1794 23.7627 38.4301 23.626C38.6853 23.4847 38.8858 23.3138 39.0316 23.1133C39.1775 22.9082 39.2549 22.7145 39.2641 22.5322L39.7973 23.2637C39.7426 23.4505 39.6492 23.651 39.517 23.8652C39.3848 24.0794 39.2117 24.2845 38.9975 24.4805C38.7878 24.6719 38.5349 24.8291 38.2387 24.9521C37.947 25.0752 37.6098 25.1367 37.227 25.1367C36.7439 25.1367 36.3132 25.041 35.935 24.8496C35.5567 24.6536 35.2605 24.3916 35.0463 24.0635C34.8321 23.7308 34.725 23.3548 34.725 22.9355C34.725 22.5436 34.7979 22.1973 34.9438 21.8965C35.0941 21.5911 35.3129 21.3359 35.6 21.1309C35.8917 20.9258 36.2471 20.7708 36.6664 20.666C37.0857 20.5566 37.5642 20.502 38.102 20.502H39.3939ZM48.5721 17.6035V25H46.9246V17.6035H48.5721ZM47.8748 20.8779V22.1836C47.6743 22.2702 47.4487 22.3499 47.198 22.4229C46.952 22.4912 46.6922 22.5482 46.4188 22.5938C46.1453 22.6348 45.8696 22.6553 45.5916 22.6553C44.9399 22.6553 44.3771 22.555 43.9031 22.3545C43.4337 22.154 43.0714 21.8464 42.8162 21.4316C42.5656 21.0124 42.4402 20.4814 42.4402 19.8389V17.5967H44.0809V19.8389C44.0809 20.208 44.1355 20.502 44.2449 20.7207C44.3589 20.9395 44.5275 21.0967 44.7508 21.1924C44.9741 21.2881 45.2544 21.3359 45.5916 21.3359C45.8742 21.3359 46.1408 21.3177 46.3914 21.2812C46.6421 21.2402 46.8904 21.1855 47.1365 21.1172C47.3826 21.0488 47.6287 20.9691 47.8748 20.8779ZM54.5988 23.5166V19.9893C54.5988 19.7249 54.551 19.4971 54.4553 19.3057C54.3596 19.1143 54.2137 18.9661 54.0178 18.8613C53.8264 18.7565 53.5848 18.7041 53.2932 18.7041C53.0243 18.7041 52.7919 18.7497 52.5959 18.8408C52.3999 18.932 52.2473 19.055 52.1379 19.21C52.0285 19.3649 51.9738 19.5404 51.9738 19.7363H50.3332C50.3332 19.4447 50.4038 19.1621 50.5451 18.8887C50.6864 18.6152 50.8915 18.3714 51.1604 18.1572C51.4292 17.943 51.7505 17.7744 52.1242 17.6514C52.4979 17.5283 52.9172 17.4668 53.382 17.4668C53.938 17.4668 54.4302 17.5602 54.8586 17.7471C55.2915 17.9339 55.6311 18.2165 55.8771 18.5947C56.1278 18.9684 56.2531 19.4378 56.2531 20.0029V23.291C56.2531 23.6283 56.2759 23.9313 56.3215 24.2002C56.3716 24.4645 56.4423 24.6947 56.5334 24.8906V25H54.8449C54.7674 24.8223 54.7059 24.5967 54.6604 24.3232C54.6193 24.0452 54.5988 23.7764 54.5988 23.5166ZM54.8381 20.502L54.8518 21.5205H53.6691C53.3638 21.5205 53.0949 21.5501 52.8625 21.6094C52.6301 21.6641 52.4364 21.7461 52.2814 21.8555C52.1265 21.9648 52.0103 22.097 51.9328 22.252C51.8553 22.4069 51.8166 22.5824 51.8166 22.7783C51.8166 22.9743 51.8622 23.1543 51.9533 23.3184C52.0445 23.4779 52.1766 23.6032 52.3498 23.6943C52.5275 23.7855 52.7417 23.8311 52.9924 23.8311C53.3296 23.8311 53.6236 23.7627 53.8742 23.626C54.1294 23.4847 54.3299 23.3138 54.4758 23.1133C54.6216 22.9082 54.6991 22.7145 54.7082 22.5322L55.2414 23.2637C55.1867 23.4505 55.0933 23.651 54.9611 23.8652C54.829 24.0794 54.6558 24.2845 54.4416 24.4805C54.232 24.6719 53.979 24.8291 53.6828 24.9521C53.3911 25.0752 53.0539 25.1367 52.6711 25.1367C52.188 25.1367 51.7574 25.041 51.3791 24.8496C51.0008 24.6536 50.7046 24.3916 50.4904 24.0635C50.2762 23.7308 50.1691 23.3548 50.1691 22.9355C50.1691 22.5436 50.2421 22.1973 50.3879 21.8965C50.5383 21.5911 50.757 21.3359 51.0441 21.1309C51.3358 20.9258 51.6913 20.7708 52.1105 20.666C52.5298 20.5566 53.0083 20.502 53.5461 20.502H54.8381ZM61.398 17.6035V25H59.7438V17.6035H61.398ZM63.8248 17.6035V18.9023H57.358V17.6035H63.8248ZM66.249 19.9551H68.4297C69.0677 19.9551 69.61 20.0622 70.0566 20.2764C70.5033 20.4906 70.8428 20.7891 71.0752 21.1719C71.3122 21.5501 71.4307 21.9831 71.4307 22.4707C71.4307 22.8307 71.3646 23.1657 71.2324 23.4756C71.1003 23.7809 70.9043 24.0475 70.6445 24.2754C70.3893 24.5033 70.0749 24.681 69.7012 24.8086C69.332 24.9362 68.9082 25 68.4297 25H65.1553V17.6035H66.8096V23.6943H68.4297C68.7578 23.6943 69.0199 23.6374 69.2158 23.5234C69.4118 23.4095 69.5531 23.2614 69.6396 23.0791C69.7308 22.8968 69.7764 22.7031 69.7764 22.498C69.7764 22.2884 69.7308 22.0902 69.6396 21.9033C69.5531 21.7165 69.4118 21.5638 69.2158 21.4453C69.0199 21.3268 68.7578 21.2676 68.4297 21.2676H66.249V19.9551Z" fill="white"/>
</g>
<defs>
<clipPath id="clip0_250_342">
<rect width="96" height="40" rx="20" fill="white"/>
</clipPath>
</defs>
</svg>
