<svg width="120" height="40" viewBox="0 0 120 40" fill="none" xmlns="http://www.w3.org/2000/svg">
<g clip-path="url(#clip0_156_339)">
<rect width="120" height="40" fill="#6750A4" fill-opacity="0.08"/>
<path d="M33.0561 19.75V20.2969C33.0561 21.0488 32.9581 21.7233 32.7621 22.3203C32.5661 22.9173 32.2859 23.4255 31.9213 23.8447C31.5613 24.264 31.1283 24.5853 30.6225 24.8086C30.1166 25.0273 29.5561 25.1367 28.9408 25.1367C28.3301 25.1367 27.7719 25.0273 27.266 24.8086C26.7647 24.5853 26.3295 24.264 25.9604 23.8447C25.5912 23.4255 25.3041 22.9173 25.099 22.3203C24.8985 21.7233 24.7982 21.0488 24.7982 20.2969V19.75C24.7982 18.998 24.8985 18.3258 25.099 17.7334C25.2995 17.1364 25.5821 16.6283 25.9467 16.209C26.3158 15.7852 26.751 15.4639 27.2523 15.2451C27.7582 15.0218 28.3165 14.9102 28.9271 14.9102C29.5424 14.9102 30.1029 15.0218 30.6088 15.2451C31.1146 15.4639 31.5499 15.7852 31.9145 16.209C32.279 16.6283 32.5593 17.1364 32.7553 17.7334C32.9558 18.3258 33.0561 18.998 33.0561 19.75ZM31.3402 20.2969V19.7363C31.3402 19.1803 31.2855 18.6904 31.1762 18.2666C31.0714 17.8382 30.9141 17.4805 30.7045 17.1934C30.4994 16.9017 30.2465 16.6829 29.9457 16.5371C29.6449 16.3867 29.3054 16.3115 28.9271 16.3115C28.5489 16.3115 28.2117 16.3867 27.9154 16.5371C27.6192 16.6829 27.3663 16.9017 27.1566 17.1934C26.9516 17.4805 26.7943 17.8382 26.685 18.2666C26.5756 18.6904 26.5209 19.1803 26.5209 19.7363V20.2969C26.5209 20.8529 26.5756 21.3451 26.685 21.7734C26.7943 22.2018 26.9538 22.5641 27.1635 22.8604C27.3777 23.152 27.6329 23.373 27.9291 23.5234C28.2253 23.6693 28.5626 23.7422 28.9408 23.7422C29.3236 23.7422 29.6631 23.6693 29.9594 23.5234C30.2556 23.373 30.5062 23.152 30.7113 22.8604C30.9164 22.5641 31.0714 22.2018 31.1762 21.7734C31.2855 21.3451 31.3402 20.8529 31.3402 20.2969ZM38.1395 17.6035V25H36.4852V17.6035H38.1395ZM40.5662 17.6035V18.9023H34.0994V17.6035H40.5662ZM43.5441 17.6035V25H41.8967V17.6035H43.5441ZM48.3703 17.6035L45.0412 22.0537H43.1613L42.9426 20.5635H44.3166L46.3127 17.6035H48.3703ZM46.4426 25L44.2141 21.7734L45.5129 20.8369L48.6096 25H46.4426ZM54.5748 17.6035V18.916H50.9654V17.6035H54.5748ZM55.8668 17.6035V25H54.2193V17.6035H55.8668ZM50.5621 17.6035H52.1891L51.9908 21.2607C51.9635 21.8031 51.9088 22.2816 51.8268 22.6963C51.7493 23.1064 51.6445 23.4596 51.5123 23.7559C51.3801 24.0475 51.2184 24.2845 51.027 24.4668C50.8355 24.6491 50.6122 24.7835 50.357 24.8701C50.1018 24.9567 49.8147 25 49.4957 25H48.983L48.9762 23.6465L49.2359 23.626C49.4046 23.6123 49.5504 23.569 49.6734 23.4961C49.7965 23.4186 49.9013 23.3092 49.9879 23.168C50.079 23.0267 50.152 22.8444 50.2066 22.6211C50.2659 22.3978 50.3115 22.1335 50.3434 21.8281C50.3798 21.5228 50.4072 21.1673 50.4254 20.7617L50.5621 17.6035ZM57.4023 21.3838V21.2266C57.4023 20.6934 57.4798 20.1989 57.6348 19.7432C57.7897 19.2829 58.013 18.8841 58.3047 18.5469C58.6009 18.2051 58.9609 17.9408 59.3848 17.7539C59.8132 17.5625 60.2962 17.4668 60.834 17.4668C61.3763 17.4668 61.8594 17.5625 62.2832 17.7539C62.7116 17.9408 63.0739 18.2051 63.3701 18.5469C63.6663 18.8841 63.8919 19.2829 64.0469 19.7432C64.2018 20.1989 64.2793 20.6934 64.2793 21.2266V21.3838C64.2793 21.917 64.2018 22.4115 64.0469 22.8672C63.8919 23.3229 63.6663 23.7217 63.3701 24.0635C63.0739 24.4007 62.7139 24.665 62.29 24.8564C61.8662 25.0433 61.3854 25.1367 60.8477 25.1367C60.3053 25.1367 59.82 25.0433 59.3916 24.8564C58.9678 24.665 58.6077 24.4007 58.3115 24.0635C58.0153 23.7217 57.7897 23.3229 57.6348 22.8672C57.4798 22.4115 57.4023 21.917 57.4023 21.3838ZM59.0498 21.2266V21.3838C59.0498 21.7165 59.084 22.0309 59.1523 22.3271C59.2207 22.6234 59.3278 22.8831 59.4736 23.1064C59.6195 23.3298 59.8063 23.5052 60.0342 23.6328C60.262 23.7604 60.5332 23.8242 60.8477 23.8242C61.153 23.8242 61.4173 23.7604 61.6406 23.6328C61.8685 23.5052 62.0553 23.3298 62.2012 23.1064C62.347 22.8831 62.4541 22.6234 62.5225 22.3271C62.5954 22.0309 62.6318 21.7165 62.6318 21.3838V21.2266C62.6318 20.8984 62.5954 20.5885 62.5225 20.2969C62.4541 20.0007 62.3447 19.7386 62.1943 19.5107C62.0485 19.2829 61.8617 19.1051 61.6338 18.9775C61.4105 18.8454 61.1439 18.7793 60.834 18.7793C60.5241 18.7793 60.2552 18.8454 60.0273 18.9775C59.804 19.1051 59.6195 19.2829 59.4736 19.5107C59.3278 19.7386 59.2207 20.0007 59.1523 20.2969C59.084 20.5885 59.0498 20.8984 59.0498 21.2266ZM70.8119 20.6934V21.9922H66.9838V20.6934H70.8119ZM67.4623 17.6035V25H65.8148V17.6035H67.4623ZM72.0014 17.6035V25H70.3539V17.6035H72.0014ZM75.5603 22.5938L78.4656 17.6035H80.1131V25H78.4656V20.0029L75.5603 25H73.9129V17.6035H75.5603V22.5938ZM85.3879 17.6035V25H83.7336V17.6035H85.3879ZM87.8146 17.6035V18.9023H81.3479V17.6035H87.8146ZM90.2389 19.9551H92.4195C93.0576 19.9551 93.5999 20.0622 94.0465 20.2764C94.4931 20.4906 94.8326 20.7891 95.065 21.1719C95.302 21.5501 95.4205 21.9831 95.4205 22.4707C95.4205 22.8307 95.3544 23.1657 95.2223 23.4756C95.0901 23.7809 94.8941 24.0475 94.6344 24.2754C94.3792 24.5033 94.0647 24.681 93.691 24.8086C93.3219 24.9362 92.898 25 92.4195 25H89.1451V17.6035H90.7994V23.6943H92.4195C92.7477 23.6943 93.0097 23.6374 93.2057 23.5234C93.4016 23.4095 93.5429 23.2614 93.6295 23.0791C93.7206 22.8968 93.7662 22.7031 93.7662 22.498C93.7662 22.2884 93.7206 22.0902 93.6295 21.9033C93.5429 21.7165 93.4016 21.5638 93.2057 21.4453C93.0097 21.3268 92.7477 21.2676 92.4195 21.2676H90.2389V19.9551Z" fill="#6750A4"/>
</g>
<rect x="0.5" y="0.5" width="119" height="39" rx="19.5" stroke="#79747E"/>
<defs>
<clipPath id="clip0_156_339">
<rect width="120" height="40" rx="20" fill="white"/>
</clipPath>
</defs>
</svg>
