<svg width="137" height="40" viewBox="0 0 137 40" fill="none" xmlns="http://www.w3.org/2000/svg">
<g clip-path="url(#clip0_155_336)">
<rect width="137" height="40" rx="20" fill="#6750A4"/>
<rect width="137" height="40" fill="white" fill-opacity="0.12"/>
<path d="M33.1982 15.0469V25H31.4893V16.4141H27.0664V25H25.3574V15.0469H33.1982ZM34.8842 21.3838V21.2266C34.8842 20.6934 34.9617 20.1989 35.1166 19.7432C35.2715 19.2829 35.4949 18.8841 35.7865 18.5469C36.0827 18.2051 36.4428 17.9408 36.8666 17.7539C37.295 17.5625 37.7781 17.4668 38.3158 17.4668C38.8581 17.4668 39.3412 17.5625 39.765 17.7539C40.1934 17.9408 40.5557 18.2051 40.852 18.5469C41.1482 18.8841 41.3738 19.2829 41.5287 19.7432C41.6837 20.1989 41.7611 20.6934 41.7611 21.2266V21.3838C41.7611 21.917 41.6837 22.4115 41.5287 22.8672C41.3738 23.3229 41.1482 23.7217 40.852 24.0635C40.5557 24.4007 40.1957 24.665 39.7719 24.8564C39.348 25.0433 38.8673 25.1367 38.3295 25.1367C37.7872 25.1367 37.3018 25.0433 36.8734 24.8564C36.4496 24.665 36.0896 24.4007 35.7934 24.0635C35.4971 23.7217 35.2715 23.3229 35.1166 22.8672C34.9617 22.4115 34.8842 21.917 34.8842 21.3838ZM36.5316 21.2266V21.3838C36.5316 21.7165 36.5658 22.0309 36.6342 22.3271C36.7025 22.6234 36.8096 22.8831 36.9555 23.1064C37.1013 23.3298 37.2882 23.5052 37.516 23.6328C37.7439 23.7604 38.015 23.8242 38.3295 23.8242C38.6348 23.8242 38.8992 23.7604 39.1225 23.6328C39.3503 23.5052 39.5372 23.3298 39.683 23.1064C39.8288 22.8831 39.9359 22.6234 40.0043 22.3271C40.0772 22.0309 40.1137 21.7165 40.1137 21.3838V21.2266C40.1137 20.8984 40.0772 20.5885 40.0043 20.2969C39.9359 20.0007 39.8266 19.7386 39.6762 19.5107C39.5303 19.2829 39.3435 19.1051 39.1156 18.9775C38.8923 18.8454 38.6257 18.7793 38.3158 18.7793C38.0059 18.7793 37.737 18.8454 37.5092 18.9775C37.2859 19.1051 37.1013 19.2829 36.9555 19.5107C36.8096 19.7386 36.7025 20.0007 36.6342 20.2969C36.5658 20.5885 36.5316 20.8984 36.5316 21.2266ZM44.0896 17.6035H45.7371L45.6551 20.208C45.6323 20.9645 45.5457 21.6139 45.3953 22.1562C45.2449 22.6986 45.049 23.1566 44.8074 23.5303C44.5659 23.8994 44.2924 24.2025 43.9871 24.4395C43.6863 24.6764 43.3696 24.8633 43.0369 25H42.5516V23.7012L42.784 23.6875C42.9799 23.4779 43.1486 23.2682 43.2898 23.0586C43.4357 22.8444 43.5587 22.6097 43.659 22.3545C43.7592 22.0947 43.8367 21.7917 43.8914 21.4453C43.9507 21.099 43.9894 20.6865 44.0076 20.208L44.0896 17.6035ZM44.5271 17.6035H49.2166V25H47.576V18.998H44.5271V17.6035ZM42.1756 23.6875H50.2283V27.2012H48.5809V25H43.8436V27.2012H42.1688L42.1756 23.6875ZM54.799 17.6035V25H53.1447V17.6035H54.799ZM57.2258 17.6035V18.9023H50.759V17.6035H57.2258ZM62.0221 21.835H59.6568L59.6432 20.6729H61.5846C61.9036 20.6729 62.1656 20.641 62.3707 20.5771C62.5803 20.5133 62.7353 20.4176 62.8355 20.29C62.9358 20.1579 62.9859 19.9984 62.9859 19.8115C62.9859 19.6566 62.9563 19.5221 62.8971 19.4082C62.8378 19.2897 62.7467 19.194 62.6236 19.1211C62.5051 19.0436 62.3548 18.9889 62.1725 18.957C61.9947 18.9206 61.7874 18.9023 61.5504 18.9023H60.2037V25H58.5563V17.6035H61.5504C62.0244 17.6035 62.4505 17.6445 62.8287 17.7266C63.2115 17.8086 63.5374 17.9339 63.8063 18.1025C64.0751 18.2712 64.2802 18.4854 64.4215 18.7451C64.5673 19.0003 64.6402 19.3011 64.6402 19.6475C64.6402 19.8753 64.5901 20.0895 64.4898 20.29C64.3941 20.4906 64.2506 20.6683 64.0592 20.8232C63.8678 20.9782 63.6331 21.1058 63.3551 21.2061C63.0771 21.3018 62.7581 21.361 62.398 21.3838L62.0221 21.835ZM62.0221 25H59.1783L59.8346 23.7012H62.0221C62.3137 23.7012 62.5553 23.6647 62.7467 23.5918C62.9381 23.5189 63.0794 23.4141 63.1705 23.2773C63.2662 23.1361 63.3141 22.9697 63.3141 22.7783C63.3141 22.5824 63.2685 22.4137 63.1773 22.2725C63.0862 22.1312 62.9449 22.0241 62.7535 21.9512C62.5667 21.8737 62.3229 21.835 62.0221 21.835H60.1422L60.1559 20.6729H62.3912L62.8629 21.124C63.3323 21.1559 63.7219 21.2562 64.0318 21.4248C64.3417 21.5934 64.5742 21.8053 64.7291 22.0605C64.8841 22.3158 64.9615 22.5938 64.9615 22.8945C64.9615 23.2409 64.8954 23.5462 64.7633 23.8105C64.6357 24.0749 64.4443 24.2959 64.1891 24.4736C63.9384 24.6468 63.6308 24.779 63.2662 24.8701C62.9016 24.9567 62.4869 25 62.0221 25ZM69.7441 25.1367C69.1973 25.1367 68.7028 25.0479 68.2607 24.8701C67.8232 24.6878 67.4495 24.4349 67.1396 24.1113C66.8343 23.7878 66.5996 23.4072 66.4355 22.9697C66.2715 22.5322 66.1895 22.0605 66.1895 21.5547V21.2812C66.1895 20.7025 66.2738 20.1784 66.4424 19.709C66.611 19.2396 66.8457 18.8385 67.1465 18.5059C67.4473 18.1686 67.8027 17.9111 68.2129 17.7334C68.623 17.5557 69.0674 17.4668 69.5459 17.4668C70.0745 17.4668 70.5371 17.5557 70.9336 17.7334C71.3301 17.9111 71.6582 18.1618 71.918 18.4854C72.1823 18.8044 72.3783 19.1849 72.5059 19.627C72.638 20.069 72.7041 20.5566 72.7041 21.0898V21.7939H66.9893V20.6113H71.0771V20.4814C71.068 20.1852 71.0088 19.9072 70.8994 19.6475C70.7946 19.3877 70.6328 19.1781 70.4141 19.0186C70.1953 18.859 69.9036 18.7793 69.5391 18.7793C69.2656 18.7793 69.0218 18.8385 68.8076 18.957C68.598 19.071 68.4225 19.2373 68.2812 19.4561C68.14 19.6748 68.0306 19.9391 67.9531 20.249C67.8802 20.5544 67.8438 20.8984 67.8438 21.2812V21.5547C67.8438 21.8783 67.887 22.179 67.9736 22.457C68.0648 22.7305 68.1969 22.9697 68.3701 23.1748C68.5433 23.3799 68.7529 23.5417 68.999 23.6602C69.2451 23.7741 69.5254 23.8311 69.8398 23.8311C70.2363 23.8311 70.5895 23.7513 70.8994 23.5918C71.2093 23.4323 71.4782 23.2067 71.7061 22.915L72.5742 23.7559C72.4147 23.9883 72.2074 24.2116 71.9521 24.4258C71.6969 24.6354 71.3848 24.8063 71.0156 24.9385C70.651 25.0706 70.2272 25.1367 69.7441 25.1367ZM75.7436 19.0254V27.8438H74.0961V17.6035H75.6137L75.7436 19.0254ZM80.5629 21.2334V21.377C80.5629 21.9147 80.4991 22.4137 80.3715 22.874C80.2484 23.3298 80.0639 23.7285 79.8178 24.0703C79.5762 24.4076 79.2777 24.6696 78.9223 24.8564C78.5668 25.0433 78.1566 25.1367 77.6918 25.1367C77.2315 25.1367 76.8282 25.0524 76.4818 24.8838C76.14 24.7106 75.8506 24.4668 75.6137 24.1523C75.3767 23.8379 75.1853 23.4688 75.0395 23.0449C74.8982 22.6165 74.7979 22.1471 74.7387 21.6367V21.083C74.7979 20.5407 74.8982 20.0485 75.0395 19.6064C75.1853 19.1644 75.3767 18.7839 75.6137 18.4648C75.8506 18.1458 76.14 17.8997 76.4818 17.7266C76.8236 17.5534 77.2224 17.4668 77.6781 17.4668C78.143 17.4668 78.5554 17.5579 78.9154 17.7402C79.2755 17.918 79.5785 18.1732 79.8246 18.5059C80.0707 18.834 80.2553 19.2305 80.3783 19.6953C80.5014 20.1556 80.5629 20.6683 80.5629 21.2334ZM78.9154 21.377V21.2334C78.9154 20.8916 78.8835 20.5749 78.8197 20.2832C78.7559 19.987 78.6557 19.7272 78.5189 19.5039C78.3822 19.2806 78.2068 19.1074 77.9926 18.9844C77.7829 18.8568 77.53 18.793 77.2338 18.793C76.9421 18.793 76.6915 18.8431 76.4818 18.9434C76.2722 19.0391 76.0967 19.1735 75.9555 19.3467C75.8142 19.5199 75.7048 19.7227 75.6273 19.9551C75.5499 20.1829 75.4952 20.4313 75.4633 20.7002V22.0264C75.518 22.3545 75.6114 22.6553 75.7436 22.9287C75.8757 23.2021 76.0626 23.4209 76.3041 23.585C76.5502 23.7445 76.8646 23.8242 77.2475 23.8242C77.5437 23.8242 77.7966 23.7604 78.0062 23.6328C78.2159 23.5052 78.3868 23.3298 78.5189 23.1064C78.6557 22.8786 78.7559 22.6165 78.8197 22.3203C78.8835 22.0241 78.9154 21.7096 78.9154 21.377ZM83.2811 17.6035H84.9285L84.8465 20.208C84.8237 20.9645 84.7371 21.6139 84.5867 22.1562C84.4363 22.6986 84.2404 23.1566 83.9988 23.5303C83.7573 23.8994 83.4839 24.2025 83.1785 24.4395C82.8777 24.6764 82.561 24.8633 82.2283 25H81.743V23.7012L81.9754 23.6875C82.1714 23.4779 82.34 23.2682 82.4813 23.0586C82.6271 22.8444 82.7501 22.6097 82.8504 22.3545C82.9507 22.0947 83.0281 21.7917 83.0828 21.4453C83.1421 21.099 83.1808 20.6865 83.199 20.208L83.2811 17.6035ZM83.7186 17.6035H88.408V25H86.7674V18.998H83.7186V17.6035ZM81.367 23.6875H89.4197V27.2012H87.7723V25H83.035V27.2012H81.3602L81.367 23.6875ZM92.3566 22.5938L95.2619 17.6035H96.9094V25H95.2619V20.0029L92.3566 25H90.7092V17.6035H92.3566V22.5938ZM102.184 17.6035V25H100.53V17.6035H102.184ZM104.611 17.6035V18.9023H98.1441V17.6035H104.611ZM107.035 19.9551H109.216C109.854 19.9551 110.396 20.0622 110.843 20.2764C111.289 20.4906 111.629 20.7891 111.861 21.1719C112.098 21.5501 112.217 21.9831 112.217 22.4707C112.217 22.8307 112.151 23.1657 112.019 23.4756C111.886 23.7809 111.69 24.0475 111.431 24.2754C111.175 24.5033 110.861 24.681 110.487 24.8086C110.118 24.9362 109.694 25 109.216 25H105.941V17.6035H107.596V23.6943H109.216C109.544 23.6943 109.806 23.6374 110.002 23.5234C110.198 23.4095 110.339 23.2614 110.426 23.0791C110.517 22.8968 110.562 22.7031 110.562 22.498C110.562 22.2884 110.517 22.0902 110.426 21.9033C110.339 21.7165 110.198 21.5638 110.002 21.4453C109.806 21.3268 109.544 21.2676 109.216 21.2676H107.035V19.9551Z" fill="white"/>
</g>
<defs>
<clipPath id="clip0_155_336">
<rect width="137" height="40" rx="20" fill="white"/>
</clipPath>
</defs>
</svg>
