<svg width="133" height="40" viewBox="0 0 133 40" fill="none" xmlns="http://www.w3.org/2000/svg">
<g clip-path="url(#clip0_149_343)">
<rect width="133" height="40" rx="20" fill="#6750A4"/>
<rect width="133" height="40" fill="white" fill-opacity="0.12"/>
<path d="M32.9982 15.0469V25H31.2893V16.4141H26.8664V25H25.1574V15.0469H32.9982ZM36.6529 19.0254V27.8438H35.0055V17.6035H36.523L36.6529 19.0254ZM41.4723 21.2334V21.377C41.4723 21.9147 41.4085 22.4137 41.2809 22.874C41.1578 23.3298 40.9732 23.7285 40.7271 24.0703C40.4856 24.4076 40.1871 24.6696 39.8316 24.8564C39.4762 25.0433 39.066 25.1367 38.6012 25.1367C38.1409 25.1367 37.7376 25.0524 37.3912 24.8838C37.0494 24.7106 36.76 24.4668 36.523 24.1523C36.2861 23.8379 36.0947 23.4688 35.9488 23.0449C35.8076 22.6165 35.7073 22.1471 35.648 21.6367V21.083C35.7073 20.5407 35.8076 20.0485 35.9488 19.6064C36.0947 19.1644 36.2861 18.7839 36.523 18.4648C36.76 18.1458 37.0494 17.8997 37.3912 17.7266C37.733 17.5534 38.1318 17.4668 38.5875 17.4668C39.0523 17.4668 39.4648 17.5579 39.8248 17.7402C40.1848 17.918 40.4879 18.1732 40.734 18.5059C40.9801 18.834 41.1646 19.2305 41.2877 19.6953C41.4107 20.1556 41.4723 20.6683 41.4723 21.2334ZM39.8248 21.377V21.2334C39.8248 20.8916 39.7929 20.5749 39.7291 20.2832C39.6653 19.987 39.565 19.7272 39.4283 19.5039C39.2916 19.2806 39.1161 19.1074 38.902 18.9844C38.6923 18.8568 38.4394 18.793 38.1432 18.793C37.8515 18.793 37.6008 18.8431 37.3912 18.9434C37.1816 19.0391 37.0061 19.1735 36.8648 19.3467C36.7236 19.5199 36.6142 19.7227 36.5367 19.9551C36.4592 20.1829 36.4046 20.4313 36.3727 20.7002V22.0264C36.4273 22.3545 36.5208 22.6553 36.6529 22.9287C36.7851 23.2021 36.9719 23.4209 37.2135 23.585C37.4596 23.7445 37.774 23.8242 38.1568 23.8242C38.4531 23.8242 38.706 23.7604 38.9156 23.6328C39.1253 23.5052 39.2962 23.3298 39.4283 23.1064C39.565 22.8786 39.6653 22.6165 39.7291 22.3203C39.7929 22.0241 39.8248 21.7096 39.8248 21.377ZM42.6592 21.3838V21.2266C42.6592 20.6934 42.7367 20.1989 42.8916 19.7432C43.0465 19.2829 43.2699 18.8841 43.5615 18.5469C43.8577 18.2051 44.2178 17.9408 44.6416 17.7539C45.07 17.5625 45.5531 17.4668 46.0908 17.4668C46.6331 17.4668 47.1162 17.5625 47.54 17.7539C47.9684 17.9408 48.3307 18.2051 48.627 18.5469C48.9232 18.8841 49.1488 19.2829 49.3037 19.7432C49.4587 20.1989 49.5361 20.6934 49.5361 21.2266V21.3838C49.5361 21.917 49.4587 22.4115 49.3037 22.8672C49.1488 23.3229 48.9232 23.7217 48.627 24.0635C48.3307 24.4007 47.9707 24.665 47.5469 24.8564C47.123 25.0433 46.6423 25.1367 46.1045 25.1367C45.5622 25.1367 45.0768 25.0433 44.6484 24.8564C44.2246 24.665 43.8646 24.4007 43.5684 24.0635C43.2721 23.7217 43.0465 23.3229 42.8916 22.8672C42.7367 22.4115 42.6592 21.917 42.6592 21.3838ZM44.3066 21.2266V21.3838C44.3066 21.7165 44.3408 22.0309 44.4092 22.3271C44.4775 22.6234 44.5846 22.8831 44.7305 23.1064C44.8763 23.3298 45.0632 23.5052 45.291 23.6328C45.5189 23.7604 45.79 23.8242 46.1045 23.8242C46.4098 23.8242 46.6742 23.7604 46.8975 23.6328C47.1253 23.5052 47.3122 23.3298 47.458 23.1064C47.6038 22.8831 47.7109 22.6234 47.7793 22.3271C47.8522 22.0309 47.8887 21.7165 47.8887 21.3838V21.2266C47.8887 20.8984 47.8522 20.5885 47.7793 20.2969C47.7109 20.0007 47.6016 19.7386 47.4512 19.5107C47.3053 19.2829 47.1185 19.1051 46.8906 18.9775C46.6673 18.8454 46.4007 18.7793 46.0908 18.7793C45.7809 18.7793 45.512 18.8454 45.2842 18.9775C45.0609 19.1051 44.8763 19.2829 44.7305 19.5107C44.5846 19.7386 44.4775 20.0007 44.4092 20.2969C44.3408 20.5885 44.3066 20.8984 44.3066 21.2266ZM51.8646 17.6035H53.5121L53.4301 20.208C53.4073 20.9645 53.3207 21.6139 53.1703 22.1562C53.0199 22.6986 52.824 23.1566 52.5824 23.5303C52.3409 23.8994 52.0674 24.2025 51.7621 24.4395C51.4613 24.6764 51.1446 24.8633 50.8119 25H50.3266V23.7012L50.559 23.6875C50.7549 23.4779 50.9236 23.2682 51.0648 23.0586C51.2107 22.8444 51.3337 22.6097 51.434 22.3545C51.5342 22.0947 51.6117 21.7917 51.6664 21.4453C51.7256 21.099 51.7644 20.6865 51.7826 20.208L51.8646 17.6035ZM52.3021 17.6035H56.9916V25H55.351V18.998H52.3021V17.6035ZM49.9506 23.6875H58.0033V27.2012H56.3559V25H51.6186V27.2012H49.9437L49.9506 23.6875ZM58.9646 21.3838V21.2266C58.9646 20.6934 59.0421 20.1989 59.1971 19.7432C59.352 19.2829 59.5753 18.8841 59.867 18.5469C60.1632 18.2051 60.5232 17.9408 60.9471 17.7539C61.3755 17.5625 61.8585 17.4668 62.3963 17.4668C62.9386 17.4668 63.4217 17.5625 63.8455 17.7539C64.2739 17.9408 64.6362 18.2051 64.9324 18.5469C65.2286 18.8841 65.4542 19.2829 65.6092 19.7432C65.7641 20.1989 65.8416 20.6934 65.8416 21.2266V21.3838C65.8416 21.917 65.7641 22.4115 65.6092 22.8672C65.4542 23.3229 65.2286 23.7217 64.9324 24.0635C64.6362 24.4007 64.2762 24.665 63.8523 24.8564C63.4285 25.0433 62.9477 25.1367 62.41 25.1367C61.8676 25.1367 61.3823 25.0433 60.9539 24.8564C60.5301 24.665 60.1701 24.4007 59.8738 24.0635C59.5776 23.7217 59.352 23.3229 59.1971 22.8672C59.0421 22.4115 58.9646 21.917 58.9646 21.3838ZM60.6121 21.2266V21.3838C60.6121 21.7165 60.6463 22.0309 60.7146 22.3271C60.783 22.6234 60.8901 22.8831 61.0359 23.1064C61.1818 23.3298 61.3686 23.5052 61.5965 23.6328C61.8243 23.7604 62.0955 23.8242 62.41 23.8242C62.7153 23.8242 62.9796 23.7604 63.2029 23.6328C63.4308 23.5052 63.6176 23.3298 63.7635 23.1064C63.9093 22.8831 64.0164 22.6234 64.0848 22.3271C64.1577 22.0309 64.1941 21.7165 64.1941 21.3838V21.2266C64.1941 20.8984 64.1577 20.5885 64.0848 20.2969C64.0164 20.0007 63.907 19.7386 63.7566 19.5107C63.6108 19.2829 63.424 19.1051 63.1961 18.9775C62.9728 18.8454 62.7062 18.7793 62.3963 18.7793C62.0864 18.7793 61.8175 18.8454 61.5896 18.9775C61.3663 19.1051 61.1818 19.2829 61.0359 19.5107C60.8901 19.7386 60.783 20.0007 60.7146 20.2969C60.6463 20.5885 60.6121 20.8984 60.6121 21.2266ZM72.1828 17.6035V18.916H68.5734V17.6035H72.1828ZM73.4748 17.6035V25H71.8273V17.6035H73.4748ZM68.1701 17.6035H69.7971L69.5988 21.2607C69.5715 21.8031 69.5168 22.2816 69.4348 22.6963C69.3573 23.1064 69.2525 23.4596 69.1203 23.7559C68.9882 24.0475 68.8264 24.2845 68.635 24.4668C68.4436 24.6491 68.2202 24.7835 67.965 24.8701C67.7098 24.9567 67.4227 25 67.1037 25H66.591L66.5842 23.6465L66.8439 23.626C67.0126 23.6123 67.1584 23.569 67.2814 23.4961C67.4045 23.4186 67.5093 23.3092 67.5959 23.168C67.687 23.0267 67.76 22.8444 67.8146 22.6211C67.8739 22.3978 67.9195 22.1335 67.9514 21.8281C67.9878 21.5228 68.0152 21.1673 68.0334 20.7617L68.1701 17.6035ZM77.7789 22.0127L74.8258 17.6035H76.8492L78.5719 20.5156H80.0143L79.8023 22.0127H77.7789ZM78.6129 21.7734L76.7193 25H74.6959L77.3756 20.8369L78.6129 21.7734ZM81.0055 17.6035V25H79.3648V17.6035H81.0055ZM85.565 17.6035L82.6119 22.0127H80.5816L80.3629 20.5156H81.8121L83.5348 17.6035H85.565ZM83.6646 25L81.7643 21.7734L83.0426 20.8369L85.7086 25H83.6646ZM88.5566 22.5938L91.4619 17.6035H93.1094V25H91.4619V20.0029L88.5566 25H86.9092V17.6035H88.5566V22.5938ZM98.3842 17.6035V25H96.7299V17.6035H98.3842ZM100.811 17.6035V18.9023H94.3441V17.6035H100.811ZM103.235 19.9551H105.416C106.054 19.9551 106.596 20.0622 107.043 20.2764C107.489 20.4906 107.829 20.7891 108.061 21.1719C108.298 21.5501 108.417 21.9831 108.417 22.4707C108.417 22.8307 108.351 23.1657 108.219 23.4756C108.086 23.7809 107.89 24.0475 107.631 24.2754C107.375 24.5033 107.061 24.681 106.687 24.8086C106.318 24.9362 105.894 25 105.416 25H102.141V17.6035H103.796V23.6943H105.416C105.744 23.6943 106.006 23.6374 106.202 23.5234C106.398 23.4095 106.539 23.2614 106.626 23.0791C106.717 22.8968 106.762 22.7031 106.762 22.498C106.762 22.2884 106.717 22.0902 106.626 21.9033C106.539 21.7165 106.398 21.5638 106.202 21.4453C106.006 21.3268 105.744 21.2676 105.416 21.2676H103.235V19.9551Z" fill="white"/>
</g>
<defs>
<clipPath id="clip0_149_343">
<rect width="133" height="40" rx="20" fill="white"/>
</clipPath>
</defs>
</svg>
