<svg width="104" height="40" viewBox="0 0 104 40" fill="none" xmlns="http://www.w3.org/2000/svg">
<g clip-path="url(#clip0_146_337)">
<rect width="104" height="40" rx="20" fill="#6750A4"/>
<rect width="104" height="40" fill="white" fill-opacity="0.12"/>
<path d="M31.076 21.7598H32.785C32.7303 22.4115 32.548 22.9925 32.2381 23.5029C31.9282 24.0088 31.493 24.4076 30.9324 24.6992C30.3719 24.9909 29.6906 25.1367 28.8885 25.1367C28.2732 25.1367 27.7195 25.0273 27.2273 24.8086C26.7352 24.5853 26.3136 24.2708 25.9627 23.8652C25.6118 23.4551 25.3429 22.9606 25.1561 22.3818C24.9738 21.8031 24.8826 21.1559 24.8826 20.4404V19.6133C24.8826 18.8978 24.976 18.2507 25.1629 17.6719C25.3543 17.0931 25.6277 16.5986 25.9832 16.1885C26.3387 15.7738 26.7648 15.457 27.2615 15.2383C27.7628 15.0195 28.3257 14.9102 28.95 14.9102C29.743 14.9102 30.4129 15.056 30.9598 15.3477C31.5066 15.6393 31.9305 16.0426 32.2313 16.5576C32.5366 17.0726 32.7234 17.6628 32.7918 18.3281H31.0828C31.0372 17.8997 30.937 17.5329 30.782 17.2275C30.6316 16.9222 30.4083 16.6898 30.1121 16.5303C29.8159 16.3662 29.4285 16.2842 28.95 16.2842C28.5581 16.2842 28.2163 16.3571 27.9246 16.5029C27.6329 16.6488 27.3891 16.863 27.1932 17.1455C26.9972 17.4281 26.8491 17.7767 26.7488 18.1914C26.6531 18.6016 26.6053 19.071 26.6053 19.5996V20.4404C26.6053 20.9417 26.6486 21.3975 26.7352 21.8076C26.8263 22.2132 26.963 22.5618 27.1453 22.8535C27.3322 23.1452 27.5691 23.3708 27.8563 23.5303C28.1434 23.6898 28.4874 23.7695 28.8885 23.7695C29.3761 23.7695 29.7703 23.6921 30.0711 23.5371C30.3764 23.3822 30.6066 23.1566 30.7615 22.8604C30.921 22.5596 31.0258 22.1927 31.076 21.7598ZM33.965 21.3838V21.2266C33.965 20.6934 34.0425 20.1989 34.1975 19.7432C34.3524 19.2829 34.5757 18.8841 34.8674 18.5469C35.1636 18.2051 35.5236 17.9408 35.9475 17.7539C36.3758 17.5625 36.8589 17.4668 37.3967 17.4668C37.939 17.4668 38.4221 17.5625 38.8459 17.7539C39.2743 17.9408 39.6366 18.2051 39.9328 18.5469C40.229 18.8841 40.4546 19.2829 40.6096 19.7432C40.7645 20.1989 40.842 20.6934 40.842 21.2266V21.3838C40.842 21.917 40.7645 22.4115 40.6096 22.8672C40.4546 23.3229 40.229 23.7217 39.9328 24.0635C39.6366 24.4007 39.2766 24.665 38.8527 24.8564C38.4289 25.0433 37.9481 25.1367 37.4104 25.1367C36.868 25.1367 36.3827 25.0433 35.9543 24.8564C35.5305 24.665 35.1704 24.4007 34.8742 24.0635C34.578 23.7217 34.3524 23.3229 34.1975 22.8672C34.0425 22.4115 33.965 21.917 33.965 21.3838ZM35.6125 21.2266V21.3838C35.6125 21.7165 35.6467 22.0309 35.715 22.3271C35.7834 22.6234 35.8905 22.8831 36.0363 23.1064C36.1822 23.3298 36.369 23.5052 36.5969 23.6328C36.8247 23.7604 37.0959 23.8242 37.4104 23.8242C37.7157 23.8242 37.98 23.7604 38.2033 23.6328C38.4312 23.5052 38.618 23.3298 38.7639 23.1064C38.9097 22.8831 39.0168 22.6234 39.0852 22.3271C39.1581 22.0309 39.1945 21.7165 39.1945 21.3838V21.2266C39.1945 20.8984 39.1581 20.5885 39.0852 20.2969C39.0168 20.0007 38.9074 19.7386 38.757 19.5107C38.6112 19.2829 38.4244 19.1051 38.1965 18.9775C37.9732 18.8454 37.7066 18.7793 37.3967 18.7793C37.0868 18.7793 36.8179 18.8454 36.59 18.9775C36.3667 19.1051 36.1822 19.2829 36.0363 19.5107C35.8905 19.7386 35.7834 20.0007 35.715 20.2969C35.6467 20.5885 35.6125 20.8984 35.6125 21.2266ZM45.3854 21.4658H43.9635V20.6318H45.1119C45.4036 20.6318 45.636 20.5931 45.8092 20.5156C45.9869 20.4382 46.1122 20.3311 46.1852 20.1943C46.2626 20.0531 46.3014 19.889 46.3014 19.7021C46.3014 19.5381 46.2626 19.3831 46.1852 19.2373C46.1122 19.0869 45.9869 18.9639 45.8092 18.8682C45.6314 18.7725 45.3899 18.7246 45.0846 18.7246C44.8339 18.7246 44.6083 18.7656 44.4078 18.8477C44.2119 18.9297 44.0569 19.0436 43.943 19.1895C43.829 19.3353 43.7721 19.5039 43.7721 19.6953H42.1246C42.1246 19.235 42.2545 18.8385 42.5143 18.5059C42.7786 18.1732 43.1318 17.918 43.5738 17.7402C44.0159 17.5625 44.5012 17.4736 45.0299 17.4736C45.4811 17.4736 45.8867 17.5215 46.2467 17.6172C46.6067 17.7083 46.912 17.8451 47.1627 18.0273C47.4179 18.2051 47.6116 18.4284 47.7438 18.6973C47.8805 18.9616 47.9488 19.2692 47.9488 19.6201C47.9488 19.8708 47.8896 20.1077 47.7711 20.3311C47.6526 20.5544 47.4817 20.7526 47.2584 20.9258C47.0351 21.0944 46.7639 21.2266 46.4449 21.3223C46.1305 21.418 45.7773 21.4658 45.3854 21.4658ZM43.9635 20.9873H45.3854C45.8229 20.9873 46.2102 21.0306 46.5475 21.1172C46.8847 21.1992 47.1673 21.3223 47.3951 21.4863C47.623 21.6504 47.7939 21.8532 47.9078 22.0947C48.0263 22.3317 48.0855 22.6051 48.0855 22.915C48.0855 23.2614 48.0104 23.5736 47.86 23.8516C47.7141 24.125 47.5045 24.3574 47.2311 24.5488C46.9622 24.7402 46.6409 24.8861 46.2672 24.9863C45.8935 25.0866 45.4811 25.1367 45.0299 25.1367C44.5377 25.1367 44.0592 25.0547 43.5943 24.8906C43.1341 24.7266 42.7535 24.4736 42.4527 24.1318C42.1565 23.7855 42.0084 23.3457 42.0084 22.8125H43.6559C43.6559 22.9993 43.7128 23.1748 43.8268 23.3389C43.9407 23.5029 44.1048 23.6374 44.3189 23.7422C44.5331 23.8424 44.7906 23.8926 45.0914 23.8926C45.4013 23.8926 45.6542 23.8447 45.8502 23.749C46.0462 23.6488 46.192 23.5189 46.2877 23.3594C46.3834 23.1953 46.4313 23.0221 46.4313 22.8398C46.4313 22.5938 46.3834 22.3955 46.2877 22.2451C46.192 22.0947 46.0462 21.9854 45.8502 21.917C45.6542 21.8441 45.4081 21.8076 45.1119 21.8076H43.9635V20.9873ZM50.9268 17.6035H52.5742L52.4922 20.208C52.4694 20.9645 52.3828 21.6139 52.2324 22.1562C52.082 22.6986 51.8861 23.1566 51.6445 23.5303C51.403 23.8994 51.1296 24.2025 50.8242 24.4395C50.5234 24.6764 50.2067 24.8633 49.874 25H49.3887V23.7012L49.6211 23.6875C49.8171 23.4779 49.9857 23.2682 50.127 23.0586C50.2728 22.8444 50.3958 22.6097 50.4961 22.3545C50.5964 22.0947 50.6738 21.7917 50.7285 21.4453C50.7878 21.099 50.8265 20.6865 50.8447 20.208L50.9268 17.6035ZM51.3643 17.6035H56.0537V25H54.4131V18.998H51.3643V17.6035ZM49.0127 23.6875H57.0654V27.2012H55.418V25H50.6807V27.2012H49.0059L49.0127 23.6875ZM62.5111 23.5166V19.9893C62.5111 19.7249 62.4633 19.4971 62.3676 19.3057C62.2719 19.1143 62.126 18.9661 61.9301 18.8613C61.7387 18.7565 61.4971 18.7041 61.2055 18.7041C60.9366 18.7041 60.7042 18.7497 60.5082 18.8408C60.3122 18.932 60.1596 19.055 60.0502 19.21C59.9408 19.3649 59.8861 19.5404 59.8861 19.7363H58.2455C58.2455 19.4447 58.3161 19.1621 58.4574 18.8887C58.5987 18.6152 58.8038 18.3714 59.0727 18.1572C59.3415 17.943 59.6628 17.7744 60.0365 17.6514C60.4102 17.5283 60.8295 17.4668 61.2943 17.4668C61.8503 17.4668 62.3425 17.5602 62.7709 17.7471C63.2038 17.9339 63.5434 18.2165 63.7895 18.5947C64.0401 18.9684 64.1654 19.4378 64.1654 20.0029V23.291C64.1654 23.6283 64.1882 23.9313 64.2338 24.2002C64.2839 24.4645 64.3546 24.6947 64.4457 24.8906V25H62.7572C62.6798 24.8223 62.6182 24.5967 62.5727 24.3232C62.5316 24.0452 62.5111 23.7764 62.5111 23.5166ZM62.7504 20.502L62.7641 21.5205H61.5814C61.2761 21.5205 61.0072 21.5501 60.7748 21.6094C60.5424 21.6641 60.3487 21.7461 60.1938 21.8555C60.0388 21.9648 59.9226 22.097 59.8451 22.252C59.7676 22.4069 59.7289 22.5824 59.7289 22.7783C59.7289 22.9743 59.7745 23.1543 59.8656 23.3184C59.9568 23.4779 60.0889 23.6032 60.2621 23.6943C60.4398 23.7855 60.654 23.8311 60.9047 23.8311C61.2419 23.8311 61.5359 23.7627 61.7865 23.626C62.0417 23.4847 62.2423 23.3138 62.3881 23.1133C62.5339 22.9082 62.6114 22.7145 62.6205 22.5322L63.1537 23.2637C63.099 23.4505 63.0056 23.651 62.8734 23.8652C62.7413 24.0794 62.5681 24.2845 62.3539 24.4805C62.1443 24.6719 61.8913 24.8291 61.5951 24.9521C61.3035 25.0752 60.9662 25.1367 60.5834 25.1367C60.1003 25.1367 59.6697 25.041 59.2914 24.8496C58.9132 24.6536 58.6169 24.3916 58.4027 24.0635C58.1885 23.7308 58.0814 23.3548 58.0814 22.9355C58.0814 22.5436 58.1544 22.1973 58.3002 21.8965C58.4506 21.5911 58.6693 21.3359 58.9564 21.1309C59.2481 20.9258 59.6036 20.7708 60.0229 20.666C60.4421 20.5566 60.9206 20.502 61.4584 20.502H62.7504ZM69.3104 17.6035V25H67.6561V17.6035H69.3104ZM71.7371 17.6035V18.9023H65.2703V17.6035H71.7371ZM74.1613 19.9551H76.342C76.98 19.9551 77.5223 20.0622 77.9689 20.2764C78.4156 20.4906 78.7551 20.7891 78.9875 21.1719C79.2245 21.5501 79.343 21.9831 79.343 22.4707C79.343 22.8307 79.2769 23.1657 79.1447 23.4756C79.0126 23.7809 78.8166 24.0475 78.5568 24.2754C78.3016 24.5033 77.9872 24.681 77.6135 24.8086C77.2443 24.9362 76.8205 25 76.342 25H73.0676V17.6035H74.7219V23.6943H76.342C76.6701 23.6943 76.9322 23.6374 77.1281 23.5234C77.3241 23.4095 77.4654 23.2614 77.552 23.0791C77.6431 22.8968 77.6887 22.7031 77.6887 22.498C77.6887 22.2884 77.6431 22.0902 77.552 21.9033C77.4654 21.7165 77.3241 21.5638 77.1281 21.4453C76.9322 21.3268 76.6701 21.2676 76.342 21.2676H74.1613V19.9551Z" fill="white"/>
</g>
<defs>
<clipPath id="clip0_146_337">
<rect width="104" height="40" rx="20" fill="white"/>
</clipPath>
</defs>
</svg>
