<svg width="135" height="40" viewBox="0 0 135 40" fill="none" xmlns="http://www.w3.org/2000/svg">
<g clip-path="url(#clip0_102_345)">
<rect width="135" height="40" rx="20" fill="#6750A4"/>
<rect width="135" height="40" fill="white" fill-opacity="0.12"/>
<path d="M31.2549 21.7598H32.9639C32.9092 22.4115 32.7269 22.9925 32.417 23.5029C32.1071 24.0088 31.6719 24.4076 31.1113 24.6992C30.5508 24.9909 29.8695 25.1367 29.0674 25.1367C28.4521 25.1367 27.8984 25.0273 27.4062 24.8086C26.9141 24.5853 26.4925 24.2708 26.1416 23.8652C25.7907 23.4551 25.5218 22.9606 25.335 22.3818C25.1527 21.8031 25.0615 21.1559 25.0615 20.4404V19.6133C25.0615 18.8978 25.1549 18.2507 25.3418 17.6719C25.5332 17.0931 25.8066 16.5986 26.1621 16.1885C26.5176 15.7738 26.9437 15.457 27.4404 15.2383C27.9417 15.0195 28.5046 14.9102 29.1289 14.9102C29.9219 14.9102 30.5918 15.056 31.1387 15.3477C31.6855 15.6393 32.1094 16.0426 32.4102 16.5576C32.7155 17.0726 32.9023 17.6628 32.9707 18.3281H31.2617C31.2161 17.8997 31.1159 17.5329 30.9609 17.2275C30.8105 16.9222 30.5872 16.6898 30.291 16.5303C29.9948 16.3662 29.6074 16.2842 29.1289 16.2842C28.737 16.2842 28.3952 16.3571 28.1035 16.5029C27.8118 16.6488 27.568 16.863 27.3721 17.1455C27.1761 17.4281 27.028 17.7767 26.9277 18.1914C26.832 18.6016 26.7842 19.071 26.7842 19.5996V20.4404C26.7842 20.9417 26.8275 21.3975 26.9141 21.8076C27.0052 22.2132 27.1419 22.5618 27.3242 22.8535C27.5111 23.1452 27.748 23.3708 28.0352 23.5303C28.3223 23.6898 28.6663 23.7695 29.0674 23.7695C29.555 23.7695 29.9492 23.6921 30.25 23.5371C30.5553 23.3822 30.7855 23.1566 30.9404 22.8604C31.0999 22.5596 31.2048 22.1927 31.2549 21.7598ZM34.1439 21.3838V21.2266C34.1439 20.6934 34.2214 20.1989 34.3764 19.7432C34.5313 19.2829 34.7546 18.8841 35.0463 18.5469C35.3425 18.2051 35.7025 17.9408 36.1264 17.7539C36.5548 17.5625 37.0378 17.4668 37.5756 17.4668C38.1179 17.4668 38.601 17.5625 39.0248 17.7539C39.4532 17.9408 39.8155 18.2051 40.1117 18.5469C40.4079 18.8841 40.6335 19.2829 40.7885 19.7432C40.9434 20.1989 41.0209 20.6934 41.0209 21.2266V21.3838C41.0209 21.917 40.9434 22.4115 40.7885 22.8672C40.6335 23.3229 40.4079 23.7217 40.1117 24.0635C39.8155 24.4007 39.4555 24.665 39.0316 24.8564C38.6078 25.0433 38.127 25.1367 37.5893 25.1367C37.0469 25.1367 36.5616 25.0433 36.1332 24.8564C35.7094 24.665 35.3493 24.4007 35.0531 24.0635C34.7569 23.7217 34.5313 23.3229 34.3764 22.8672C34.2214 22.4115 34.1439 21.917 34.1439 21.3838ZM35.7914 21.2266V21.3838C35.7914 21.7165 35.8256 22.0309 35.8939 22.3271C35.9623 22.6234 36.0694 22.8831 36.2152 23.1064C36.3611 23.3298 36.5479 23.5052 36.7758 23.6328C37.0036 23.7604 37.2748 23.8242 37.5893 23.8242C37.8946 23.8242 38.1589 23.7604 38.3822 23.6328C38.6101 23.5052 38.7969 23.3298 38.9428 23.1064C39.0886 22.8831 39.1957 22.6234 39.2641 22.3271C39.337 22.0309 39.3734 21.7165 39.3734 21.3838V21.2266C39.3734 20.8984 39.337 20.5885 39.2641 20.2969C39.1957 20.0007 39.0863 19.7386 38.9359 19.5107C38.7901 19.2829 38.6033 19.1051 38.3754 18.9775C38.1521 18.8454 37.8855 18.7793 37.5756 18.7793C37.2657 18.7793 36.9968 18.8454 36.7689 18.9775C36.5456 19.1051 36.3611 19.2829 36.2152 19.5107C36.0694 19.7386 35.9623 20.0007 35.8939 20.2969C35.8256 20.5885 35.7914 20.8984 35.7914 21.2266ZM45.5643 21.4658H44.1424V20.6318H45.2908C45.5825 20.6318 45.8149 20.5931 45.9881 20.5156C46.1658 20.4382 46.2911 20.3311 46.3641 20.1943C46.4415 20.0531 46.4803 19.889 46.4803 19.7021C46.4803 19.5381 46.4415 19.3831 46.3641 19.2373C46.2911 19.0869 46.1658 18.9639 45.9881 18.8682C45.8104 18.7725 45.5688 18.7246 45.2635 18.7246C45.0128 18.7246 44.7872 18.7656 44.5867 18.8477C44.3908 18.9297 44.2358 19.0436 44.1219 19.1895C44.0079 19.3353 43.951 19.5039 43.951 19.6953H42.3035C42.3035 19.235 42.4334 18.8385 42.6932 18.5059C42.9575 18.1732 43.3107 17.918 43.7527 17.7402C44.1948 17.5625 44.6801 17.4736 45.2088 17.4736C45.66 17.4736 46.0656 17.5215 46.4256 17.6172C46.7856 17.7083 47.091 17.8451 47.3416 18.0273C47.5968 18.2051 47.7905 18.4284 47.9227 18.6973C48.0594 18.9616 48.1277 19.2692 48.1277 19.6201C48.1277 19.8708 48.0685 20.1077 47.95 20.3311C47.8315 20.5544 47.6606 20.7526 47.4373 20.9258C47.214 21.0944 46.9428 21.2266 46.6238 21.3223C46.3094 21.418 45.9562 21.4658 45.5643 21.4658ZM44.1424 20.9873H45.5643C46.0018 20.9873 46.3891 21.0306 46.7264 21.1172C47.0636 21.1992 47.3462 21.3223 47.574 21.4863C47.8019 21.6504 47.9728 21.8532 48.0867 22.0947C48.2052 22.3317 48.2645 22.6051 48.2645 22.915C48.2645 23.2614 48.1893 23.5736 48.0389 23.8516C47.893 24.125 47.6834 24.3574 47.41 24.5488C47.1411 24.7402 46.8198 24.8861 46.4461 24.9863C46.0724 25.0866 45.66 25.1367 45.2088 25.1367C44.7166 25.1367 44.2381 25.0547 43.7732 24.8906C43.313 24.7266 42.9324 24.4736 42.6316 24.1318C42.3354 23.7855 42.1873 23.3457 42.1873 22.8125H43.8348C43.8348 22.9993 43.8917 23.1748 44.0057 23.3389C44.1196 23.5029 44.2837 23.6374 44.4979 23.7422C44.712 23.8424 44.9695 23.8926 45.2703 23.8926C45.5802 23.8926 45.8331 23.8447 46.0291 23.749C46.2251 23.6488 46.3709 23.5189 46.4666 23.3594C46.5623 23.1953 46.6102 23.0221 46.6102 22.8398C46.6102 22.5938 46.5623 22.3955 46.4666 22.2451C46.3709 22.0947 46.2251 21.9854 46.0291 21.917C45.8331 21.8441 45.587 21.8076 45.2908 21.8076H44.1424V20.9873ZM51.1057 17.6035H52.7531L52.6711 20.208C52.6483 20.9645 52.5617 21.6139 52.4113 22.1562C52.2609 22.6986 52.065 23.1566 51.8234 23.5303C51.5819 23.8994 51.3085 24.2025 51.0031 24.4395C50.7023 24.6764 50.3856 24.8633 50.0529 25H49.5676V23.7012L49.8 23.6875C49.996 23.4779 50.1646 23.2682 50.3059 23.0586C50.4517 22.8444 50.5747 22.6097 50.675 22.3545C50.7753 22.0947 50.8527 21.7917 50.9074 21.4453C50.9667 21.099 51.0054 20.6865 51.0236 20.208L51.1057 17.6035ZM51.5432 17.6035H56.2326V25H54.592V18.998H51.5432V17.6035ZM49.1916 23.6875H57.2443V27.2012H55.5969V25H50.8596V27.2012H49.1848L49.1916 23.6875ZM62.69 23.5166V19.9893C62.69 19.7249 62.6422 19.4971 62.5465 19.3057C62.4508 19.1143 62.3049 18.9661 62.109 18.8613C61.9176 18.7565 61.676 18.7041 61.3844 18.7041C61.1155 18.7041 60.8831 18.7497 60.6871 18.8408C60.4911 18.932 60.3385 19.055 60.2291 19.21C60.1197 19.3649 60.065 19.5404 60.065 19.7363H58.4244C58.4244 19.4447 58.4951 19.1621 58.6363 18.8887C58.7776 18.6152 58.9827 18.3714 59.2516 18.1572C59.5204 17.943 59.8417 17.7744 60.2154 17.6514C60.5891 17.5283 61.0084 17.4668 61.4732 17.4668C62.0292 17.4668 62.5214 17.5602 62.9498 17.7471C63.3827 17.9339 63.7223 18.2165 63.9684 18.5947C64.219 18.9684 64.3443 19.4378 64.3443 20.0029V23.291C64.3443 23.6283 64.3671 23.9313 64.4127 24.2002C64.4628 24.4645 64.5335 24.6947 64.6246 24.8906V25H62.9361C62.8587 24.8223 62.7971 24.5967 62.7516 24.3232C62.7105 24.0452 62.69 23.7764 62.69 23.5166ZM62.9293 20.502L62.943 21.5205H61.7604C61.455 21.5205 61.1861 21.5501 60.9537 21.6094C60.7213 21.6641 60.5276 21.7461 60.3727 21.8555C60.2177 21.9648 60.1015 22.097 60.024 22.252C59.9466 22.4069 59.9078 22.5824 59.9078 22.7783C59.9078 22.9743 59.9534 23.1543 60.0445 23.3184C60.1357 23.4779 60.2678 23.6032 60.441 23.6943C60.6188 23.7855 60.8329 23.8311 61.0836 23.8311C61.4208 23.8311 61.7148 23.7627 61.9654 23.626C62.2206 23.4847 62.4212 23.3138 62.567 23.1133C62.7128 22.9082 62.7903 22.7145 62.7994 22.5322L63.3326 23.2637C63.2779 23.4505 63.1845 23.651 63.0523 23.8652C62.9202 24.0794 62.747 24.2845 62.5328 24.4805C62.3232 24.6719 62.0702 24.8291 61.774 24.9521C61.4824 25.0752 61.1451 25.1367 60.7623 25.1367C60.2792 25.1367 59.8486 25.041 59.4703 24.8496C59.0921 24.6536 58.7958 24.3916 58.5816 24.0635C58.3674 23.7308 58.2604 23.3548 58.2604 22.9355C58.2604 22.5436 58.3333 22.1973 58.4791 21.8965C58.6295 21.5911 58.8482 21.3359 59.1354 21.1309C59.427 20.9258 59.7825 20.7708 60.2018 20.666C60.621 20.5566 61.0995 20.502 61.6373 20.502H62.9293ZM69.4893 17.6035V25H67.835V17.6035H69.4893ZM71.916 17.6035V18.9023H65.4492V17.6035H71.916ZM74.3402 19.9551H76.5209C77.1589 19.9551 77.7012 20.0622 78.1479 20.2764C78.5945 20.4906 78.934 20.7891 79.1664 21.1719C79.4034 21.5501 79.5219 21.9831 79.5219 22.4707C79.5219 22.8307 79.4558 23.1657 79.3236 23.4756C79.1915 23.7809 78.9955 24.0475 78.7357 24.2754C78.4805 24.5033 78.1661 24.681 77.7924 24.8086C77.4232 24.9362 76.9994 25 76.5209 25H73.2465V17.6035H74.9008V23.6943H76.5209C76.849 23.6943 77.1111 23.6374 77.307 23.5234C77.503 23.4095 77.6443 23.2614 77.7309 23.0791C77.822 22.8968 77.8676 22.7031 77.8676 22.498C77.8676 22.2884 77.822 22.0902 77.7309 21.9033C77.6443 21.7165 77.503 21.5638 77.307 21.4453C77.1111 21.3268 76.849 21.2676 76.5209 21.2676H74.3402V19.9551ZM91.2268 19.3467V20.7139H87.0637V19.3467H91.2268ZM84.3635 21.7598H86.0725C86.1226 22.1973 86.2251 22.5664 86.3801 22.8672C86.5396 23.168 86.7697 23.3958 87.0705 23.5508C87.3758 23.7057 87.7746 23.7832 88.2668 23.7832C88.6633 23.7832 89.0051 23.7035 89.2922 23.5439C89.5839 23.3844 89.8231 23.1589 90.01 22.8672C90.1968 22.571 90.3358 22.2201 90.427 21.8145C90.5181 21.4043 90.5637 20.9463 90.5637 20.4404V19.6064C90.5637 19.1826 90.5318 18.7975 90.468 18.4512C90.4042 18.1003 90.3062 17.7904 90.174 17.5215C90.0464 17.2526 89.8869 17.027 89.6955 16.8447C89.5087 16.6579 89.2899 16.5166 89.0393 16.4209C88.7886 16.3252 88.5083 16.2773 88.1984 16.2773C87.7199 16.2773 87.3326 16.3594 87.0363 16.5234C86.7401 16.6829 86.5168 16.9176 86.3664 17.2275C86.216 17.5329 86.1158 17.902 86.0656 18.335H84.3566C84.425 17.665 84.6118 17.0726 84.9172 16.5576C85.2225 16.0426 85.6464 15.6393 86.1887 15.3477C86.7355 15.056 87.4055 14.9102 88.1984 14.9102C88.8228 14.9102 89.3833 15.0218 89.8801 15.2451C90.3814 15.4639 90.8098 15.7806 91.1652 16.1953C91.5207 16.6055 91.7919 17.0999 91.9787 17.6787C92.1701 18.2575 92.2658 18.9046 92.2658 19.6201V20.4404C92.2658 21.1559 92.1724 21.8031 91.9855 22.3818C91.8033 22.9606 91.5367 23.4551 91.1857 23.8652C90.8348 24.2754 90.4133 24.5898 89.9211 24.8086C89.4289 25.0273 88.8775 25.1367 88.2668 25.1367C87.4602 25.1367 86.7766 24.9932 86.216 24.7061C85.66 24.4144 85.2271 24.0133 84.9172 23.5029C84.6073 22.9925 84.4227 22.4115 84.3635 21.7598ZM98.6891 17.6035V18.916H95.0797V17.6035H98.6891ZM99.9811 17.6035V25H98.3336V17.6035H99.9811ZM94.6764 17.6035H96.3033L96.1051 21.2607C96.0777 21.8031 96.023 22.2816 95.941 22.6963C95.8635 23.1064 95.7587 23.4596 95.6266 23.7559C95.4944 24.0475 95.3326 24.2845 95.1412 24.4668C94.9498 24.6491 94.7265 24.7835 94.4713 24.8701C94.2161 24.9567 93.929 25 93.61 25H93.0973L93.0904 23.6465L93.3502 23.626C93.5188 23.6123 93.6646 23.569 93.7877 23.4961C93.9107 23.4186 94.0156 23.3092 94.1021 23.168C94.1933 23.0267 94.2662 22.8444 94.3209 22.6211C94.3801 22.3978 94.4257 22.1335 94.4576 21.8281C94.4941 21.5228 94.5214 21.1673 94.5396 20.7617L94.6764 17.6035ZM109.932 19.75V20.2969C109.932 21.0488 109.834 21.7233 109.638 22.3203C109.442 22.9173 109.161 23.4255 108.797 23.8447C108.437 24.264 108.004 24.5853 107.498 24.8086C106.992 25.0273 106.432 25.1367 105.816 25.1367C105.206 25.1367 104.647 25.0273 104.142 24.8086C103.64 24.5853 103.205 24.264 102.836 23.8447C102.467 23.4255 102.18 22.9173 101.975 22.3203C101.774 21.7233 101.674 21.0488 101.674 20.2969V19.75C101.674 18.998 101.774 18.3258 101.975 17.7334C102.175 17.1364 102.458 16.6283 102.822 16.209C103.191 15.7852 103.627 15.4639 104.128 15.2451C104.634 15.0218 105.192 14.9102 105.803 14.9102C106.418 14.9102 106.979 15.0218 107.484 15.2451C107.99 15.4639 108.425 15.7852 108.79 16.209C109.155 16.6283 109.435 17.1364 109.631 17.7334C109.831 18.3258 109.932 18.998 109.932 19.75ZM108.216 20.2969V19.7363C108.216 19.1803 108.161 18.6904 108.052 18.2666C107.947 17.8382 107.79 17.4805 107.58 17.1934C107.375 16.9017 107.122 16.6829 106.821 16.5371C106.521 16.3867 106.181 16.3115 105.803 16.3115C105.424 16.3115 105.087 16.3867 104.791 16.5371C104.495 16.6829 104.242 16.9017 104.032 17.1934C103.827 17.4805 103.67 17.8382 103.561 18.2666C103.451 18.6904 103.396 19.1803 103.396 19.7363V20.2969C103.396 20.8529 103.451 21.3451 103.561 21.7734C103.67 22.2018 103.829 22.5641 104.039 22.8604C104.253 23.152 104.508 23.373 104.805 23.5234C105.101 23.6693 105.438 23.7422 105.816 23.7422C106.199 23.7422 106.539 23.6693 106.835 23.5234C107.131 23.373 107.382 23.152 107.587 22.8604C107.792 22.5641 107.947 22.2018 108.052 21.7734C108.161 21.3451 108.216 20.8529 108.216 20.2969Z" fill="white"/>
</g>
<defs>
<clipPath id="clip0_102_345">
<rect width="135" height="40" rx="20" fill="white"/>
</clipPath>
</defs>
</svg>
