<svg width="135" height="40" viewBox="0 0 135 40" fill="none" xmlns="http://www.w3.org/2000/svg">
<g clip-path="url(#clip0_153_352)">
<rect width="135" height="40" rx="20" fill="#6750A4"/>
<rect width="135" height="40" fill="white" fill-opacity="0.12"/>
<path d="M28.418 21.5342L30.9473 15.0469H32.8408L29.3818 23.1953C29.2725 23.446 29.1471 23.6898 29.0059 23.9268C28.8691 24.1592 28.7028 24.3665 28.5068 24.5488C28.3109 24.7311 28.0739 24.877 27.7959 24.9863C27.5179 25.0911 27.1807 25.1436 26.7842 25.1436C26.6794 25.1436 26.5518 25.139 26.4014 25.1299C26.2555 25.1208 26.1484 25.1117 26.0801 25.1025L26.0938 23.7559C26.1484 23.765 26.2396 23.7718 26.3672 23.7764C26.4993 23.7809 26.5951 23.7832 26.6543 23.7832C26.9186 23.7832 27.1283 23.7399 27.2832 23.6533C27.4382 23.5622 27.5612 23.4414 27.6523 23.291C27.748 23.1361 27.8324 22.9674 27.9053 22.7852L28.418 21.5342ZM26.5176 15.0469L29.0195 20.5566L29.5117 22.3477L28.1787 22.3955L24.6445 15.0469H26.5176ZM34.848 17.6035H36.4955L36.4135 20.208C36.3907 20.9645 36.3041 21.6139 36.1537 22.1562C36.0033 22.6986 35.8074 23.1566 35.5658 23.5303C35.3243 23.8994 35.0508 24.2025 34.7455 24.4395C34.4447 24.6764 34.128 24.8633 33.7953 25H33.31V23.7012L33.5424 23.6875C33.7383 23.4779 33.907 23.2682 34.0482 23.0586C34.1941 22.8444 34.3171 22.6097 34.4174 22.3545C34.5176 22.0947 34.5951 21.7917 34.6498 21.4453C34.709 21.099 34.7478 20.6865 34.766 20.208L34.848 17.6035ZM35.2855 17.6035H39.975V25H38.3344V18.998H35.2855V17.6035ZM32.934 23.6875H40.9867V27.2012H39.3393V25H34.602V27.2012H32.9271L32.934 23.6875ZM46.4324 23.5166V19.9893C46.4324 19.7249 46.3846 19.4971 46.2889 19.3057C46.1932 19.1143 46.0473 18.9661 45.8514 18.8613C45.66 18.7565 45.4184 18.7041 45.1268 18.7041C44.8579 18.7041 44.6255 18.7497 44.4295 18.8408C44.2335 18.932 44.0809 19.055 43.9715 19.21C43.8621 19.3649 43.8074 19.5404 43.8074 19.7363H42.1668C42.1668 19.4447 42.2374 19.1621 42.3787 18.8887C42.52 18.6152 42.7251 18.3714 42.9939 18.1572C43.2628 17.943 43.5841 17.7744 43.9578 17.6514C44.3315 17.5283 44.7508 17.4668 45.2156 17.4668C45.7716 17.4668 46.2638 17.5602 46.6922 17.7471C47.1251 17.9339 47.4646 18.2165 47.7107 18.5947C47.9614 18.9684 48.0867 19.4378 48.0867 20.0029V23.291C48.0867 23.6283 48.1095 23.9313 48.1551 24.2002C48.2052 24.4645 48.2758 24.6947 48.367 24.8906V25H46.6785C46.601 24.8223 46.5395 24.5967 46.4939 24.3232C46.4529 24.0452 46.4324 23.7764 46.4324 23.5166ZM46.6717 20.502L46.6854 21.5205H45.5027C45.1974 21.5205 44.9285 21.5501 44.6961 21.6094C44.4637 21.6641 44.27 21.7461 44.115 21.8555C43.9601 21.9648 43.8439 22.097 43.7664 22.252C43.6889 22.4069 43.6502 22.5824 43.6502 22.7783C43.6502 22.9743 43.6958 23.1543 43.7869 23.3184C43.8781 23.4779 44.0102 23.6032 44.1834 23.6943C44.3611 23.7855 44.5753 23.8311 44.826 23.8311C45.1632 23.8311 45.4572 23.7627 45.7078 23.626C45.963 23.4847 46.1635 23.3138 46.3094 23.1133C46.4552 22.9082 46.5327 22.7145 46.5418 22.5322L47.075 23.2637C47.0203 23.4505 46.9269 23.651 46.7947 23.8652C46.6626 24.0794 46.4894 24.2845 46.2752 24.4805C46.0656 24.6719 45.8126 24.8291 45.5164 24.9521C45.2247 25.0752 44.8875 25.1367 44.5047 25.1367C44.0216 25.1367 43.591 25.041 43.2127 24.8496C42.8344 24.6536 42.5382 24.3916 42.324 24.0635C42.1098 23.7308 42.0027 23.3548 42.0027 22.9355C42.0027 22.5436 42.0757 22.1973 42.2215 21.8965C42.3719 21.5911 42.5906 21.3359 42.8777 21.1309C43.1694 20.9258 43.5249 20.7708 43.9441 20.666C44.3634 20.5566 44.8419 20.502 45.3797 20.502H46.6717ZM54.8791 17.6035V18.916H51.2697V17.6035H54.8791ZM56.1711 17.6035V25H54.5236V17.6035H56.1711ZM50.8664 17.6035H52.4934L52.2951 21.2607C52.2678 21.8031 52.2131 22.2816 52.1311 22.6963C52.0536 23.1064 51.9488 23.4596 51.8166 23.7559C51.6844 24.0475 51.5227 24.2845 51.3312 24.4668C51.1398 24.6491 50.9165 24.7835 50.6613 24.8701C50.4061 24.9567 50.119 25 49.8 25H49.2873L49.2805 23.6465L49.5402 23.626C49.7089 23.6123 49.8547 23.569 49.9777 23.4961C50.1008 23.4186 50.2056 23.3092 50.2922 23.168C50.3833 23.0267 50.4562 22.8444 50.5109 22.6211C50.5702 22.3978 50.6158 22.1335 50.6477 21.8281C50.6841 21.5228 50.7115 21.1673 50.7297 20.7617L50.8664 17.6035ZM59.7232 22.5938L62.6285 17.6035H64.276V25H62.6285V20.0029L59.7232 25H58.0758V17.6035H59.7232V22.5938ZM69.5508 17.6035V25H67.8965V17.6035H69.5508ZM71.9775 17.6035V18.9023H65.5107V17.6035H71.9775ZM74.4018 19.9551H76.5824C77.2204 19.9551 77.7628 20.0622 78.2094 20.2764C78.656 20.4906 78.9955 20.7891 79.2279 21.1719C79.4649 21.5501 79.5834 21.9831 79.5834 22.4707C79.5834 22.8307 79.5173 23.1657 79.3852 23.4756C79.253 23.7809 79.057 24.0475 78.7973 24.2754C78.5421 24.5033 78.2276 24.681 77.8539 24.8086C77.4848 24.9362 77.0609 25 76.5824 25H73.308V17.6035H74.9623V23.6943H76.5824C76.9105 23.6943 77.1726 23.6374 77.3686 23.5234C77.5645 23.4095 77.7058 23.2614 77.7924 23.0791C77.8835 22.8968 77.9291 22.7031 77.9291 22.498C77.9291 22.2884 77.8835 22.0902 77.7924 21.9033C77.7058 21.7165 77.5645 21.5638 77.3686 21.4453C77.1726 21.3268 76.9105 21.2676 76.5824 21.2676H74.4018V19.9551ZM91.2883 19.3467V20.7139H87.1252V19.3467H91.2883ZM84.425 21.7598H86.134C86.1841 22.1973 86.2867 22.5664 86.4416 22.8672C86.6011 23.168 86.8312 23.3958 87.132 23.5508C87.4374 23.7057 87.8361 23.7832 88.3283 23.7832C88.7248 23.7832 89.0666 23.7035 89.3537 23.5439C89.6454 23.3844 89.8846 23.1589 90.0715 22.8672C90.2583 22.571 90.3973 22.2201 90.4885 21.8145C90.5796 21.4043 90.6252 20.9463 90.6252 20.4404V19.6064C90.6252 19.1826 90.5933 18.7975 90.5295 18.4512C90.4657 18.1003 90.3677 17.7904 90.2355 17.5215C90.1079 17.2526 89.9484 17.027 89.757 16.8447C89.5702 16.6579 89.3514 16.5166 89.1008 16.4209C88.8501 16.3252 88.5699 16.2773 88.26 16.2773C87.7814 16.2773 87.3941 16.3594 87.0979 16.5234C86.8016 16.6829 86.5783 16.9176 86.4279 17.2275C86.2775 17.5329 86.1773 17.902 86.1271 18.335H84.4182C84.4865 17.665 84.6734 17.0726 84.9787 16.5576C85.284 16.0426 85.7079 15.6393 86.2502 15.3477C86.7971 15.056 87.467 14.9102 88.26 14.9102C88.8843 14.9102 89.4449 15.0218 89.9416 15.2451C90.4429 15.4639 90.8713 15.7806 91.2268 16.1953C91.5822 16.6055 91.8534 17.0999 92.0402 17.6787C92.2316 18.2575 92.3273 18.9046 92.3273 19.6201V20.4404C92.3273 21.1559 92.2339 21.8031 92.0471 22.3818C91.8648 22.9606 91.5982 23.4551 91.2473 23.8652C90.8964 24.2754 90.4748 24.5898 89.9826 24.8086C89.4904 25.0273 88.939 25.1367 88.3283 25.1367C87.5217 25.1367 86.8381 24.9932 86.2775 24.7061C85.7215 24.4144 85.2886 24.0133 84.9787 23.5029C84.6688 22.9925 84.4842 22.4115 84.425 21.7598ZM98.7506 17.6035V18.916H95.1412V17.6035H98.7506ZM100.043 17.6035V25H98.3951V17.6035H100.043ZM94.7379 17.6035H96.3648L96.1666 21.2607C96.1393 21.8031 96.0846 22.2816 96.0025 22.6963C95.9251 23.1064 95.8202 23.4596 95.6881 23.7559C95.5559 24.0475 95.3941 24.2845 95.2027 24.4668C95.0113 24.6491 94.788 24.7835 94.5328 24.8701C94.2776 24.9567 93.9905 25 93.6715 25H93.1588L93.152 23.6465L93.4117 23.626C93.5803 23.6123 93.7262 23.569 93.8492 23.4961C93.9723 23.4186 94.0771 23.3092 94.1637 23.168C94.2548 23.0267 94.3277 22.8444 94.3824 22.6211C94.4417 22.3978 94.4872 22.1335 94.5191 21.8281C94.5556 21.5228 94.5829 21.1673 94.6012 20.7617L94.7379 17.6035ZM109.993 19.75V20.2969C109.993 21.0488 109.895 21.7233 109.699 22.3203C109.503 22.9173 109.223 23.4255 108.858 23.8447C108.498 24.264 108.065 24.5853 107.56 24.8086C107.054 25.0273 106.493 25.1367 105.878 25.1367C105.267 25.1367 104.709 25.0273 104.203 24.8086C103.702 24.5853 103.267 24.264 102.897 23.8447C102.528 23.4255 102.241 22.9173 102.036 22.3203C101.836 21.7233 101.735 21.0488 101.735 20.2969V19.75C101.735 18.998 101.836 18.3258 102.036 17.7334C102.237 17.1364 102.519 16.6283 102.884 16.209C103.253 15.7852 103.688 15.4639 104.189 15.2451C104.695 15.0218 105.254 14.9102 105.864 14.9102C106.479 14.9102 107.04 15.0218 107.546 15.2451C108.052 15.4639 108.487 15.7852 108.852 16.209C109.216 16.6283 109.496 17.1364 109.692 17.7334C109.893 18.3258 109.993 18.998 109.993 19.75ZM108.277 20.2969V19.7363C108.277 19.1803 108.223 18.6904 108.113 18.2666C108.008 17.8382 107.851 17.4805 107.642 17.1934C107.437 16.9017 107.184 16.6829 106.883 16.5371C106.582 16.3867 106.243 16.3115 105.864 16.3115C105.486 16.3115 105.149 16.3867 104.853 16.5371C104.556 16.6829 104.303 16.9017 104.094 17.1934C103.889 17.4805 103.731 17.8382 103.622 18.2666C103.513 18.6904 103.458 19.1803 103.458 19.7363V20.2969C103.458 20.8529 103.513 21.3451 103.622 21.7734C103.731 22.2018 103.891 22.5641 104.101 22.8604C104.315 23.152 104.57 23.373 104.866 23.5234C105.162 23.6693 105.5 23.7422 105.878 23.7422C106.261 23.7422 106.6 23.6693 106.896 23.5234C107.193 23.373 107.443 23.152 107.648 22.8604C107.854 22.5641 108.008 22.2018 108.113 21.7734C108.223 21.3451 108.277 20.8529 108.277 20.2969Z" fill="white"/>
</g>
<defs>
<clipPath id="clip0_153_352">
<rect width="135" height="40" rx="20" fill="white"/>
</clipPath>
</defs>
</svg>
