<svg width="51" height="12" viewBox="0 0 51 12" fill="none" xmlns="http://www.w3.org/2000/svg">
<path d="M6.62891 7.75977H8.33789C8.2832 8.41146 8.10091 8.99251 7.79102 9.50293C7.48112 10.0088 7.0459 10.4076 6.48535 10.6992C5.9248 10.9909 5.24349 11.1367 4.44141 11.1367C3.82617 11.1367 3.27246 11.0273 2.78027 10.8086C2.28809 10.5853 1.86654 10.2708 1.51562 9.86523C1.16471 9.45508 0.895833 8.96061 0.708984 8.38184C0.526693 7.80306 0.435547 7.15592 0.435547 6.44043V5.61328C0.435547 4.89779 0.528971 4.25065 0.71582 3.67188C0.907227 3.0931 1.18066 2.59863 1.53613 2.18848C1.8916 1.77376 2.31771 1.45703 2.81445 1.23828C3.31576 1.01953 3.87858 0.910156 4.50293 0.910156C5.2959 0.910156 5.96582 1.05599 6.5127 1.34766C7.05957 1.63932 7.4834 2.04264 7.78418 2.55762C8.08952 3.07259 8.27637 3.66276 8.34473 4.32812H6.63574C6.59017 3.89974 6.48991 3.53288 6.33496 3.22754C6.18457 2.9222 5.96126 2.68978 5.66504 2.53027C5.36882 2.36621 4.98145 2.28418 4.50293 2.28418C4.111 2.28418 3.76921 2.3571 3.47754 2.50293C3.18587 2.64876 2.94206 2.86296 2.74609 3.14551C2.55013 3.42806 2.40202 3.77669 2.30176 4.19141C2.20605 4.60156 2.1582 5.07096 2.1582 5.59961V6.44043C2.1582 6.94173 2.2015 7.39746 2.28809 7.80762C2.37923 8.21322 2.51595 8.56185 2.69824 8.85352C2.88509 9.14518 3.12207 9.37077 3.40918 9.53027C3.69629 9.68978 4.04036 9.76953 4.44141 9.76953C4.92904 9.76953 5.32324 9.69206 5.62402 9.53711C5.92936 9.38216 6.15951 9.15658 6.31445 8.86035C6.47396 8.55957 6.57878 8.19271 6.62891 7.75977ZM12.8539 9.82422C13.1228 9.82422 13.3643 9.77181 13.5785 9.66699C13.7973 9.55762 13.9727 9.40723 14.1049 9.21582C14.2416 9.02441 14.3168 8.80339 14.3305 8.55273H15.8822C15.8731 9.03125 15.7318 9.46647 15.4584 9.8584C15.185 10.2503 14.8227 10.5625 14.3715 10.7949C13.9203 11.0228 13.4213 11.1367 12.8744 11.1367C12.3093 11.1367 11.8171 11.041 11.3979 10.8496C10.9786 10.6536 10.6299 10.3848 10.352 10.043C10.074 9.70117 9.86432 9.30697 9.72305 8.86035C9.58633 8.41374 9.51797 7.93522 9.51797 7.4248V7.18555C9.51797 6.67513 9.58633 6.19661 9.72305 5.75C9.86432 5.29883 10.074 4.90234 10.352 4.56055C10.6299 4.21875 10.9786 3.95215 11.3979 3.76074C11.8171 3.56478 12.307 3.4668 12.8676 3.4668C13.46 3.4668 13.9796 3.58529 14.4262 3.82227C14.8728 4.05469 15.2237 4.38053 15.4789 4.7998C15.7387 5.21452 15.8731 5.69759 15.8822 6.24902H14.3305C14.3168 5.97559 14.2484 5.72949 14.1254 5.51074C14.0069 5.28743 13.8383 5.1097 13.6195 4.97754C13.4053 4.84538 13.1479 4.7793 12.8471 4.7793C12.5144 4.7793 12.2387 4.84766 12.0199 4.98438C11.8012 5.11654 11.6303 5.29883 11.5072 5.53125C11.3842 5.75911 11.2953 6.0166 11.2406 6.30371C11.1905 6.58626 11.1654 6.88021 11.1654 7.18555V7.4248C11.1654 7.73014 11.1905 8.02637 11.2406 8.31348C11.2908 8.60059 11.3773 8.85807 11.5004 9.08594C11.628 9.30924 11.8012 9.48926 12.0199 9.62598C12.2387 9.75814 12.5167 9.82422 12.8539 9.82422ZM18.4705 5.95508H20.6512C21.2892 5.95508 21.8315 6.06217 22.2781 6.27637C22.7247 6.49056 23.0643 6.78906 23.2967 7.17188C23.5337 7.55013 23.6521 7.98307 23.6521 8.4707C23.6521 8.83073 23.5861 9.16569 23.4539 9.47559C23.3217 9.78092 23.1258 10.0475 22.866 10.2754C22.6108 10.5033 22.2964 10.681 21.9227 10.8086C21.5535 10.9362 21.1297 11 20.6512 11H17.3768V3.60352H19.0311V9.69434H20.6512C20.9793 9.69434 21.2413 9.63737 21.4373 9.52344C21.6333 9.40951 21.7745 9.26139 21.8611 9.0791C21.9523 8.89681 21.9979 8.70312 21.9979 8.49805C21.9979 8.28841 21.9523 8.09017 21.8611 7.90332C21.7745 7.71647 21.6333 7.5638 21.4373 7.44531C21.2413 7.32682 20.9793 7.26758 20.6512 7.26758H18.4705V5.95508ZM26.5643 3.60352V11H24.9168V3.60352H26.5643ZM33.5822 3.60352V4.91602H29.9729V3.60352H33.5822ZM34.8742 3.60352V11H33.2268V3.60352H34.8742ZM29.5695 3.60352H31.1965L30.9982 7.26074C30.9709 7.80306 30.9162 8.28158 30.8342 8.69629C30.7567 9.10645 30.6519 9.45964 30.5197 9.75586C30.3876 10.0475 30.2258 10.2845 30.0344 10.4668C29.843 10.6491 29.6197 10.7835 29.3645 10.8701C29.1092 10.9567 28.8221 11 28.5031 11H27.9904L27.9836 9.64648L28.2434 9.62598C28.412 9.6123 28.5578 9.56901 28.6809 9.49609C28.8039 9.41862 28.9087 9.30924 28.9953 9.16797C29.0865 9.02669 29.1594 8.8444 29.2141 8.62109C29.2733 8.39779 29.3189 8.13346 29.3508 7.82812C29.3872 7.52279 29.4146 7.16732 29.4328 6.76172L29.5695 3.60352ZM38.5016 3.60352V11H36.8541V3.60352H38.5016ZM43.3277 3.60352L39.9986 8.05371H38.1188L37.9 6.56348H39.274L41.2701 3.60352H43.3277ZM41.4 11L39.1715 7.77344L40.4703 6.83691L43.567 11H41.4ZM48.7324 9.5166V5.98926C48.7324 5.72493 48.6846 5.49707 48.5889 5.30566C48.4932 5.11426 48.3473 4.96615 48.1514 4.86133C47.96 4.75651 47.7184 4.7041 47.4268 4.7041C47.1579 4.7041 46.9255 4.74967 46.7295 4.84082C46.5335 4.93197 46.3809 5.05501 46.2715 5.20996C46.1621 5.36491 46.1074 5.54036 46.1074 5.73633H44.4668C44.4668 5.44466 44.5374 5.16211 44.6787 4.88867C44.82 4.61523 45.0251 4.37142 45.2939 4.15723C45.5628 3.94303 45.8841 3.77441 46.2578 3.65137C46.6315 3.52832 47.0508 3.4668 47.5156 3.4668C48.0716 3.4668 48.5638 3.56022 48.9922 3.74707C49.4251 3.93392 49.7646 4.21647 50.0107 4.59473C50.2614 4.96842 50.3867 5.43783 50.3867 6.00293V9.29102C50.3867 9.62826 50.4095 9.93132 50.4551 10.2002C50.5052 10.4645 50.5758 10.6947 50.667 10.8906V11H48.9785C48.901 10.8223 48.8395 10.5967 48.7939 10.3232C48.7529 10.0452 48.7324 9.77637 48.7324 9.5166ZM48.9717 6.50195L48.9854 7.52051H47.8027C47.4974 7.52051 47.2285 7.55013 46.9961 7.60938C46.7637 7.66406 46.57 7.74609 46.415 7.85547C46.2601 7.96484 46.1439 8.09701 46.0664 8.25195C45.9889 8.4069 45.9502 8.58236 45.9502 8.77832C45.9502 8.97428 45.9958 9.1543 46.0869 9.31836C46.1781 9.47786 46.3102 9.60319 46.4834 9.69434C46.6611 9.78548 46.8753 9.83105 47.126 9.83105C47.4632 9.83105 47.7572 9.7627 48.0078 9.62598C48.263 9.4847 48.4635 9.3138 48.6094 9.11328C48.7552 8.9082 48.8327 8.71452 48.8418 8.53223L49.375 9.26367C49.3203 9.45052 49.2269 9.65104 49.0947 9.86523C48.9626 10.0794 48.7894 10.2845 48.5752 10.4805C48.3656 10.6719 48.1126 10.8291 47.8164 10.9521C47.5247 11.0752 47.1875 11.1367 46.8047 11.1367C46.3216 11.1367 45.891 11.041 45.5127 10.8496C45.1344 10.6536 44.8382 10.3916 44.624 10.0635C44.4098 9.73079 44.3027 9.35482 44.3027 8.93555C44.3027 8.54362 44.3757 8.19727 44.5215 7.89648C44.6719 7.59115 44.8906 7.33594 45.1777 7.13086C45.4694 6.92578 45.8249 6.77083 46.2441 6.66602C46.6634 6.55664 47.1419 6.50195 47.6797 6.50195H48.9717Z" fill="#2094FF"/>
<path d="M-0.261719 12.3672H51.2617V13.0508H-0.261719V12.3672Z" fill="#2094FF"/>
</svg>
