<svg width="89" height="40" viewBox="0 0 89 40" fill="none" xmlns="http://www.w3.org/2000/svg">
<g clip-path="url(#clip0_138_334)">
<rect width="89" height="40" rx="20" fill="#6750A4"/>
<rect width="89" height="40" fill="white" fill-opacity="0.12"/>
<path d="M29.1721 20.502H26.6359L26.6223 19.251H28.8371C29.2108 19.251 29.5275 19.1963 29.7873 19.0869C30.0516 18.973 30.2521 18.8112 30.3889 18.6016C30.5256 18.3874 30.5939 18.1299 30.5939 17.8291C30.5939 17.4964 30.5301 17.2253 30.4025 17.0156C30.2749 16.806 30.079 16.6533 29.8146 16.5576C29.5549 16.4619 29.2222 16.4141 28.8166 16.4141H27.1555V25H25.4396V15.0469H28.8166C29.3635 15.0469 29.8511 15.0993 30.2795 15.2041C30.7124 15.3089 31.0793 15.473 31.3801 15.6963C31.6854 15.915 31.9156 16.193 32.0705 16.5303C32.23 16.8675 32.3098 17.2686 32.3098 17.7334C32.3098 18.1436 32.2118 18.5195 32.0158 18.8613C31.8199 19.1986 31.5305 19.4743 31.1477 19.6885C30.7648 19.9027 30.2886 20.0303 29.7189 20.0713L29.1721 20.502ZM29.0969 25H26.0959L26.8684 23.6396H29.0969C29.4842 23.6396 29.8078 23.5758 30.0676 23.4482C30.3273 23.3161 30.521 23.1361 30.6486 22.9082C30.7808 22.6758 30.8469 22.4046 30.8469 22.0947C30.8469 21.7712 30.7899 21.4909 30.676 21.2539C30.562 21.0124 30.382 20.8278 30.1359 20.7002C29.8898 20.568 29.5686 20.502 29.1721 20.502H27.2443L27.258 19.251H29.7668L30.1564 19.7227C30.7033 19.7409 31.1522 19.8617 31.5031 20.085C31.8586 20.3083 32.1229 20.5977 32.2961 20.9531C32.4693 21.3086 32.5559 21.6914 32.5559 22.1016C32.5559 22.735 32.4169 23.266 32.1389 23.6943C31.8654 24.1227 31.4712 24.4486 30.9562 24.6719C30.4413 24.8906 29.8215 25 29.0969 25ZM33.9068 21.3838V21.2266C33.9068 20.6934 33.9843 20.1989 34.1393 19.7432C34.2942 19.2829 34.5175 18.8841 34.8092 18.5469C35.1054 18.2051 35.4654 17.9408 35.8893 17.7539C36.3176 17.5625 36.8007 17.4668 37.3385 17.4668C37.8808 17.4668 38.3639 17.5625 38.7877 17.7539C39.2161 17.9408 39.5784 18.2051 39.8746 18.5469C40.1708 18.8841 40.3964 19.2829 40.5514 19.7432C40.7063 20.1989 40.7838 20.6934 40.7838 21.2266V21.3838C40.7838 21.917 40.7063 22.4115 40.5514 22.8672C40.3964 23.3229 40.1708 23.7217 39.8746 24.0635C39.5784 24.4007 39.2184 24.665 38.7945 24.8564C38.3707 25.0433 37.8899 25.1367 37.3521 25.1367C36.8098 25.1367 36.3245 25.0433 35.8961 24.8564C35.4723 24.665 35.1122 24.4007 34.816 24.0635C34.5198 23.7217 34.2942 23.3229 34.1393 22.8672C33.9843 22.4115 33.9068 21.917 33.9068 21.3838ZM35.5543 21.2266V21.3838C35.5543 21.7165 35.5885 22.0309 35.6568 22.3271C35.7252 22.6234 35.8323 22.8831 35.9781 23.1064C36.124 23.3298 36.3108 23.5052 36.5387 23.6328C36.7665 23.7604 37.0377 23.8242 37.3521 23.8242C37.6575 23.8242 37.9218 23.7604 38.1451 23.6328C38.373 23.5052 38.5598 23.3298 38.7057 23.1064C38.8515 22.8831 38.9586 22.6234 39.027 22.3271C39.0999 22.0309 39.1363 21.7165 39.1363 21.3838V21.2266C39.1363 20.8984 39.0999 20.5885 39.027 20.2969C38.9586 20.0007 38.8492 19.7386 38.6988 19.5107C38.553 19.2829 38.3661 19.1051 38.1383 18.9775C37.915 18.8454 37.6484 18.7793 37.3385 18.7793C37.0286 18.7793 36.7597 18.8454 36.5318 18.9775C36.3085 19.1051 36.124 19.2829 35.9781 19.5107C35.8323 19.7386 35.7252 20.0007 35.6568 20.2969C35.5885 20.5885 35.5543 20.8984 35.5543 21.2266ZM43.9668 22.5938L46.8721 17.6035H48.5195V25H46.8721V20.0029L43.9668 25H42.3193V17.6035H43.9668V22.5938ZM46.4346 14.7598H47.6582C47.6582 15.138 47.5671 15.473 47.3848 15.7646C47.207 16.0518 46.9518 16.2773 46.6191 16.4414C46.291 16.6055 45.8991 16.6875 45.4434 16.6875C44.7552 16.6875 44.2106 16.5098 43.8096 16.1543C43.4131 15.7943 43.2148 15.3294 43.2148 14.7598H44.4385C44.4385 15.015 44.5137 15.2406 44.6641 15.4365C44.819 15.6279 45.0788 15.7236 45.4434 15.7236C45.8034 15.7236 46.0586 15.6279 46.209 15.4365C46.3594 15.2406 46.4346 15.015 46.4346 14.7598ZM53.7943 17.6035V25H52.14V17.6035H53.7943ZM56.2211 17.6035V18.9023H49.7543V17.6035H56.2211ZM59.1238 22.5938L62.0291 17.6035H63.6766V25H62.0291V20.0029L59.1238 25H57.4764V17.6035H59.1238V22.5938Z" fill="white"/>
</g>
<defs>
<clipPath id="clip0_138_334">
<rect width="89" height="40" rx="20" fill="white"/>
</clipPath>
</defs>
</svg>
