<svg width="128" height="40" viewBox="0 0 128 40" fill="none" xmlns="http://www.w3.org/2000/svg">
<g clip-path="url(#clip0_151_349)">
<rect width="128" height="40" rx="20" fill="#6750A4"/>
<rect width="128" height="40" fill="white" fill-opacity="0.12"/>
<path d="M28.3723 21.5342L30.9016 15.0469H32.7951L29.3361 23.1953C29.2268 23.446 29.1014 23.6898 28.9602 23.9268C28.8234 24.1592 28.6571 24.3665 28.4611 24.5488C28.2652 24.7311 28.0282 24.877 27.7502 24.9863C27.4722 25.0911 27.135 25.1436 26.7385 25.1436C26.6337 25.1436 26.5061 25.139 26.3557 25.1299C26.2098 25.1208 26.1027 25.1117 26.0344 25.1025L26.048 23.7559C26.1027 23.765 26.1939 23.7718 26.3215 23.7764C26.4536 23.7809 26.5493 23.7832 26.6086 23.7832C26.8729 23.7832 27.0826 23.7399 27.2375 23.6533C27.3924 23.5622 27.5155 23.4414 27.6066 23.291C27.7023 23.1361 27.7867 22.9674 27.8596 22.7852L28.3723 21.5342ZM26.4719 15.0469L28.9738 20.5566L29.466 22.3477L28.133 22.3955L24.5988 15.0469H26.4719ZM38.357 17.6035V18.916H34.7066V17.6035H38.357ZM35.0963 17.6035V25H33.4488V17.6035H35.0963ZM39.649 17.6035V25H37.9947V17.6035H39.649ZM43.1465 19.0254V27.8438H41.499V17.6035H43.0166L43.1465 19.0254ZM47.9658 21.2334V21.377C47.9658 21.9147 47.902 22.4137 47.7744 22.874C47.6514 23.3298 47.4668 23.7285 47.2207 24.0703C46.9792 24.4076 46.6807 24.6696 46.3252 24.8564C45.9697 25.0433 45.5596 25.1367 45.0947 25.1367C44.6344 25.1367 44.2311 25.0524 43.8848 24.8838C43.543 24.7106 43.2536 24.4668 43.0166 24.1523C42.7796 23.8379 42.5882 23.4688 42.4424 23.0449C42.3011 22.6165 42.2008 22.1471 42.1416 21.6367V21.083C42.2008 20.5407 42.3011 20.0485 42.4424 19.6064C42.5882 19.1644 42.7796 18.7839 43.0166 18.4648C43.2536 18.1458 43.543 17.8997 43.8848 17.7266C44.2266 17.5534 44.6253 17.4668 45.0811 17.4668C45.5459 17.4668 45.9583 17.5579 46.3184 17.7402C46.6784 17.918 46.9814 18.1732 47.2275 18.5059C47.4736 18.834 47.6582 19.2305 47.7812 19.6953C47.9043 20.1556 47.9658 20.6683 47.9658 21.2334ZM46.3184 21.377V21.2334C46.3184 20.8916 46.2865 20.5749 46.2227 20.2832C46.1589 19.987 46.0586 19.7272 45.9219 19.5039C45.7852 19.2806 45.6097 19.1074 45.3955 18.9844C45.1859 18.8568 44.9329 18.793 44.6367 18.793C44.3451 18.793 44.0944 18.8431 43.8848 18.9434C43.6751 19.0391 43.4997 19.1735 43.3584 19.3467C43.2171 19.5199 43.1077 19.7227 43.0303 19.9551C42.9528 20.1829 42.8981 20.4313 42.8662 20.7002V22.0264C42.9209 22.3545 43.0143 22.6553 43.1465 22.9287C43.2786 23.2021 43.4655 23.4209 43.707 23.585C43.9531 23.7445 44.2676 23.8242 44.6504 23.8242C44.9466 23.8242 45.1995 23.7604 45.4092 23.6328C45.6188 23.5052 45.7897 23.3298 45.9219 23.1064C46.0586 22.8786 46.1589 22.6165 46.2227 22.3203C46.2865 22.0241 46.3184 21.7096 46.3184 21.377ZM53.6371 23.5166V19.9893C53.6371 19.7249 53.5893 19.4971 53.4936 19.3057C53.3979 19.1143 53.252 18.9661 53.0561 18.8613C52.8646 18.7565 52.6231 18.7041 52.3314 18.7041C52.0626 18.7041 51.8301 18.7497 51.6342 18.8408C51.4382 18.932 51.2855 19.055 51.1762 19.21C51.0668 19.3649 51.0121 19.5404 51.0121 19.7363H49.3715C49.3715 19.4447 49.4421 19.1621 49.5834 18.8887C49.7247 18.6152 49.9298 18.3714 50.1986 18.1572C50.4675 17.943 50.7888 17.7744 51.1625 17.6514C51.5362 17.5283 51.9555 17.4668 52.4203 17.4668C52.9763 17.4668 53.4685 17.5602 53.8969 17.7471C54.3298 17.9339 54.6693 18.2165 54.9154 18.5947C55.1661 18.9684 55.2914 19.4378 55.2914 20.0029V23.291C55.2914 23.6283 55.3142 23.9313 55.3598 24.2002C55.4099 24.4645 55.4805 24.6947 55.5717 24.8906V25H53.8832C53.8057 24.8223 53.7442 24.5967 53.6986 24.3232C53.6576 24.0452 53.6371 23.7764 53.6371 23.5166ZM53.8764 20.502L53.89 21.5205H52.7074C52.4021 21.5205 52.1332 21.5501 51.9008 21.6094C51.6684 21.6641 51.4747 21.7461 51.3197 21.8555C51.1648 21.9648 51.0486 22.097 50.9711 22.252C50.8936 22.4069 50.8549 22.5824 50.8549 22.7783C50.8549 22.9743 50.9005 23.1543 50.9916 23.3184C51.0827 23.4779 51.2149 23.6032 51.3881 23.6943C51.5658 23.7855 51.78 23.8311 52.0307 23.8311C52.3679 23.8311 52.6618 23.7627 52.9125 23.626C53.1677 23.4847 53.3682 23.3138 53.5141 23.1133C53.6599 22.9082 53.7374 22.7145 53.7465 22.5322L54.2797 23.2637C54.225 23.4505 54.1316 23.651 53.9994 23.8652C53.8673 24.0794 53.6941 24.2845 53.4799 24.4805C53.2702 24.6719 53.0173 24.8291 52.7211 24.9521C52.4294 25.0752 52.0922 25.1367 51.7094 25.1367C51.2263 25.1367 50.7956 25.041 50.4174 24.8496C50.0391 24.6536 49.7429 24.3916 49.5287 24.0635C49.3145 23.7308 49.2074 23.3548 49.2074 22.9355C49.2074 22.5436 49.2803 22.1973 49.4262 21.8965C49.5766 21.5911 49.7953 21.3359 50.0824 21.1309C50.3741 20.9258 50.7296 20.7708 51.1488 20.666C51.5681 20.5566 52.0466 20.502 52.5844 20.502H53.8764ZM60.7098 21.835H58.3445L58.3309 20.6729H60.2723C60.5913 20.6729 60.8533 20.641 61.0584 20.5771C61.268 20.5133 61.423 20.4176 61.5232 20.29C61.6235 20.1579 61.6736 19.9984 61.6736 19.8115C61.6736 19.6566 61.644 19.5221 61.5848 19.4082C61.5255 19.2897 61.4344 19.194 61.3113 19.1211C61.1928 19.0436 61.0424 18.9889 60.8602 18.957C60.6824 18.9206 60.4751 18.9023 60.2381 18.9023H58.8914V25H57.2439V17.6035H60.2381C60.712 17.6035 61.1382 17.6445 61.5164 17.7266C61.8992 17.8086 62.2251 17.9339 62.4939 18.1025C62.7628 18.2712 62.9679 18.4854 63.1092 18.7451C63.255 19.0003 63.3279 19.3011 63.3279 19.6475C63.3279 19.8753 63.2778 20.0895 63.1775 20.29C63.0818 20.4906 62.9383 20.6683 62.7469 20.8232C62.5555 20.9782 62.3208 21.1058 62.0428 21.2061C61.7648 21.3018 61.4458 21.361 61.0857 21.3838L60.7098 21.835ZM60.7098 25H57.866L58.5223 23.7012H60.7098C61.0014 23.7012 61.243 23.6647 61.4344 23.5918C61.6258 23.5189 61.7671 23.4141 61.8582 23.2773C61.9539 23.1361 62.0018 22.9697 62.0018 22.7783C62.0018 22.5824 61.9562 22.4137 61.865 22.2725C61.7739 22.1312 61.6326 22.0241 61.4412 21.9512C61.2544 21.8737 61.0105 21.835 60.7098 21.835H58.8299L58.8436 20.6729H61.0789L61.5506 21.124C62.02 21.1559 62.4096 21.2562 62.7195 21.4248C63.0294 21.5934 63.2618 21.8053 63.4168 22.0605C63.5717 22.3158 63.6492 22.5938 63.6492 22.8945C63.6492 23.2409 63.5831 23.5462 63.451 23.8105C63.3234 24.0749 63.132 24.2959 62.8768 24.4736C62.6261 24.6468 62.3185 24.779 61.9539 24.8701C61.5893 24.9567 61.1746 25 60.7098 25ZM70.1408 17.6035V18.916H66.5314V17.6035H70.1408ZM71.4328 17.6035V25H69.7854V17.6035H71.4328ZM66.1281 17.6035H67.7551L67.5568 21.2607C67.5295 21.8031 67.4748 22.2816 67.3928 22.6963C67.3153 23.1064 67.2105 23.4596 67.0783 23.7559C66.9462 24.0475 66.7844 24.2845 66.593 24.4668C66.4016 24.6491 66.1783 24.7835 65.923 24.8701C65.6678 24.9567 65.3807 25 65.0617 25H64.549L64.5422 23.6465L64.802 23.626C64.9706 23.6123 65.1164 23.569 65.2395 23.4961C65.3625 23.4186 65.4673 23.3092 65.5539 23.168C65.6451 23.0267 65.718 22.8444 65.7727 22.6211C65.8319 22.3978 65.8775 22.1335 65.9094 21.8281C65.9458 21.5228 65.9732 21.1673 65.9914 20.7617L66.1281 17.6035ZM76.5436 25.1367C75.9967 25.1367 75.5022 25.0479 75.0602 24.8701C74.6227 24.6878 74.249 24.4349 73.9391 24.1113C73.6337 23.7878 73.399 23.4072 73.235 22.9697C73.0709 22.5322 72.9889 22.0605 72.9889 21.5547V21.2812C72.9889 20.7025 73.0732 20.1784 73.2418 19.709C73.4104 19.2396 73.6451 18.8385 73.9459 18.5059C74.2467 18.1686 74.6021 17.9111 75.0123 17.7334C75.4225 17.5557 75.8668 17.4668 76.3453 17.4668C76.874 17.4668 77.3365 17.5557 77.733 17.7334C78.1295 17.9111 78.4576 18.1618 78.7174 18.4854C78.9817 18.8044 79.1777 19.1849 79.3053 19.627C79.4374 20.069 79.5035 20.5566 79.5035 21.0898V21.7939H73.7887V20.6113H77.8766V20.4814C77.8674 20.1852 77.8082 19.9072 77.6988 19.6475C77.594 19.3877 77.4322 19.1781 77.2135 19.0186C76.9947 18.859 76.7031 18.7793 76.3385 18.7793C76.065 18.7793 75.8212 18.8385 75.607 18.957C75.3974 19.071 75.2219 19.2373 75.0807 19.4561C74.9394 19.6748 74.83 19.9391 74.7525 20.249C74.6796 20.5544 74.6432 20.8984 74.6432 21.2812V21.5547C74.6432 21.8783 74.6865 22.179 74.773 22.457C74.8642 22.7305 74.9964 22.9697 75.1695 23.1748C75.3427 23.3799 75.5523 23.5417 75.7984 23.6602C76.0445 23.7741 76.3248 23.8311 76.6393 23.8311C77.0357 23.8311 77.3889 23.7513 77.6988 23.5918C78.0087 23.4323 78.2776 23.2067 78.5055 22.915L79.3736 23.7559C79.2141 23.9883 79.0068 24.2116 78.7516 24.4258C78.4964 24.6354 78.1842 24.8063 77.815 24.9385C77.4505 25.0706 77.0266 25.1367 76.5436 25.1367ZM85.9404 20.6934V21.9922H82.1123V20.6934H85.9404ZM82.5908 17.6035V25H80.9434V17.6035H82.5908ZM87.1299 17.6035V25H85.4824V17.6035H87.1299ZM90.6889 22.5938L93.5941 17.6035H95.2416V25H93.5941V20.0029L90.6889 25H89.0414V17.6035H90.6889V22.5938ZM100.346 25.1367C99.7986 25.1367 99.3042 25.0479 98.8621 24.8701C98.4246 24.6878 98.0509 24.4349 97.741 24.1113C97.4357 23.7878 97.201 23.4072 97.0369 22.9697C96.8728 22.5322 96.7908 22.0605 96.7908 21.5547V21.2812C96.7908 20.7025 96.8751 20.1784 97.0437 19.709C97.2124 19.2396 97.4471 18.8385 97.7478 18.5059C98.0486 18.1686 98.4041 17.9111 98.8143 17.7334C99.2244 17.5557 99.6687 17.4668 100.147 17.4668C100.676 17.4668 101.138 17.5557 101.535 17.7334C101.931 17.9111 102.26 18.1618 102.519 18.4854C102.784 18.8044 102.98 19.1849 103.107 19.627C103.239 20.069 103.305 20.5566 103.305 21.0898V21.7939H97.5906V20.6113H101.679V20.4814C101.669 20.1852 101.61 19.9072 101.501 19.6475C101.396 19.3877 101.234 19.1781 101.015 19.0186C100.797 18.859 100.505 18.7793 100.14 18.7793C99.867 18.7793 99.6232 18.8385 99.409 18.957C99.1993 19.071 99.0239 19.2373 98.8826 19.4561C98.7413 19.6748 98.632 19.9391 98.5545 20.249C98.4816 20.5544 98.4451 20.8984 98.4451 21.2812V21.5547C98.4451 21.8783 98.4884 22.179 98.575 22.457C98.6661 22.7305 98.7983 22.9697 98.9715 23.1748C99.1447 23.3799 99.3543 23.5417 99.6004 23.6602C99.8465 23.7741 100.127 23.8311 100.441 23.8311C100.838 23.8311 101.191 23.7513 101.501 23.5918C101.811 23.4323 102.08 23.2067 102.307 22.915L103.176 23.7559C103.016 23.9883 102.809 24.2116 102.554 24.4258C102.298 24.6354 101.986 24.8063 101.617 24.9385C101.252 25.0706 100.829 25.1367 100.346 25.1367Z" fill="white"/>
</g>
<defs>
<clipPath id="clip0_151_349">
<rect width="128" height="40" rx="20" fill="white"/>
</clipPath>
</defs>
</svg>
