<svg width="22" height="21" viewBox="0 0 22 21" fill="none" xmlns="http://www.w3.org/2000/svg">
<path d="M11 17.325C11.8715 17.325 12.575 16.6215 12.575 15.75H9.425C9.425 16.6215 10.1285 17.325 11 17.325ZM11 0C5.204 0 0.5 4.704 0.5 10.5C0.5 16.296 5.204 21 11 21C16.796 21 21.5 16.296 21.5 10.5C21.5 4.704 16.796 0 11 0ZM11 18.9C6.3695 18.9 2.6 15.1305 2.6 10.5C2.6 5.8695 6.3695 2.1 11 2.1C15.6305 2.1 19.4 5.8695 19.4 10.5C19.4 15.1305 15.6305 18.9 11 18.9ZM15.2 9.8595C15.2 7.644 14.1185 5.7435 12.05 5.25V4.725C12.05 4.1265 11.5985 3.675 11 3.675C10.4015 3.675 9.95 4.1265 9.95 4.725V5.25C7.8815 5.7435 6.8 7.6335 6.8 9.8595V12.6H5.75V14.7H16.25V12.6H15.2V9.8595ZM13.1 12.6H8.9V9.45C8.9 8.295 9.845 7.35 11 7.35C12.155 7.35 13.1 8.295 13.1 9.45V12.6Z" fill="black"/>
</svg>
