<svg width="144" height="13" viewBox="0 0 144 13" fill="none" xmlns="http://www.w3.org/2000/svg">
<path d="M3.90859 5.50195H1.37246L1.35879 4.25098H3.57363C3.94733 4.25098 4.26406 4.19629 4.52383 4.08691C4.78815 3.97298 4.98867 3.8112 5.12539 3.60156C5.26211 3.38737 5.33047 3.12988 5.33047 2.8291C5.33047 2.49642 5.26667 2.22526 5.13906 2.01562C5.01146 1.80599 4.81549 1.65332 4.55117 1.55762C4.2914 1.46191 3.95872 1.41406 3.55312 1.41406H1.89199V10H0.17617V0.046875H3.55312C4.1 0.046875 4.58763 0.0992839 5.01601 0.204102C5.44896 0.308919 5.81582 0.472982 6.1166 0.696289C6.42194 0.915039 6.65208 1.19303 6.80703 1.53027C6.96653 1.86751 7.04629 2.26855 7.04629 2.7334C7.04629 3.14355 6.94831 3.51953 6.75234 3.86133C6.55638 4.19857 6.26699 4.47428 5.88418 4.68848C5.50137 4.90267 5.02513 5.03027 4.45547 5.07129L3.90859 5.50195ZM3.8334 10H0.83242L1.60488 8.63965H3.8334C4.22077 8.63965 4.54433 8.57585 4.8041 8.44824C5.06387 8.31608 5.25755 8.13607 5.38515 7.9082C5.51732 7.67578 5.5834 7.40462 5.5834 7.09473C5.5834 6.77116 5.52643 6.49089 5.4125 6.25391C5.29857 6.01237 5.11855 5.8278 4.87246 5.7002C4.62637 5.56803 4.30508 5.50195 3.90859 5.50195H1.98086L1.99453 4.25098H4.50332L4.89297 4.72266C5.43984 4.74089 5.88874 4.86165 6.23965 5.08496C6.59512 5.30827 6.85944 5.59766 7.03262 5.95312C7.20579 6.30859 7.29238 6.69141 7.29238 7.10156C7.29238 7.73503 7.15338 8.26595 6.87539 8.69434C6.60195 9.12272 6.20775 9.44857 5.69277 9.67188C5.1778 9.89062 4.55801 10 3.8334 10ZM8.64336 6.38379V6.22656C8.64336 5.69336 8.72083 5.19889 8.87578 4.74316C9.03073 4.28288 9.25404 3.88411 9.5457 3.54688C9.84193 3.20508 10.202 2.94076 10.6258 2.75391C11.0542 2.5625 11.5372 2.4668 12.075 2.4668C12.6173 2.4668 13.1004 2.5625 13.5242 2.75391C13.9526 2.94076 14.3149 3.20508 14.6111 3.54688C14.9074 3.88411 15.1329 4.28288 15.2879 4.74316C15.4428 5.19889 15.5203 5.69336 15.5203 6.22656V6.38379C15.5203 6.91699 15.4428 7.41146 15.2879 7.86719C15.1329 8.32292 14.9074 8.72168 14.6111 9.06348C14.3149 9.40072 13.9549 9.66504 13.5311 9.85645C13.1072 10.0433 12.6264 10.1367 12.0887 10.1367C11.5464 10.1367 11.061 10.0433 10.6326 9.85645C10.2088 9.66504 9.84876 9.40072 9.55254 9.06348C9.25631 8.72168 9.03073 8.32292 8.87578 7.86719C8.72083 7.41146 8.64336 6.91699 8.64336 6.38379ZM10.2908 6.22656V6.38379C10.2908 6.71647 10.325 7.03092 10.3934 7.32715C10.4617 7.62337 10.5688 7.88314 10.7146 8.10645C10.8605 8.32975 11.0473 8.50521 11.2752 8.63281C11.5031 8.76042 11.7742 8.82422 12.0887 8.82422C12.394 8.82422 12.6583 8.76042 12.8816 8.63281C13.1095 8.50521 13.2964 8.32975 13.4422 8.10645C13.588 7.88314 13.6951 7.62337 13.7635 7.32715C13.8364 7.03092 13.8729 6.71647 13.8729 6.38379V6.22656C13.8729 5.89844 13.8364 5.58854 13.7635 5.29688C13.6951 5.00065 13.5857 4.73861 13.4354 4.51074C13.2895 4.28288 13.1027 4.10514 12.8748 3.97754C12.6515 3.84538 12.3849 3.7793 12.075 3.7793C11.7651 3.7793 11.4962 3.84538 11.2684 3.97754C11.0451 4.10514 10.8605 4.28288 10.7146 4.51074C10.5688 4.73861 10.4617 5.00065 10.3934 5.29688C10.325 5.58854 10.2908 5.89844 10.2908 6.22656ZM20.0227 8.82422C20.2915 8.82422 20.5331 8.77181 20.7473 8.66699C20.966 8.55762 21.1415 8.40723 21.2736 8.21582C21.4104 8.02441 21.4855 7.80339 21.4992 7.55273H23.051C23.0419 8.03125 22.9006 8.46647 22.6271 8.8584C22.3537 9.25033 21.9914 9.5625 21.5402 9.79492C21.0891 10.0228 20.59 10.1367 20.0432 10.1367C19.4781 10.1367 18.9859 10.041 18.5666 9.84961C18.1473 9.65365 17.7987 9.38477 17.5207 9.04297C17.2427 8.70117 17.0331 8.30697 16.8918 7.86035C16.7551 7.41374 16.6867 6.93522 16.6867 6.4248V6.18555C16.6867 5.67513 16.7551 5.19661 16.8918 4.75C17.0331 4.29883 17.2427 3.90234 17.5207 3.56055C17.7987 3.21875 18.1473 2.95215 18.5666 2.76074C18.9859 2.56478 19.4758 2.4668 20.0363 2.4668C20.6288 2.4668 21.1483 2.58529 21.5949 2.82227C22.0415 3.05469 22.3924 3.38053 22.6477 3.7998C22.9074 4.21452 23.0419 4.69759 23.051 5.24902H21.4992C21.4855 4.97559 21.4172 4.72949 21.2941 4.51074C21.1757 4.28743 21.007 4.1097 20.7883 3.97754C20.5741 3.84538 20.3166 3.7793 20.0158 3.7793C19.6831 3.7793 19.4074 3.84766 19.1887 3.98438C18.9699 4.11654 18.799 4.29883 18.676 4.53125C18.5529 4.75911 18.4641 5.0166 18.4094 5.30371C18.3592 5.58626 18.3342 5.88021 18.3342 6.18555V6.4248C18.3342 6.73014 18.3592 7.02637 18.4094 7.31348C18.4595 7.60059 18.5461 7.85807 18.6691 8.08594C18.7967 8.30924 18.9699 8.48926 19.1887 8.62598C19.4074 8.75814 19.6854 8.82422 20.0227 8.82422ZM27.4371 8.82422C27.706 8.82422 27.9475 8.77181 28.1617 8.66699C28.3805 8.55762 28.5559 8.40723 28.6881 8.21582C28.8248 8.02441 28.9 7.80339 28.9137 7.55273H30.4654C30.4563 8.03125 30.315 8.46647 30.0416 8.8584C29.7682 9.25033 29.4059 9.5625 28.9547 9.79492C28.5035 10.0228 28.0045 10.1367 27.4576 10.1367C26.8925 10.1367 26.4003 10.041 25.9811 9.84961C25.5618 9.65365 25.2131 9.38477 24.9352 9.04297C24.6572 8.70117 24.4475 8.30697 24.3062 7.86035C24.1695 7.41374 24.1012 6.93522 24.1012 6.4248V6.18555C24.1012 5.67513 24.1695 5.19661 24.3062 4.75C24.4475 4.29883 24.6572 3.90234 24.9352 3.56055C25.2131 3.21875 25.5618 2.95215 25.9811 2.76074C26.4003 2.56478 26.8902 2.4668 27.4508 2.4668C28.0432 2.4668 28.5628 2.58529 29.0094 2.82227C29.456 3.05469 29.8069 3.38053 30.0621 3.7998C30.3219 4.21452 30.4563 4.69759 30.4654 5.24902H28.9137C28.9 4.97559 28.8316 4.72949 28.7086 4.51074C28.5901 4.28743 28.4215 4.1097 28.2027 3.97754C27.9885 3.84538 27.7311 3.7793 27.4303 3.7793C27.0976 3.7793 26.8219 3.84766 26.6031 3.98438C26.3844 4.11654 26.2135 4.29883 26.0904 4.53125C25.9674 4.75911 25.8785 5.0166 25.8238 5.30371C25.7737 5.58626 25.7486 5.88021 25.7486 6.18555V6.4248C25.7486 6.73014 25.7737 7.02637 25.8238 7.31348C25.874 7.60059 25.9605 7.85807 26.0836 8.08594C26.2112 8.30924 26.3844 8.48926 26.6031 8.62598C26.8219 8.75814 27.0999 8.82422 27.4371 8.82422ZM35.2617 2.60352V10H33.6074V2.60352H35.2617ZM37.6885 2.60352V3.90234H31.2217V2.60352H37.6885ZM42.9496 8.5166V4.98926C42.9496 4.72493 42.9018 4.49707 42.8061 4.30566C42.7104 4.11426 42.5645 3.96615 42.3686 3.86133C42.1771 3.75651 41.9356 3.7041 41.6439 3.7041C41.3751 3.7041 41.1426 3.74967 40.9467 3.84082C40.7507 3.93197 40.598 4.05501 40.4887 4.20996C40.3793 4.36491 40.3246 4.54036 40.3246 4.73633H38.684C38.684 4.44466 38.7546 4.16211 38.8959 3.88867C39.0372 3.61523 39.2423 3.37142 39.5111 3.15723C39.78 2.94303 40.1013 2.77441 40.475 2.65137C40.8487 2.52832 41.268 2.4668 41.7328 2.4668C42.2888 2.4668 42.781 2.56022 43.2094 2.74707C43.6423 2.93392 43.9818 3.21647 44.2279 3.59473C44.4786 3.96842 44.6039 4.43783 44.6039 5.00293V8.29102C44.6039 8.62826 44.6267 8.93132 44.6723 9.2002C44.7224 9.46452 44.793 9.69466 44.8842 9.89062V10H43.1957C43.1182 9.82227 43.0567 9.59668 43.0111 9.32324C42.9701 9.04525 42.9496 8.77637 42.9496 8.5166ZM43.1889 5.50195L43.2025 6.52051H42.0199C41.7146 6.52051 41.4457 6.55013 41.2133 6.60938C40.9809 6.66406 40.7872 6.74609 40.6322 6.85547C40.4773 6.96484 40.3611 7.09701 40.2836 7.25195C40.2061 7.4069 40.1674 7.58236 40.1674 7.77832C40.1674 7.97428 40.213 8.1543 40.3041 8.31836C40.3952 8.47786 40.5274 8.60319 40.7006 8.69434C40.8783 8.78548 41.0925 8.83105 41.3432 8.83105C41.6804 8.83105 41.9743 8.7627 42.225 8.62598C42.4802 8.4847 42.6807 8.3138 42.8266 8.11328C42.9724 7.9082 43.0499 7.71452 43.059 7.53223L43.5922 8.26367C43.5375 8.45052 43.4441 8.65104 43.3119 8.86523C43.1798 9.07943 43.0066 9.28451 42.7924 9.48047C42.5827 9.67188 42.3298 9.8291 42.0336 9.95215C41.7419 10.0752 41.4047 10.1367 41.0219 10.1367C40.5388 10.1367 40.1081 10.041 39.7299 9.84961C39.3516 9.65365 39.0554 9.3916 38.8412 9.06348C38.627 8.73079 38.5199 8.35482 38.5199 7.93555C38.5199 7.54362 38.5928 7.19727 38.7387 6.89648C38.8891 6.59115 39.1078 6.33594 39.3949 6.13086C39.6866 5.92578 40.0421 5.77083 40.4613 5.66602C40.8806 5.55664 41.3591 5.50195 41.8969 5.50195H43.1889ZM51.4783 5.69336V6.99219H47.6502V5.69336H51.4783ZM48.1287 2.60352V10H46.4812V2.60352H48.1287ZM52.6678 2.60352V10H51.0203V2.60352H52.6678ZM54.2102 6.38379V6.22656C54.2102 5.69336 54.2876 5.19889 54.4426 4.74316C54.5975 4.28288 54.8208 3.88411 55.1125 3.54688C55.4087 3.20508 55.7687 2.94076 56.1926 2.75391C56.621 2.5625 57.104 2.4668 57.6418 2.4668C58.1841 2.4668 58.6672 2.5625 59.091 2.75391C59.5194 2.94076 59.8817 3.20508 60.1779 3.54688C60.4742 3.88411 60.6997 4.28288 60.8547 4.74316C61.0096 5.19889 61.0871 5.69336 61.0871 6.22656V6.38379C61.0871 6.91699 61.0096 7.41146 60.8547 7.86719C60.6997 8.32292 60.4742 8.72168 60.1779 9.06348C59.8817 9.40072 59.5217 9.66504 59.0979 9.85645C58.674 10.0433 58.1932 10.1367 57.6555 10.1367C57.1132 10.1367 56.6278 10.0433 56.1994 9.85645C55.7756 9.66504 55.4156 9.40072 55.1193 9.06348C54.8231 8.72168 54.5975 8.32292 54.4426 7.86719C54.2876 7.41146 54.2102 6.91699 54.2102 6.38379ZM55.8576 6.22656V6.38379C55.8576 6.71647 55.8918 7.03092 55.9602 7.32715C56.0285 7.62337 56.1356 7.88314 56.2814 8.10645C56.4273 8.32975 56.6141 8.50521 56.842 8.63281C57.0699 8.76042 57.341 8.82422 57.6555 8.82422C57.9608 8.82422 58.2251 8.76042 58.4484 8.63281C58.6763 8.50521 58.8632 8.32975 59.009 8.10645C59.1548 7.88314 59.2619 7.62337 59.3303 7.32715C59.4032 7.03092 59.4396 6.71647 59.4396 6.38379V6.22656C59.4396 5.89844 59.4032 5.58854 59.3303 5.29688C59.2619 5.00065 59.1525 4.73861 59.0021 4.51074C58.8563 4.28288 58.6695 4.10514 58.4416 3.97754C58.2183 3.84538 57.9517 3.7793 57.6418 3.7793C57.3319 3.7793 57.063 3.84538 56.8352 3.97754C56.6118 4.10514 56.4273 4.28288 56.2814 4.51074C56.1356 4.73861 56.0285 5.00065 55.9602 5.29688C55.8918 5.58854 55.8576 5.89844 55.8576 6.22656ZM66.1637 6.83496H63.7984L63.7848 5.67285H65.7262C66.0452 5.67285 66.3072 5.64095 66.5123 5.57715C66.7219 5.51335 66.8769 5.41764 66.9771 5.29004C67.0774 5.15788 67.1275 4.99837 67.1275 4.81152C67.1275 4.65658 67.0979 4.52214 67.0387 4.4082C66.9794 4.28971 66.8883 4.19401 66.7652 4.12109C66.6467 4.04362 66.4963 3.98893 66.3141 3.95703C66.1363 3.92057 65.929 3.90234 65.692 3.90234H64.3453V10H62.6978V2.60352H65.692C66.1659 2.60352 66.5921 2.64453 66.9703 2.72656C67.3531 2.80859 67.679 2.93392 67.9478 3.10254C68.2167 3.27116 68.4218 3.48535 68.5631 3.74512C68.7089 4.00033 68.7818 4.30111 68.7818 4.64746C68.7818 4.87533 68.7317 5.08952 68.6314 5.29004C68.5357 5.49056 68.3922 5.66829 68.2008 5.82324C68.0094 5.97819 67.7747 6.10579 67.4967 6.20605C67.2187 6.30176 66.8997 6.361 66.5396 6.38379L66.1637 6.83496ZM66.1637 10H63.3199L63.9762 8.70117H66.1637C66.4553 8.70117 66.6969 8.66471 66.8883 8.5918C67.0797 8.51888 67.221 8.41406 67.3121 8.27734C67.4078 8.13607 67.4557 7.96973 67.4557 7.77832C67.4557 7.58236 67.4101 7.41374 67.3189 7.27246C67.2278 7.13118 67.0865 7.02409 66.8951 6.95117C66.7083 6.8737 66.4644 6.83496 66.1637 6.83496H64.2838L64.2975 5.67285H66.5328L67.0045 6.12402C67.4739 6.15592 67.8635 6.25618 68.1734 6.4248C68.4833 6.59342 68.7157 6.80534 68.8707 7.06055C69.0256 7.31576 69.1031 7.59375 69.1031 7.89453C69.1031 8.24089 69.037 8.54622 68.9049 8.81055C68.7773 9.07487 68.5859 9.2959 68.3307 9.47363C68.08 9.64681 67.7724 9.77897 67.4078 9.87012C67.0432 9.95671 66.6285 10 66.1637 10ZM72.3271 7.59375L75.2324 2.60352H76.8799V10H75.2324V5.00293L72.3271 10H70.6797V2.60352H72.3271V7.59375ZM82.1547 2.60352V10H80.5004V2.60352H82.1547ZM84.5814 2.60352V3.90234H78.1146V2.60352H84.5814ZM87.0057 4.95508H89.1863C89.8243 4.95508 90.3667 5.06217 90.8133 5.27637C91.2599 5.49056 91.5994 5.78906 91.8318 6.17188C92.0688 6.55013 92.1873 6.98307 92.1873 7.4707C92.1873 7.83073 92.1212 8.16569 91.9891 8.47559C91.8569 8.78092 91.6609 9.04753 91.4012 9.27539C91.146 9.50326 90.8315 9.68099 90.4578 9.80859C90.0887 9.9362 89.6648 10 89.1863 10H85.9119V2.60352H87.5662V8.69434H89.1863C89.5145 8.69434 89.7765 8.63737 89.9725 8.52344C90.1684 8.40951 90.3097 8.26139 90.3963 8.0791C90.4874 7.89681 90.533 7.70312 90.533 7.49805C90.533 7.28841 90.4874 7.09017 90.3963 6.90332C90.3097 6.71647 90.1684 6.5638 89.9725 6.44531C89.7765 6.32682 89.5145 6.26758 89.1863 6.26758H87.0057V4.95508ZM102.156 2.60352V3.91602H98.5055V2.60352H102.156ZM98.8951 2.60352V10H97.2477V2.60352H98.8951ZM103.448 2.60352V10H101.794V2.60352H103.448ZM109.461 8.5166V4.98926C109.461 4.72493 109.413 4.49707 109.317 4.30566C109.222 4.11426 109.076 3.96615 108.88 3.86133C108.688 3.75651 108.447 3.7041 108.155 3.7041C107.886 3.7041 107.654 3.74967 107.458 3.84082C107.262 3.93197 107.109 4.05501 107 4.20996C106.891 4.36491 106.836 4.54036 106.836 4.73633H105.195C105.195 4.44466 105.266 4.16211 105.407 3.88867C105.549 3.61523 105.754 3.37142 106.022 3.15723C106.291 2.94303 106.613 2.77441 106.986 2.65137C107.36 2.52832 107.779 2.4668 108.244 2.4668C108.8 2.4668 109.292 2.56022 109.721 2.74707C110.154 2.93392 110.493 3.21647 110.739 3.59473C110.99 3.96842 111.115 4.43783 111.115 5.00293V8.29102C111.115 8.62826 111.138 8.93132 111.184 9.2002C111.234 9.46452 111.304 9.69466 111.396 9.89062V10H109.707C109.63 9.82227 109.568 9.59668 109.522 9.32324C109.481 9.04525 109.461 8.77637 109.461 8.5166ZM109.7 5.50195L109.714 6.52051H108.531C108.226 6.52051 107.957 6.55013 107.725 6.60938C107.492 6.66406 107.299 6.74609 107.144 6.85547C106.989 6.96484 106.872 7.09701 106.795 7.25195C106.717 7.4069 106.679 7.58236 106.679 7.77832C106.679 7.97428 106.724 8.1543 106.815 8.31836C106.907 8.47786 107.039 8.60319 107.212 8.69434C107.39 8.78548 107.604 8.83105 107.854 8.83105C108.192 8.83105 108.486 8.7627 108.736 8.62598C108.992 8.4847 109.192 8.3138 109.338 8.11328C109.484 7.9082 109.561 7.71452 109.57 7.53223L110.104 8.26367C110.049 8.45052 109.955 8.65104 109.823 8.86523C109.691 9.07943 109.518 9.28451 109.304 9.48047C109.094 9.67188 108.841 9.8291 108.545 9.95215C108.253 10.0752 107.916 10.1367 107.533 10.1367C107.05 10.1367 106.619 10.041 106.241 9.84961C105.863 9.65365 105.567 9.3916 105.353 9.06348C105.138 8.73079 105.031 8.35482 105.031 7.93555C105.031 7.54362 105.104 7.19727 105.25 6.89648C105.4 6.59115 105.619 6.33594 105.906 6.13086C106.198 5.92578 106.553 5.77083 106.973 5.66602C107.392 5.55664 107.87 5.50195 108.408 5.50195H109.7ZM114.592 4.02539V12.8438H112.945V2.60352H114.462L114.592 4.02539ZM119.412 6.2334V6.37695C119.412 6.91471 119.348 7.41374 119.22 7.87402C119.097 8.32975 118.912 8.72852 118.666 9.07031C118.425 9.40755 118.126 9.6696 117.771 9.85645C117.415 10.0433 117.005 10.1367 116.54 10.1367C116.08 10.1367 115.677 10.0524 115.33 9.88379C114.989 9.71061 114.699 9.4668 114.462 9.15234C114.225 8.83789 114.034 8.46875 113.888 8.04492C113.747 7.61654 113.647 7.14714 113.587 6.63672V6.08301C113.647 5.54069 113.747 5.0485 113.888 4.60645C114.034 4.16439 114.225 3.78385 114.462 3.46484C114.699 3.14583 114.989 2.89974 115.33 2.72656C115.672 2.55339 116.071 2.4668 116.527 2.4668C116.992 2.4668 117.404 2.55794 117.764 2.74023C118.124 2.91797 118.427 3.17318 118.673 3.50586C118.919 3.83398 119.104 4.23047 119.227 4.69531C119.35 5.1556 119.412 5.66829 119.412 6.2334ZM117.764 6.37695V6.2334C117.764 5.8916 117.732 5.57487 117.668 5.2832C117.605 4.98698 117.504 4.72721 117.368 4.50391C117.231 4.2806 117.055 4.10742 116.841 3.98438C116.632 3.85677 116.379 3.79297 116.082 3.79297C115.791 3.79297 115.54 3.8431 115.33 3.94336C115.121 4.03906 114.945 4.1735 114.804 4.34668C114.663 4.51986 114.553 4.72266 114.476 4.95508C114.399 5.18294 114.344 5.43132 114.312 5.7002V7.02637C114.367 7.35449 114.46 7.65527 114.592 7.92871C114.724 8.20215 114.911 8.4209 115.153 8.58496C115.399 8.74447 115.713 8.82422 116.096 8.82422C116.392 8.82422 116.645 8.76042 116.855 8.63281C117.065 8.50521 117.235 8.32975 117.368 8.10645C117.504 7.87858 117.605 7.61654 117.668 7.32031C117.732 7.02409 117.764 6.70964 117.764 6.37695ZM120.598 6.38379V6.22656C120.598 5.69336 120.676 5.19889 120.831 4.74316C120.986 4.28288 121.209 3.88411 121.501 3.54688C121.797 3.20508 122.157 2.94076 122.581 2.75391C123.009 2.5625 123.492 2.4668 124.03 2.4668C124.572 2.4668 125.055 2.5625 125.479 2.75391C125.908 2.94076 126.27 3.20508 126.566 3.54688C126.862 3.88411 127.088 4.28288 127.243 4.74316C127.398 5.19889 127.475 5.69336 127.475 6.22656V6.38379C127.475 6.91699 127.398 7.41146 127.243 7.86719C127.088 8.32292 126.862 8.72168 126.566 9.06348C126.27 9.40072 125.91 9.66504 125.486 9.85645C125.062 10.0433 124.582 10.1367 124.044 10.1367C123.501 10.1367 123.016 10.0433 122.588 9.85645C122.164 9.66504 121.804 9.40072 121.508 9.06348C121.211 8.72168 120.986 8.32292 120.831 7.86719C120.676 7.41146 120.598 6.91699 120.598 6.38379ZM122.246 6.22656V6.38379C122.246 6.71647 122.28 7.03092 122.348 7.32715C122.417 7.62337 122.524 7.88314 122.67 8.10645C122.816 8.32975 123.002 8.50521 123.23 8.63281C123.458 8.76042 123.729 8.82422 124.044 8.82422C124.349 8.82422 124.613 8.76042 124.837 8.63281C125.065 8.50521 125.251 8.32975 125.397 8.10645C125.543 7.88314 125.65 7.62337 125.719 7.32715C125.791 7.03092 125.828 6.71647 125.828 6.38379V6.22656C125.828 5.89844 125.791 5.58854 125.719 5.29688C125.65 5.00065 125.541 4.73861 125.39 4.51074C125.245 4.28288 125.058 4.10514 124.83 3.97754C124.607 3.84538 124.34 3.7793 124.03 3.7793C123.72 3.7793 123.451 3.84538 123.223 3.97754C123 4.10514 122.816 4.28288 122.67 4.51074C122.524 4.73861 122.417 5.00065 122.348 5.29688C122.28 5.58854 122.246 5.89844 122.246 6.22656ZM133.817 2.60352V3.91602H130.207V2.60352H133.817ZM135.109 2.60352V10H133.461V2.60352H135.109ZM129.804 2.60352H131.431L131.233 6.26074C131.205 6.80306 131.151 7.28158 131.069 7.69629C130.991 8.10645 130.886 8.45964 130.754 8.75586C130.622 9.04753 130.46 9.28451 130.269 9.4668C130.077 9.64909 129.854 9.78353 129.599 9.87012C129.344 9.95671 129.056 10 128.737 10H128.225L128.218 8.64648L128.478 8.62598C128.646 8.6123 128.792 8.56901 128.915 8.49609C129.038 8.41862 129.143 8.30924 129.23 8.16797C129.321 8.02669 129.394 7.8444 129.448 7.62109C129.508 7.39779 129.553 7.13346 129.585 6.82812C129.622 6.52279 129.649 6.16732 129.667 5.76172L129.804 2.60352ZM138.182 4.95508H140.363C141.001 4.95508 141.543 5.06217 141.99 5.27637C142.436 5.49056 142.776 5.78906 143.008 6.17188C143.245 6.55013 143.364 6.98307 143.364 7.4707C143.364 7.83073 143.298 8.16569 143.166 8.47559C143.033 8.78092 142.837 9.04753 142.578 9.27539C142.323 9.50326 142.008 9.68099 141.634 9.80859C141.265 9.9362 140.841 10 140.363 10H137.088V2.60352H138.743V8.69434H140.363C140.691 8.69434 140.953 8.63737 141.149 8.52344C141.345 8.40951 141.486 8.26139 141.573 8.0791C141.664 7.89681 141.71 7.70312 141.71 7.49805C141.71 7.28841 141.664 7.09017 141.573 6.90332C141.486 6.71647 141.345 6.5638 141.149 6.44531C140.953 6.32682 140.691 6.26758 140.363 6.26758H138.182V4.95508Z" fill="#2094FF"/>
<path d="M-0.835548 11.3672H143.829V12.0508H-0.835548V11.3672Z" fill="#2094FF"/>
</svg>
