<svg width="22" height="21" viewBox="0 0 22 21" fill="none" xmlns="http://www.w3.org/2000/svg">
<path d="M19.1667 0H2.83333C1.53833 0 0.5 0.9 0.5 2V16C0.5 17.1 1.53833 18 2.83333 18H7.5L11 21L14.5 18H19.1667C20.45 18 21.5 17.1 21.5 16V2C21.5 0.9 20.45 0 19.1667 0ZM19.1667 16H13.5317L11 18.17L8.46833 16H2.83333V2H19.1667V16ZM11 9C12.925 9 14.5 7.65 14.5 6C14.5 4.35 12.925 3 11 3C9.075 3 7.5 4.35 7.5 6C7.5 7.65 9.075 9 11 9ZM11 5C11.6417 5 12.1667 5.45 12.1667 6C12.1667 6.55 11.6417 7 11 7C10.3583 7 9.83333 6.55 9.83333 6C9.83333 5.45 10.3583 5 11 5ZM18 13.58C18 11.08 13.3683 10 11 10C8.63167 10 4 11.08 4 13.58V15H18V13.58ZM6.89333 13C7.75667 12.49 9.495 12 11 12C12.505 12 14.2433 12.49 15.1067 13H6.89333Z" fill="black"/>
</svg>
