<svg width="187" height="40" viewBox="0 0 187 40" fill="none" xmlns="http://www.w3.org/2000/svg">
<g clip-path="url(#clip0_140_346)">
<rect width="187" height="40" rx="20" fill="#6750A4"/>
<rect width="187" height="40" fill="white" fill-opacity="0.12"/>
<path d="M28.857 20.2285H27.4762V19.251H28.6656C29.0895 19.251 29.4335 19.1895 29.6979 19.0664C29.9622 18.9388 30.1536 18.7633 30.2721 18.54C30.3951 18.3122 30.4566 18.0479 30.4566 17.7471C30.4566 17.4782 30.3883 17.2321 30.2516 17.0088C30.1194 16.7855 29.9143 16.6077 29.6363 16.4756C29.3583 16.3389 29.0006 16.2705 28.5631 16.2705C28.235 16.2705 27.9365 16.3298 27.6676 16.4482C27.3987 16.5667 27.1845 16.7331 27.025 16.9473C26.8701 17.1615 26.7926 17.4144 26.7926 17.7061H25.0768C25.0768 17.2731 25.1679 16.8857 25.3502 16.5439C25.537 16.1976 25.79 15.9036 26.109 15.6621C26.4326 15.4206 26.804 15.236 27.2232 15.1084C27.6471 14.9762 28.0937 14.9102 28.5631 14.9102C29.11 14.9102 29.6044 14.9717 30.0465 15.0947C30.4885 15.2132 30.8691 15.391 31.1881 15.6279C31.5071 15.8649 31.7509 16.1611 31.9195 16.5166C32.0882 16.8675 32.1725 17.2754 32.1725 17.7402C32.1725 18.082 32.0927 18.4033 31.9332 18.7041C31.7783 19.0049 31.5549 19.2692 31.2633 19.4971C30.9716 19.7249 30.6207 19.9049 30.2105 20.0371C29.8049 20.1647 29.3538 20.2285 28.857 20.2285ZM27.4762 19.6338H28.857C29.4085 19.6338 29.8984 19.6908 30.3268 19.8047C30.7551 19.9186 31.1174 20.085 31.4137 20.3037C31.7099 20.5225 31.9355 20.7936 32.0904 21.1172C32.2454 21.4362 32.3229 21.8031 32.3229 22.2178C32.3229 22.6826 32.2294 23.0973 32.0426 23.4619C31.8603 23.8219 31.6005 24.1273 31.2633 24.3779C30.926 24.6286 30.5273 24.8177 30.067 24.9453C29.6113 25.0729 29.11 25.1367 28.5631 25.1367C28.121 25.1367 27.6835 25.082 27.2506 24.9727C26.8222 24.8587 26.4326 24.6855 26.0816 24.4531C25.7353 24.2161 25.4573 23.9154 25.2477 23.5508C25.038 23.1862 24.9332 22.7487 24.9332 22.2383H26.6559C26.6559 22.5208 26.7356 22.7806 26.8951 23.0176C27.0592 23.25 27.2825 23.4368 27.565 23.5781C27.8521 23.7148 28.1848 23.7832 28.5631 23.7832C28.996 23.7832 29.3629 23.7148 29.6637 23.5781C29.969 23.4414 30.2014 23.2546 30.3609 23.0176C30.525 22.7806 30.607 22.514 30.607 22.2178C30.607 21.9352 30.5637 21.6914 30.4771 21.4863C30.3951 21.2767 30.2721 21.1081 30.108 20.9805C29.9439 20.8483 29.7411 20.7503 29.4996 20.6865C29.2581 20.6227 28.9801 20.5908 28.6656 20.5908H27.4762V19.6338ZM38.0557 23.5166V19.9893C38.0557 19.7249 38.0078 19.4971 37.9121 19.3057C37.8164 19.1143 37.6706 18.9661 37.4746 18.8613C37.2832 18.7565 37.0417 18.7041 36.75 18.7041C36.4811 18.7041 36.2487 18.7497 36.0527 18.8408C35.8568 18.932 35.7041 19.055 35.5947 19.21C35.4854 19.3649 35.4307 19.5404 35.4307 19.7363H33.79C33.79 19.4447 33.8607 19.1621 34.002 18.8887C34.1432 18.6152 34.3483 18.3714 34.6172 18.1572C34.8861 17.943 35.2074 17.7744 35.5811 17.6514C35.9548 17.5283 36.374 17.4668 36.8389 17.4668C37.3949 17.4668 37.887 17.5602 38.3154 17.7471C38.7484 17.9339 39.0879 18.2165 39.334 18.5947C39.5846 18.9684 39.71 19.4378 39.71 20.0029V23.291C39.71 23.6283 39.7327 23.9313 39.7783 24.2002C39.8285 24.4645 39.8991 24.6947 39.9902 24.8906V25H38.3018C38.2243 24.8223 38.1628 24.5967 38.1172 24.3232C38.0762 24.0452 38.0557 23.7764 38.0557 23.5166ZM38.2949 20.502L38.3086 21.5205H37.126C36.8206 21.5205 36.5518 21.5501 36.3193 21.6094C36.0869 21.6641 35.8932 21.7461 35.7383 21.8555C35.5833 21.9648 35.4671 22.097 35.3897 22.252C35.3122 22.4069 35.2734 22.5824 35.2734 22.7783C35.2734 22.9743 35.319 23.1543 35.4102 23.3184C35.5013 23.4779 35.6335 23.6032 35.8066 23.6943C35.9844 23.7855 36.1986 23.8311 36.4492 23.8311C36.7865 23.8311 37.0804 23.7627 37.3311 23.626C37.5863 23.4847 37.7868 23.3138 37.9326 23.1133C38.0785 22.9082 38.1559 22.7145 38.165 22.5322L38.6982 23.2637C38.6436 23.4505 38.5501 23.651 38.418 23.8652C38.2858 24.0794 38.1126 24.2845 37.8984 24.4805C37.6888 24.6719 37.4359 24.8291 37.1397 24.9521C36.848 25.0752 36.5107 25.1367 36.1279 25.1367C35.6449 25.1367 35.2142 25.041 34.8359 24.8496C34.4577 24.6536 34.1615 24.3916 33.9473 24.0635C33.7331 23.7308 33.626 23.3548 33.626 22.9355C33.626 22.5436 33.6989 22.1973 33.8447 21.8965C33.9951 21.5911 34.2139 21.3359 34.501 21.1309C34.7926 20.9258 35.1481 20.7708 35.5674 20.666C35.9867 20.5566 36.4652 20.502 37.0029 20.502H38.2949ZM43.1869 19.0254V27.8438H41.5395V17.6035H43.057L43.1869 19.0254ZM48.0063 21.2334V21.377C48.0063 21.9147 47.9425 22.4137 47.8148 22.874C47.6918 23.3298 47.5072 23.7285 47.2611 24.0703C47.0196 24.4076 46.7211 24.6696 46.3656 24.8564C46.0102 25.0433 45.6 25.1367 45.1352 25.1367C44.6749 25.1367 44.2716 25.0524 43.9252 24.8838C43.5834 24.7106 43.294 24.4668 43.057 24.1523C42.8201 23.8379 42.6286 23.4688 42.4828 23.0449C42.3415 22.6165 42.2413 22.1471 42.182 21.6367V21.083C42.2413 20.5407 42.3415 20.0485 42.4828 19.6064C42.6286 19.1644 42.8201 18.7839 43.057 18.4648C43.294 18.1458 43.5834 17.8997 43.9252 17.7266C44.267 17.5534 44.6658 17.4668 45.1215 17.4668C45.5863 17.4668 45.9988 17.5579 46.3588 17.7402C46.7188 17.918 47.0219 18.1732 47.268 18.5059C47.5141 18.834 47.6986 19.2305 47.8217 19.6953C47.9447 20.1556 48.0063 20.6683 48.0063 21.2334ZM46.3588 21.377V21.2334C46.3588 20.8916 46.3269 20.5749 46.2631 20.2832C46.1993 19.987 46.099 19.7272 45.9623 19.5039C45.8256 19.2806 45.6501 19.1074 45.4359 18.9844C45.2263 18.8568 44.9734 18.793 44.6772 18.793C44.3855 18.793 44.1348 18.8431 43.9252 18.9434C43.7156 19.0391 43.5401 19.1735 43.3988 19.3467C43.2576 19.5199 43.1482 19.7227 43.0707 19.9551C42.9932 20.1829 42.9385 20.4313 42.9066 20.7002V22.0264C42.9613 22.3545 43.0548 22.6553 43.1869 22.9287C43.3191 23.2021 43.5059 23.4209 43.7475 23.585C43.9936 23.7445 44.308 23.8242 44.6908 23.8242C44.987 23.8242 45.24 23.7604 45.4496 23.6328C45.6592 23.5052 45.8301 23.3298 45.9623 23.1064C46.099 22.8786 46.1993 22.6165 46.2631 22.3203C46.3269 22.0241 46.3588 21.7096 46.3588 21.377ZM52.7684 25.1367C52.2215 25.1367 51.727 25.0479 51.285 24.8701C50.8475 24.6878 50.4738 24.4349 50.1639 24.1113C49.8585 23.7878 49.6238 23.4072 49.4598 22.9697C49.2957 22.5322 49.2137 22.0605 49.2137 21.5547V21.2812C49.2137 20.7025 49.298 20.1784 49.4666 19.709C49.6352 19.2396 49.8699 18.8385 50.1707 18.5059C50.4715 18.1686 50.827 17.9111 51.2371 17.7334C51.6473 17.5557 52.0916 17.4668 52.5701 17.4668C53.0988 17.4668 53.5613 17.5557 53.9578 17.7334C54.3543 17.9111 54.6824 18.1618 54.9422 18.4854C55.2065 18.8044 55.4025 19.1849 55.5301 19.627C55.6622 20.069 55.7283 20.5566 55.7283 21.0898V21.7939H50.0135V20.6113H54.1014V20.4814C54.0923 20.1852 54.033 19.9072 53.9236 19.6475C53.8188 19.3877 53.657 19.1781 53.4383 19.0186C53.2195 18.859 52.9279 18.7793 52.5633 18.7793C52.2898 18.7793 52.046 18.8385 51.8318 18.957C51.6222 19.071 51.4467 19.2373 51.3055 19.4561C51.1642 19.6748 51.0548 19.9391 50.9773 20.249C50.9044 20.5544 50.868 20.8984 50.868 21.2812V21.5547C50.868 21.8783 50.9113 22.179 50.9979 22.457C51.089 22.7305 51.2212 22.9697 51.3943 23.1748C51.5675 23.3799 51.7771 23.5417 52.0232 23.6602C52.2693 23.7741 52.5496 23.8311 52.8641 23.8311C53.2605 23.8311 53.6137 23.7513 53.9236 23.5918C54.2335 23.4323 54.5024 23.2067 54.7303 22.915L55.5984 23.7559C55.4389 23.9883 55.2316 24.2116 54.9764 24.4258C54.7212 24.6354 54.409 24.8063 54.0398 24.9385C53.6753 25.0706 53.2514 25.1367 52.7684 25.1367ZM62.0354 17.6035V18.916H58.8088V25H57.1613V17.6035H62.0354ZM64.7945 22.5938L67.6998 17.6035H69.3473V25H67.6998V20.0029L64.7945 25H63.1471V17.6035H64.7945V22.5938ZM74.2119 23.8242C74.4808 23.8242 74.7223 23.7718 74.9365 23.667C75.1553 23.5576 75.3307 23.4072 75.4629 23.2158C75.5996 23.0244 75.6748 22.8034 75.6885 22.5527H77.2402C77.2311 23.0312 77.0898 23.4665 76.8164 23.8584C76.543 24.2503 76.1807 24.5625 75.7295 24.7949C75.2783 25.0228 74.7793 25.1367 74.2324 25.1367C73.6673 25.1367 73.1751 25.041 72.7559 24.8496C72.3366 24.6536 71.988 24.3848 71.71 24.043C71.432 23.7012 71.2223 23.307 71.0811 22.8604C70.9443 22.4137 70.876 21.9352 70.876 21.4248V21.1855C70.876 20.6751 70.9443 20.1966 71.0811 19.75C71.2223 19.2988 71.432 18.9023 71.71 18.5605C71.988 18.2188 72.3366 17.9521 72.7559 17.7607C73.1751 17.5648 73.665 17.4668 74.2256 17.4668C74.818 17.4668 75.3376 17.5853 75.7842 17.8223C76.2308 18.0547 76.5817 18.3805 76.8369 18.7998C77.0967 19.2145 77.2311 19.6976 77.2402 20.249H75.6885C75.6748 19.9756 75.6064 19.7295 75.4834 19.5107C75.3649 19.2874 75.1963 19.1097 74.9775 18.9775C74.7633 18.8454 74.5059 18.7793 74.2051 18.7793C73.8724 18.7793 73.5967 18.8477 73.3779 18.9844C73.1592 19.1165 72.9883 19.2988 72.8652 19.5312C72.7422 19.7591 72.6533 20.0166 72.5986 20.3037C72.5485 20.5863 72.5234 20.8802 72.5234 21.1855V21.4248C72.5234 21.7301 72.5485 22.0264 72.5986 22.3135C72.6488 22.6006 72.7354 22.8581 72.8584 23.0859C72.986 23.3092 73.1592 23.4893 73.3779 23.626C73.5967 23.7581 73.8747 23.8242 74.2119 23.8242ZM82.0365 17.6035V25H80.3822V17.6035H82.0365ZM84.4633 17.6035V18.9023H77.9965V17.6035H84.4633ZM87.3182 19.0254V27.8438H85.6707V17.6035H87.1883L87.3182 19.0254ZM92.1375 21.2334V21.377C92.1375 21.9147 92.0737 22.4137 91.9461 22.874C91.823 23.3298 91.6385 23.7285 91.3924 24.0703C91.1508 24.4076 90.8523 24.6696 90.4969 24.8564C90.1414 25.0433 89.7313 25.1367 89.2664 25.1367C88.8061 25.1367 88.4028 25.0524 88.0564 24.8838C87.7146 24.7106 87.4253 24.4668 87.1883 24.1523C86.9513 23.8379 86.7599 23.4688 86.6141 23.0449C86.4728 22.6165 86.3725 22.1471 86.3133 21.6367V21.083C86.3725 20.5407 86.4728 20.0485 86.6141 19.6064C86.7599 19.1644 86.9513 18.7839 87.1883 18.4648C87.4253 18.1458 87.7146 17.8997 88.0564 17.7266C88.3982 17.5534 88.797 17.4668 89.2527 17.4668C89.7176 17.4668 90.13 17.5579 90.49 17.7402C90.8501 17.918 91.1531 18.1732 91.3992 18.5059C91.6453 18.834 91.8299 19.2305 91.9529 19.6953C92.076 20.1556 92.1375 20.6683 92.1375 21.2334ZM90.49 21.377V21.2334C90.49 20.8916 90.4581 20.5749 90.3943 20.2832C90.3305 19.987 90.2303 19.7272 90.0936 19.5039C89.9568 19.2806 89.7814 19.1074 89.5672 18.9844C89.3576 18.8568 89.1046 18.793 88.8084 18.793C88.5167 18.793 88.2661 18.8431 88.0564 18.9434C87.8468 19.0391 87.6714 19.1735 87.5301 19.3467C87.3888 19.5199 87.2794 19.7227 87.202 19.9551C87.1245 20.1829 87.0698 20.4313 87.0379 20.7002V22.0264C87.0926 22.3545 87.186 22.6553 87.3182 22.9287C87.4503 23.2021 87.6372 23.4209 87.8787 23.585C88.1248 23.7445 88.4393 23.8242 88.8221 23.8242C89.1183 23.8242 89.3712 23.7604 89.5809 23.6328C89.7905 23.5052 89.9614 23.3298 90.0936 23.1064C90.2303 22.8786 90.3305 22.6165 90.3943 22.3203C90.4581 22.0241 90.49 21.7096 90.49 21.377ZM95.341 22.5938L98.2463 17.6035H99.8938V25H98.2463V20.0029L95.341 25H93.6936V17.6035H95.341V22.5938ZM103.391 19.0254V27.8438H101.744V17.6035H103.261L103.391 19.0254ZM108.211 21.2334V21.377C108.211 21.9147 108.147 22.4137 108.019 22.874C107.896 23.3298 107.712 23.7285 107.465 24.0703C107.224 24.4076 106.925 24.6696 106.57 24.8564C106.214 25.0433 105.804 25.1367 105.339 25.1367C104.879 25.1367 104.476 25.0524 104.129 24.8838C103.788 24.7106 103.498 24.4668 103.261 24.1523C103.024 23.8379 102.833 23.4688 102.687 23.0449C102.546 22.6165 102.446 22.1471 102.386 21.6367V21.083C102.446 20.5407 102.546 20.0485 102.687 19.6064C102.833 19.1644 103.024 18.7839 103.261 18.4648C103.498 18.1458 103.788 17.8997 104.129 17.7266C104.471 17.5534 104.87 17.4668 105.326 17.4668C105.791 17.4668 106.203 17.5579 106.563 17.7402C106.923 17.918 107.226 18.1732 107.472 18.5059C107.718 18.834 107.903 19.2305 108.026 19.6953C108.149 20.1556 108.211 20.6683 108.211 21.2334ZM106.563 21.377V21.2334C106.563 20.8916 106.531 20.5749 106.467 20.2832C106.404 19.987 106.303 19.7272 106.167 19.5039C106.03 19.2806 105.854 19.1074 105.64 18.9844C105.431 18.8568 105.178 18.793 104.881 18.793C104.59 18.793 104.339 18.8431 104.129 18.9434C103.92 19.0391 103.744 19.1735 103.603 19.3467C103.462 19.5199 103.352 19.7227 103.275 19.9551C103.198 20.1829 103.143 20.4313 103.111 20.7002V22.0264C103.166 22.3545 103.259 22.6553 103.391 22.9287C103.523 23.2021 103.71 23.4209 103.952 23.585C104.198 23.7445 104.512 23.8242 104.895 23.8242C105.191 23.8242 105.444 23.7604 105.654 23.6328C105.864 23.5052 106.034 23.3298 106.167 23.1064C106.303 22.8786 106.404 22.6165 106.467 22.3203C106.531 22.0241 106.563 21.7096 106.563 21.377ZM109.397 21.3838V21.2266C109.397 20.6934 109.475 20.1989 109.63 19.7432C109.785 19.2829 110.008 18.8841 110.3 18.5469C110.596 18.2051 110.956 17.9408 111.38 17.7539C111.808 17.5625 112.291 17.4668 112.829 17.4668C113.371 17.4668 113.854 17.5625 114.278 17.7539C114.707 17.9408 115.069 18.2051 115.365 18.5469C115.661 18.8841 115.887 19.2829 116.042 19.7432C116.197 20.1989 116.274 20.6934 116.274 21.2266V21.3838C116.274 21.917 116.197 22.4115 116.042 22.8672C115.887 23.3229 115.661 23.7217 115.365 24.0635C115.069 24.4007 114.709 24.665 114.285 24.8564C113.861 25.0433 113.381 25.1367 112.843 25.1367C112.3 25.1367 111.815 25.0433 111.387 24.8564C110.963 24.665 110.603 24.4007 110.307 24.0635C110.01 23.7217 109.785 23.3229 109.63 22.8672C109.475 22.4115 109.397 21.917 109.397 21.3838ZM111.045 21.2266V21.3838C111.045 21.7165 111.079 22.0309 111.147 22.3271C111.216 22.6234 111.323 22.8831 111.469 23.1064C111.615 23.3298 111.801 23.5052 112.029 23.6328C112.257 23.7604 112.528 23.8242 112.843 23.8242C113.148 23.8242 113.412 23.7604 113.636 23.6328C113.864 23.5052 114.05 23.3298 114.196 23.1064C114.342 22.8831 114.449 22.6234 114.518 22.3271C114.59 22.0309 114.627 21.7165 114.627 21.3838V21.2266C114.627 20.8984 114.59 20.5885 114.518 20.2969C114.449 20.0007 114.34 19.7386 114.189 19.5107C114.044 19.2829 113.857 19.1051 113.629 18.9775C113.406 18.8454 113.139 18.7793 112.829 18.7793C112.519 18.7793 112.25 18.8454 112.022 18.9775C111.799 19.1051 111.615 19.2829 111.469 19.5107C111.323 19.7386 111.216 20.0007 111.147 20.2969C111.079 20.5885 111.045 20.8984 111.045 21.2266ZM121.351 21.835H118.986L118.972 20.6729H120.913C121.232 20.6729 121.495 20.641 121.7 20.5771C121.909 20.5133 122.064 20.4176 122.164 20.29C122.265 20.1579 122.315 19.9984 122.315 19.8115C122.315 19.6566 122.285 19.5221 122.226 19.4082C122.167 19.2897 122.076 19.194 121.953 19.1211C121.834 19.0436 121.684 18.9889 121.501 18.957C121.324 18.9206 121.116 18.9023 120.879 18.9023H119.533V25H117.885V17.6035H120.879C121.353 17.6035 121.779 17.6445 122.158 17.7266C122.54 17.8086 122.866 17.9339 123.135 18.1025C123.404 18.2712 123.609 18.4854 123.75 18.7451C123.896 19.0003 123.969 19.3011 123.969 19.6475C123.969 19.8753 123.919 20.0895 123.819 20.29C123.723 20.4906 123.579 20.6683 123.388 20.8232C123.197 20.9782 122.962 21.1058 122.684 21.2061C122.406 21.3018 122.087 21.361 121.727 21.3838L121.351 21.835ZM121.351 25H118.507L119.163 23.7012H121.351C121.643 23.7012 121.884 23.6647 122.076 23.5918C122.267 23.5189 122.408 23.4141 122.499 23.2773C122.595 23.1361 122.643 22.9697 122.643 22.7783C122.643 22.5824 122.597 22.4137 122.506 22.2725C122.415 22.1312 122.274 22.0241 122.082 21.9512C121.896 21.8737 121.652 21.835 121.351 21.835H119.471L119.485 20.6729H121.72L122.192 21.124C122.661 21.1559 123.051 21.2562 123.361 21.4248C123.671 21.5934 123.903 21.8053 124.058 22.0605C124.213 22.3158 124.29 22.5938 124.29 22.8945C124.29 23.2409 124.224 23.5462 124.092 23.8105C123.965 24.0749 123.773 24.2959 123.518 24.4736C123.267 24.6468 122.96 24.779 122.595 24.8701C122.231 24.9567 121.816 25 121.351 25ZM129.982 23.5166V19.9893C129.982 19.7249 129.934 19.4971 129.839 19.3057C129.743 19.1143 129.597 18.9661 129.401 18.8613C129.21 18.7565 128.968 18.7041 128.677 18.7041C128.408 18.7041 128.175 18.7497 127.979 18.8408C127.783 18.932 127.631 19.055 127.521 19.21C127.412 19.3649 127.357 19.5404 127.357 19.7363H125.717C125.717 19.4447 125.787 19.1621 125.929 18.8887C126.07 18.6152 126.275 18.3714 126.544 18.1572C126.813 17.943 127.134 17.7744 127.508 17.6514C127.881 17.5283 128.301 17.4668 128.765 17.4668C129.321 17.4668 129.814 17.5602 130.242 17.7471C130.675 17.9339 131.014 18.2165 131.261 18.5947C131.511 18.9684 131.637 19.4378 131.637 20.0029V23.291C131.637 23.6283 131.659 23.9313 131.705 24.2002C131.755 24.4645 131.826 24.6947 131.917 24.8906V25H130.228C130.151 24.8223 130.089 24.5967 130.044 24.3232C130.003 24.0452 129.982 23.7764 129.982 23.5166ZM130.221 20.502L130.235 21.5205H129.053C128.747 21.5205 128.478 21.5501 128.246 21.6094C128.013 21.6641 127.82 21.7461 127.665 21.8555C127.51 21.9648 127.394 22.097 127.316 22.252C127.239 22.4069 127.2 22.5824 127.2 22.7783C127.2 22.9743 127.246 23.1543 127.337 23.3184C127.428 23.4779 127.56 23.6032 127.733 23.6943C127.911 23.7855 128.125 23.8311 128.376 23.8311C128.713 23.8311 129.007 23.7627 129.258 23.626C129.513 23.4847 129.713 23.3138 129.859 23.1133C130.005 22.9082 130.082 22.7145 130.092 22.5322L130.625 23.2637C130.57 23.4505 130.477 23.651 130.345 23.8652C130.212 24.0794 130.039 24.2845 129.825 24.4805C129.615 24.6719 129.362 24.8291 129.066 24.9521C128.775 25.0752 128.437 25.1367 128.054 25.1367C127.571 25.1367 127.141 25.041 126.763 24.8496C126.384 24.6536 126.088 24.3916 125.874 24.0635C125.66 23.7308 125.553 23.3548 125.553 22.9355C125.553 22.5436 125.625 22.1973 125.771 21.8965C125.922 21.5911 126.14 21.3359 126.428 21.1309C126.719 20.9258 127.075 20.7708 127.494 20.666C127.913 20.5566 128.392 20.502 128.929 20.502H130.221ZM136.781 17.6035V25H135.127V17.6035H136.781ZM139.208 17.6035V18.9023H132.741V17.6035H139.208ZM141.632 19.9551H143.813C144.451 19.9551 144.993 20.0622 145.44 20.2764C145.887 20.4906 146.226 20.7891 146.459 21.1719C146.696 21.5501 146.814 21.9831 146.814 22.4707C146.814 22.8307 146.748 23.1657 146.616 23.4756C146.484 23.7809 146.288 24.0475 146.028 24.2754C145.773 24.5033 145.458 24.681 145.085 24.8086C144.715 24.9362 144.292 25 143.813 25H140.539V17.6035H142.193V23.6943H143.813C144.141 23.6943 144.403 23.6374 144.599 23.5234C144.795 23.4095 144.936 23.2614 145.023 23.0791C145.114 22.8968 145.16 22.7031 145.16 22.498C145.16 22.2884 145.114 22.0902 145.023 21.9033C144.936 21.7165 144.795 21.5638 144.599 21.4453C144.403 21.3268 144.141 21.2676 143.813 21.2676H141.632V19.9551ZM151.255 23.8242C151.524 23.8242 151.765 23.7718 151.979 23.667C152.198 23.5576 152.374 23.4072 152.506 23.2158C152.643 23.0244 152.718 22.8034 152.731 22.5527H154.283C154.274 23.0312 154.133 23.4665 153.859 23.8584C153.586 24.2503 153.224 24.5625 152.772 24.7949C152.321 25.0228 151.822 25.1367 151.275 25.1367C150.71 25.1367 150.218 25.041 149.799 24.8496C149.38 24.6536 149.031 24.3848 148.753 24.043C148.475 23.7012 148.265 23.307 148.124 22.8604C147.987 22.4137 147.919 21.9352 147.919 21.4248V21.1855C147.919 20.6751 147.987 20.1966 148.124 19.75C148.265 19.2988 148.475 18.9023 148.753 18.5605C149.031 18.2188 149.38 17.9521 149.799 17.7607C150.218 17.5648 150.708 17.4668 151.269 17.4668C151.861 17.4668 152.381 17.5853 152.827 17.8223C153.274 18.0547 153.625 18.3805 153.88 18.7998C154.14 19.2145 154.274 19.6976 154.283 20.249H152.731C152.718 19.9756 152.649 19.7295 152.526 19.5107C152.408 19.2874 152.239 19.1097 152.021 18.9775C151.806 18.8454 151.549 18.7793 151.248 18.7793C150.915 18.7793 150.64 18.8477 150.421 18.9844C150.202 19.1165 150.031 19.2988 149.908 19.5312C149.785 19.7591 149.696 20.0166 149.642 20.3037C149.591 20.5863 149.566 20.8802 149.566 21.1855V21.4248C149.566 21.7301 149.591 22.0264 149.642 22.3135C149.692 22.6006 149.778 22.8581 149.901 23.0859C150.029 23.3092 150.202 23.4893 150.421 23.626C150.64 23.7581 150.918 23.8242 151.255 23.8242ZM157.206 21.3838H158.915L156.817 25H155.115L157.206 21.3838ZM158.41 17.6035H161.581V25H159.941V18.9023H158.41C158.1 18.9023 157.844 18.957 157.644 19.0664C157.443 19.1712 157.295 19.3102 157.2 19.4834C157.104 19.652 157.056 19.8252 157.056 20.0029C157.056 20.1807 157.099 20.3516 157.186 20.5156C157.277 20.6797 157.416 20.8141 157.603 20.9189C157.794 21.0238 158.034 21.0762 158.321 21.0762H160.495V22.2793H158.321C157.865 22.2793 157.457 22.2223 157.097 22.1084C156.737 21.9899 156.432 21.8281 156.181 21.623C155.93 21.4134 155.739 21.1696 155.607 20.8916C155.475 20.609 155.409 20.3014 155.409 19.9688C155.409 19.627 155.477 19.3125 155.614 19.0254C155.75 18.7383 155.946 18.4876 156.202 18.2734C156.461 18.0592 156.776 17.8952 157.145 17.7812C157.519 17.6628 157.94 17.6035 158.41 17.6035Z" fill="white"/>
</g>
<defs>
<clipPath id="clip0_140_346">
<rect width="187" height="40" rx="20" fill="white"/>
</clipPath>
</defs>
</svg>
