<svg width="134" height="40" viewBox="0 0 134 40" fill="none" xmlns="http://www.w3.org/2000/svg">
<g clip-path="url(#clip0_138_337)">
<rect width="134" height="40" fill="#6750A4" fill-opacity="0.08"/>
<path d="M29.2373 21.2881H26.6465V19.9277H29.2373C29.6885 19.9277 30.0531 19.8548 30.3311 19.709C30.609 19.5632 30.8118 19.3626 30.9395 19.1074C31.0716 18.8477 31.1377 18.5514 31.1377 18.2188C31.1377 17.9043 31.0716 17.6104 30.9395 17.3369C30.8118 17.0589 30.609 16.8356 30.3311 16.667C30.0531 16.4984 29.6885 16.4141 29.2373 16.4141H27.1729V25H25.457V15.0469H29.2373C30.0075 15.0469 30.6615 15.1836 31.1992 15.457C31.7415 15.7259 32.154 16.0996 32.4365 16.5781C32.7191 17.0521 32.8604 17.5944 32.8604 18.2051C32.8604 18.8477 32.7191 19.3991 32.4365 19.8594C32.154 20.3197 31.7415 20.6729 31.1992 20.9189C30.6615 21.165 30.0075 21.2881 29.2373 21.2881ZM37.4994 25.1367C36.9525 25.1367 36.4581 25.0479 36.016 24.8701C35.5785 24.6878 35.2048 24.4349 34.8949 24.1113C34.5896 23.7878 34.3549 23.4072 34.1908 22.9697C34.0268 22.5322 33.9447 22.0605 33.9447 21.5547V21.2812C33.9447 20.7025 34.029 20.1784 34.1977 19.709C34.3663 19.2396 34.601 18.8385 34.9018 18.5059C35.2025 18.1686 35.558 17.9111 35.9682 17.7334C36.3783 17.5557 36.8227 17.4668 37.3012 17.4668C37.8298 17.4668 38.2924 17.5557 38.6889 17.7334C39.0854 17.9111 39.4135 18.1618 39.6732 18.4854C39.9376 18.8044 40.1335 19.1849 40.2611 19.627C40.3933 20.069 40.4594 20.5566 40.4594 21.0898V21.7939H34.7445V20.6113H38.8324V20.4814C38.8233 20.1852 38.7641 19.9072 38.6547 19.6475C38.5499 19.3877 38.3881 19.1781 38.1693 19.0186C37.9506 18.859 37.6589 18.7793 37.2943 18.7793C37.0209 18.7793 36.7771 18.8385 36.5629 18.957C36.3533 19.071 36.1778 19.2373 36.0365 19.4561C35.8952 19.6748 35.7859 19.9391 35.7084 20.249C35.6355 20.5544 35.599 20.8984 35.599 21.2812V21.5547C35.599 21.8783 35.6423 22.179 35.7289 22.457C35.8201 22.7305 35.9522 22.9697 36.1254 23.1748C36.2986 23.3799 36.5082 23.5417 36.7543 23.6602C37.0004 23.7741 37.2807 23.8311 37.5951 23.8311C37.9916 23.8311 38.3448 23.7513 38.6547 23.5918C38.9646 23.4323 39.2335 23.2067 39.4613 22.915L40.3295 23.7559C40.17 23.9883 39.9626 24.2116 39.7074 24.4258C39.4522 24.6354 39.14 24.8063 38.7709 24.9385C38.4063 25.0706 37.9825 25.1367 37.4994 25.1367ZM46.7664 17.6035V18.916H43.5398V25H41.8924V17.6035H46.7664ZM49.5256 22.5938L52.4309 17.6035H54.0783V25H52.4309V20.0029L49.5256 25H47.8781V17.6035H49.5256V22.5938ZM58.943 23.8242C59.2118 23.8242 59.4534 23.7718 59.6676 23.667C59.8863 23.5576 60.0618 23.4072 60.1939 23.2158C60.3307 23.0244 60.4059 22.8034 60.4195 22.5527H61.9713C61.9622 23.0312 61.8209 23.4665 61.5475 23.8584C61.274 24.2503 60.9117 24.5625 60.4605 24.7949C60.0094 25.0228 59.5104 25.1367 58.9635 25.1367C58.3984 25.1367 57.9062 25.041 57.4869 24.8496C57.0676 24.6536 56.719 24.3848 56.441 24.043C56.163 23.7012 55.9534 23.307 55.8121 22.8604C55.6754 22.4137 55.607 21.9352 55.607 21.4248V21.1855C55.607 20.6751 55.6754 20.1966 55.8121 19.75C55.9534 19.2988 56.163 18.9023 56.441 18.5605C56.719 18.2188 57.0676 17.9521 57.4869 17.7607C57.9062 17.5648 58.3961 17.4668 58.9566 17.4668C59.5491 17.4668 60.0686 17.5853 60.5152 17.8223C60.9618 18.0547 61.3128 18.3805 61.568 18.7998C61.8277 19.2145 61.9622 19.6976 61.9713 20.249H60.4195C60.4059 19.9756 60.3375 19.7295 60.2145 19.5107C60.096 19.2874 59.9273 19.1097 59.7086 18.9775C59.4944 18.8454 59.2369 18.7793 58.9361 18.7793C58.6035 18.7793 58.3277 18.8477 58.109 18.9844C57.8902 19.1165 57.7193 19.2988 57.5963 19.5312C57.4732 19.7591 57.3844 20.0166 57.3297 20.3037C57.2796 20.5863 57.2545 20.8802 57.2545 21.1855V21.4248C57.2545 21.7301 57.2796 22.0264 57.3297 22.3135C57.3798 22.6006 57.4664 22.8581 57.5895 23.0859C57.7171 23.3092 57.8902 23.4893 58.109 23.626C58.3277 23.7581 58.6057 23.8242 58.943 23.8242ZM66.7676 17.6035V25H65.1133V17.6035H66.7676ZM69.1943 17.6035V18.9023H62.7275V17.6035H69.1943ZM72.0492 19.0254V27.8438H70.4018V17.6035H71.9193L72.0492 19.0254ZM76.8686 21.2334V21.377C76.8686 21.9147 76.8048 22.4137 76.6771 22.874C76.5541 23.3298 76.3695 23.7285 76.1234 24.0703C75.8819 24.4076 75.5834 24.6696 75.2279 24.8564C74.8725 25.0433 74.4623 25.1367 73.9975 25.1367C73.5372 25.1367 73.1339 25.0524 72.7875 24.8838C72.4457 24.7106 72.1563 24.4668 71.9193 24.1523C71.6824 23.8379 71.4909 23.4688 71.3451 23.0449C71.2038 22.6165 71.1036 22.1471 71.0443 21.6367V21.083C71.1036 20.5407 71.2038 20.0485 71.3451 19.6064C71.4909 19.1644 71.6824 18.7839 71.9193 18.4648C72.1563 18.1458 72.4457 17.8997 72.7875 17.7266C73.1293 17.5534 73.5281 17.4668 73.9838 17.4668C74.4486 17.4668 74.8611 17.5579 75.2211 17.7402C75.5811 17.918 75.8842 18.1732 76.1303 18.5059C76.3764 18.834 76.5609 19.2305 76.684 19.6953C76.807 20.1556 76.8686 20.6683 76.8686 21.2334ZM75.2211 21.377V21.2334C75.2211 20.8916 75.1892 20.5749 75.1254 20.2832C75.0616 19.987 74.9613 19.7272 74.8246 19.5039C74.6879 19.2806 74.5124 19.1074 74.2982 18.9844C74.0886 18.8568 73.8357 18.793 73.5395 18.793C73.2478 18.793 72.9971 18.8431 72.7875 18.9434C72.5779 19.0391 72.4024 19.1735 72.2611 19.3467C72.1199 19.5199 72.0105 19.7227 71.933 19.9551C71.8555 20.1829 71.8008 20.4313 71.7689 20.7002V22.0264C71.8236 22.3545 71.9171 22.6553 72.0492 22.9287C72.1814 23.2021 72.3682 23.4209 72.6098 23.585C72.8559 23.7445 73.1703 23.8242 73.5531 23.8242C73.8493 23.8242 74.1023 23.7604 74.3119 23.6328C74.5215 23.5052 74.6924 23.3298 74.8246 23.1064C74.9613 22.8786 75.0616 22.6165 75.1254 22.3203C75.1892 22.0241 75.2211 21.7096 75.2211 21.377ZM82.5398 23.5166V19.9893C82.5398 19.7249 82.492 19.4971 82.3963 19.3057C82.3006 19.1143 82.1548 18.9661 81.9588 18.8613C81.7674 18.7565 81.5258 18.7041 81.2342 18.7041C80.9653 18.7041 80.7329 18.7497 80.5369 18.8408C80.341 18.932 80.1883 19.055 80.0789 19.21C79.9695 19.3649 79.9148 19.5404 79.9148 19.7363H78.2742C78.2742 19.4447 78.3449 19.1621 78.4861 18.8887C78.6274 18.6152 78.8325 18.3714 79.1014 18.1572C79.3702 17.943 79.6915 17.7744 80.0652 17.6514C80.4389 17.5283 80.8582 17.4668 81.323 17.4668C81.879 17.4668 82.3712 17.5602 82.7996 17.7471C83.2326 17.9339 83.5721 18.2165 83.8182 18.5947C84.0688 18.9684 84.1941 19.4378 84.1941 20.0029V23.291C84.1941 23.6283 84.2169 23.9313 84.2625 24.2002C84.3126 24.4645 84.3833 24.6947 84.4744 24.8906V25H82.7859C82.7085 24.8223 82.6469 24.5967 82.6014 24.3232C82.5604 24.0452 82.5398 23.7764 82.5398 23.5166ZM82.7791 20.502L82.7928 21.5205H81.6102C81.3048 21.5205 81.0359 21.5501 80.8035 21.6094C80.5711 21.6641 80.3774 21.7461 80.2225 21.8555C80.0675 21.9648 79.9513 22.097 79.8738 22.252C79.7964 22.4069 79.7576 22.5824 79.7576 22.7783C79.7576 22.9743 79.8032 23.1543 79.8943 23.3184C79.9855 23.4779 80.1176 23.6032 80.2908 23.6943C80.4686 23.7855 80.6827 23.8311 80.9334 23.8311C81.2706 23.8311 81.5646 23.7627 81.8152 23.626C82.0704 23.4847 82.271 23.3138 82.4168 23.1133C82.5626 22.9082 82.6401 22.7145 82.6492 22.5322L83.1824 23.2637C83.1277 23.4505 83.0343 23.651 82.9021 23.8652C82.77 24.0794 82.5968 24.2845 82.3826 24.4805C82.173 24.6719 81.9201 24.8291 81.6238 24.9521C81.3322 25.0752 80.9949 25.1367 80.6121 25.1367C80.129 25.1367 79.6984 25.041 79.3201 24.8496C78.9419 24.6536 78.6456 24.3916 78.4314 24.0635C78.2173 23.7308 78.1102 23.3548 78.1102 22.9355C78.1102 22.5436 78.1831 22.1973 78.3289 21.8965C78.4793 21.5911 78.698 21.3359 78.9852 21.1309C79.2768 20.9258 79.6323 20.7708 80.0516 20.666C80.4708 20.5566 80.9493 20.502 81.4871 20.502H82.7791ZM86.0715 25V17.6035H87.7189V23.6875H90.6174V17.6035H92.2717V25H86.0715ZM93.2766 23.6943L93.1467 27.1943H91.6359V25H90.7473V23.6943H93.2766ZM96.2408 22.5938L99.1461 17.6035H100.794V25H99.1461V20.0029L96.2408 25H94.5934V17.6035H96.2408V22.5938ZM104.195 21.3838H105.904L103.806 25H102.104L104.195 21.3838ZM105.398 17.6035H108.57V25H106.93V18.9023H105.398C105.089 18.9023 104.833 18.957 104.633 19.0664C104.432 19.1712 104.284 19.3102 104.188 19.4834C104.093 19.652 104.045 19.8252 104.045 20.0029C104.045 20.1807 104.088 20.3516 104.175 20.5156C104.266 20.6797 104.405 20.8141 104.592 20.9189C104.783 21.0238 105.022 21.0762 105.31 21.0762H107.483V22.2793H105.31C104.854 22.2793 104.446 22.2223 104.086 22.1084C103.726 21.9899 103.421 21.8281 103.17 21.623C102.919 21.4134 102.728 21.1696 102.596 20.8916C102.464 20.609 102.397 20.3014 102.397 19.9688C102.397 19.627 102.466 19.3125 102.603 19.0254C102.739 18.7383 102.935 18.4876 103.19 18.2734C103.45 18.0592 103.765 17.8952 104.134 17.7812C104.507 17.6628 104.929 17.6035 105.398 17.6035Z" fill="#6750A4"/>
</g>
<rect x="0.5" y="0.5" width="133" height="39" rx="19.5" stroke="#79747E"/>
<defs>
<clipPath id="clip0_138_337">
<rect width="134" height="40" rx="20" fill="white"/>
</clipPath>
</defs>
</svg>
