<svg width="146" height="40" viewBox="0 0 146 40" fill="none" xmlns="http://www.w3.org/2000/svg">
<g clip-path="url(#clip0_157_342)">
<rect width="146" height="40" rx="20" fill="#6750A4"/>
<rect width="146" height="40" fill="white" fill-opacity="0.12"/>
<path d="M32.943 15.0469V25H31.234V16.4141H26.8111V25H25.1021V15.0469H32.943ZM34.6289 21.3838V21.2266C34.6289 20.6934 34.7064 20.1989 34.8613 19.7432C35.0163 19.2829 35.2396 18.8841 35.5313 18.5469C35.8275 18.2051 36.1875 17.9408 36.6113 17.7539C37.0397 17.5625 37.5228 17.4668 38.0605 17.4668C38.6029 17.4668 39.0859 17.5625 39.5098 17.7539C39.9382 17.9408 40.3005 18.2051 40.5967 18.5469C40.8929 18.8841 41.1185 19.2829 41.2734 19.7432C41.4284 20.1989 41.5059 20.6934 41.5059 21.2266V21.3838C41.5059 21.917 41.4284 22.4115 41.2734 22.8672C41.1185 23.3229 40.8929 23.7217 40.5967 24.0635C40.3005 24.4007 39.9404 24.665 39.5166 24.8564C39.0928 25.0433 38.612 25.1367 38.0742 25.1367C37.5319 25.1367 37.0466 25.0433 36.6182 24.8564C36.1943 24.665 35.8343 24.4007 35.5381 24.0635C35.2419 23.7217 35.0163 23.3229 34.8613 22.8672C34.7064 22.4115 34.6289 21.917 34.6289 21.3838ZM36.2764 21.2266V21.3838C36.2764 21.7165 36.3105 22.0309 36.3789 22.3271C36.4473 22.6234 36.5544 22.8831 36.7002 23.1064C36.846 23.3298 37.0329 23.5052 37.2607 23.6328C37.4886 23.7604 37.7598 23.8242 38.0742 23.8242C38.3796 23.8242 38.6439 23.7604 38.8672 23.6328C39.0951 23.5052 39.2819 23.3298 39.4277 23.1064C39.5736 22.8831 39.6807 22.6234 39.749 22.3271C39.8219 22.0309 39.8584 21.7165 39.8584 21.3838V21.2266C39.8584 20.8984 39.8219 20.5885 39.749 20.2969C39.6807 20.0007 39.5713 19.7386 39.4209 19.5107C39.2751 19.2829 39.0882 19.1051 38.8604 18.9775C38.637 18.8454 38.3704 18.7793 38.0605 18.7793C37.7507 18.7793 37.4818 18.8454 37.2539 18.9775C37.0306 19.1051 36.846 19.2829 36.7002 19.5107C36.5544 19.7386 36.4473 20.0007 36.3789 20.2969C36.3105 20.5885 36.2764 20.8984 36.2764 21.2266ZM43.8344 17.6035H45.4818L45.3998 20.208C45.377 20.9645 45.2904 21.6139 45.14 22.1562C44.9897 22.6986 44.7937 23.1566 44.5522 23.5303C44.3106 23.8994 44.0372 24.2025 43.7318 24.4395C43.4311 24.6764 43.1143 24.8633 42.7816 25H42.2963V23.7012L42.5287 23.6875C42.7247 23.4779 42.8933 23.2682 43.0346 23.0586C43.1804 22.8444 43.3035 22.6097 43.4037 22.3545C43.504 22.0947 43.5814 21.7917 43.6361 21.4453C43.6954 21.099 43.7341 20.6865 43.7523 20.208L43.8344 17.6035ZM44.2719 17.6035H48.9613V25H47.3207V18.998H44.2719V17.6035ZM41.9203 23.6875H49.973V27.2012H48.3256V25H43.5883V27.2012H41.9135L41.9203 23.6875ZM55.4188 23.5166V19.9893C55.4188 19.7249 55.3709 19.4971 55.2752 19.3057C55.1795 19.1143 55.0337 18.9661 54.8377 18.8613C54.6463 18.7565 54.4048 18.7041 54.1131 18.7041C53.8442 18.7041 53.6118 18.7497 53.4158 18.8408C53.2199 18.932 53.0672 19.055 52.9578 19.21C52.8484 19.3649 52.7938 19.5404 52.7938 19.7363H51.1531C51.1531 19.4447 51.2238 19.1621 51.365 18.8887C51.5063 18.6152 51.7114 18.3714 51.9803 18.1572C52.2492 17.943 52.5704 17.7744 52.9441 17.6514C53.3178 17.5283 53.7371 17.4668 54.202 17.4668C54.7579 17.4668 55.2501 17.5602 55.6785 17.7471C56.1115 17.9339 56.451 18.2165 56.6971 18.5947C56.9477 18.9684 57.073 19.4378 57.073 20.0029V23.291C57.073 23.6283 57.0958 23.9313 57.1414 24.2002C57.1915 24.4645 57.2622 24.6947 57.3533 24.8906V25H55.6648C55.5874 24.8223 55.5258 24.5967 55.4803 24.3232C55.4393 24.0452 55.4188 23.7764 55.4188 23.5166ZM55.658 20.502L55.6717 21.5205H54.4891C54.1837 21.5205 53.9148 21.5501 53.6824 21.6094C53.45 21.6641 53.2563 21.7461 53.1014 21.8555C52.9464 21.9648 52.8302 22.097 52.7527 22.252C52.6753 22.4069 52.6365 22.5824 52.6365 22.7783C52.6365 22.9743 52.6821 23.1543 52.7732 23.3184C52.8644 23.4779 52.9966 23.6032 53.1697 23.6943C53.3475 23.7855 53.5617 23.8311 53.8123 23.8311C54.1495 23.8311 54.4435 23.7627 54.6941 23.626C54.9493 23.4847 55.1499 23.3138 55.2957 23.1133C55.4415 22.9082 55.519 22.7145 55.5281 22.5322L56.0613 23.2637C56.0066 23.4505 55.9132 23.651 55.7811 23.8652C55.6489 24.0794 55.4757 24.2845 55.2615 24.4805C55.0519 24.6719 54.799 24.8291 54.5027 24.9521C54.2111 25.0752 53.8738 25.1367 53.491 25.1367C53.0079 25.1367 52.5773 25.041 52.199 24.8496C51.8208 24.6536 51.5245 24.3916 51.3104 24.0635C51.0962 23.7308 50.9891 23.3548 50.9891 22.9355C50.9891 22.5436 51.062 22.1973 51.2078 21.8965C51.3582 21.5911 51.577 21.3359 51.8641 21.1309C52.1557 20.9258 52.5112 20.7708 52.9305 20.666C53.3497 20.5566 53.8283 20.502 54.366 20.502H55.658ZM62.218 17.6035V25H60.5637V17.6035H62.218ZM64.6447 17.6035V18.9023H58.1779V17.6035H64.6447ZM67.0689 19.9551H69.2496C69.8876 19.9551 70.4299 20.0622 70.8766 20.2764C71.3232 20.4906 71.6627 20.7891 71.8951 21.1719C72.1321 21.5501 72.2506 21.9831 72.2506 22.4707C72.2506 22.8307 72.1845 23.1657 72.0523 23.4756C71.9202 23.7809 71.7242 24.0475 71.4645 24.2754C71.2092 24.5033 70.8948 24.681 70.5211 24.8086C70.152 24.9362 69.7281 25 69.2496 25H65.9752V17.6035H67.6295V23.6943H69.2496C69.5777 23.6943 69.8398 23.6374 70.0357 23.5234C70.2317 23.4095 70.373 23.2614 70.4596 23.0791C70.5507 22.8968 70.5963 22.7031 70.5963 22.498C70.5963 22.2884 70.5507 22.0902 70.4596 21.9033C70.373 21.7165 70.2317 21.5638 70.0357 21.4453C69.8398 21.3268 69.5777 21.2676 69.2496 21.2676H67.0689V19.9551ZM80.3188 21.4658H78.8969V20.6318H80.0453C80.337 20.6318 80.5694 20.5931 80.7426 20.5156C80.9203 20.4382 81.0456 20.3311 81.1186 20.1943C81.196 20.0531 81.2348 19.889 81.2348 19.7021C81.2348 19.5381 81.196 19.3831 81.1186 19.2373C81.0456 19.0869 80.9203 18.9639 80.7426 18.8682C80.5648 18.7725 80.3233 18.7246 80.018 18.7246C79.7673 18.7246 79.5417 18.7656 79.3412 18.8477C79.1452 18.9297 78.9903 19.0436 78.8764 19.1895C78.7624 19.3353 78.7055 19.5039 78.7055 19.6953H77.058C77.058 19.235 77.1879 18.8385 77.4477 18.5059C77.712 18.1732 78.0652 17.918 78.5072 17.7402C78.9493 17.5625 79.4346 17.4736 79.9633 17.4736C80.4145 17.4736 80.8201 17.5215 81.1801 17.6172C81.5401 17.7083 81.8454 17.8451 82.0961 18.0273C82.3513 18.2051 82.545 18.4284 82.6772 18.6973C82.8139 18.9616 82.8822 19.2692 82.8822 19.6201C82.8822 19.8708 82.823 20.1077 82.7045 20.3311C82.586 20.5544 82.4151 20.7526 82.1918 20.9258C81.9685 21.0944 81.6973 21.2266 81.3783 21.3223C81.0639 21.418 80.7107 21.4658 80.3188 21.4658ZM78.8969 20.9873H80.3188C80.7563 20.9873 81.1436 21.0306 81.4809 21.1172C81.8181 21.1992 82.1007 21.3223 82.3285 21.4863C82.5564 21.6504 82.7273 21.8532 82.8412 22.0947C82.9597 22.3317 83.0189 22.6051 83.0189 22.915C83.0189 23.2614 82.9438 23.5736 82.7934 23.8516C82.6475 24.125 82.4379 24.3574 82.1645 24.5488C81.8956 24.7402 81.5743 24.8861 81.2006 24.9863C80.8269 25.0866 80.4145 25.1367 79.9633 25.1367C79.4711 25.1367 78.9926 25.0547 78.5277 24.8906C78.0675 24.7266 77.6869 24.4736 77.3861 24.1318C77.0899 23.7855 76.9418 23.3457 76.9418 22.8125H78.5893C78.5893 22.9993 78.6462 23.1748 78.7602 23.3389C78.8741 23.5029 79.0382 23.6374 79.2523 23.7422C79.4665 23.8424 79.724 23.8926 80.0248 23.8926C80.3347 23.8926 80.5876 23.8447 80.7836 23.749C80.9796 23.6488 81.1254 23.5189 81.2211 23.3594C81.3168 23.1953 81.3647 23.0221 81.3647 22.8398C81.3647 22.5938 81.3168 22.3955 81.2211 22.2451C81.1254 22.0947 80.9796 21.9854 80.7836 21.917C80.5876 21.8441 80.3415 21.8076 80.0453 21.8076H78.8969V20.9873ZM88.6902 23.5166V19.9893C88.6902 19.7249 88.6424 19.4971 88.5467 19.3057C88.451 19.1143 88.3051 18.9661 88.1092 18.8613C87.9178 18.7565 87.6762 18.7041 87.3846 18.7041C87.1157 18.7041 86.8833 18.7497 86.6873 18.8408C86.4913 18.932 86.3387 19.055 86.2293 19.21C86.1199 19.3649 86.0652 19.5404 86.0652 19.7363H84.4246C84.4246 19.4447 84.4952 19.1621 84.6365 18.8887C84.7778 18.6152 84.9829 18.3714 85.2518 18.1572C85.5206 17.943 85.8419 17.7744 86.2156 17.6514C86.5893 17.5283 87.0086 17.4668 87.4734 17.4668C88.0294 17.4668 88.5216 17.5602 88.95 17.7471C89.3829 17.9339 89.7225 18.2165 89.9686 18.5947C90.2192 18.9684 90.3445 19.4378 90.3445 20.0029V23.291C90.3445 23.6283 90.3673 23.9313 90.4129 24.2002C90.463 24.4645 90.5337 24.6947 90.6248 24.8906V25H88.9363C88.8589 24.8223 88.7973 24.5967 88.7518 24.3232C88.7107 24.0452 88.6902 23.7764 88.6902 23.5166ZM88.9295 20.502L88.9432 21.5205H87.7605C87.4552 21.5205 87.1863 21.5501 86.9539 21.6094C86.7215 21.6641 86.5278 21.7461 86.3729 21.8555C86.2179 21.9648 86.1017 22.097 86.0242 22.252C85.9467 22.4069 85.908 22.5824 85.908 22.7783C85.908 22.9743 85.9536 23.1543 86.0447 23.3184C86.1359 23.4779 86.268 23.6032 86.4412 23.6943C86.6189 23.7855 86.8331 23.8311 87.0838 23.8311C87.421 23.8311 87.715 23.7627 87.9656 23.626C88.2208 23.4847 88.4214 23.3138 88.5672 23.1133C88.713 22.9082 88.7905 22.7145 88.7996 22.5322L89.3328 23.2637C89.2781 23.4505 89.1847 23.651 89.0525 23.8652C88.9204 24.0794 88.7472 24.2845 88.533 24.4805C88.3234 24.6719 88.0704 24.8291 87.7742 24.9521C87.4826 25.0752 87.1453 25.1367 86.7625 25.1367C86.2794 25.1367 85.8488 25.041 85.4705 24.8496C85.0923 24.6536 84.796 24.3916 84.5818 24.0635C84.3676 23.7308 84.2605 23.3548 84.2605 22.9355C84.2605 22.5436 84.3335 22.1973 84.4793 21.8965C84.6297 21.5911 84.8484 21.3359 85.1355 21.1309C85.4272 20.9258 85.7827 20.7708 86.202 20.666C86.6212 20.5566 87.0997 20.502 87.6375 20.502H88.9295ZM93.7258 21.3838H95.4348L93.3361 25H91.634L93.7258 21.3838ZM94.9289 17.6035H98.1008V25H96.4602V18.9023H94.9289C94.619 18.9023 94.3638 18.957 94.1633 19.0664C93.9628 19.1712 93.8147 19.3102 93.7189 19.4834C93.6232 19.652 93.5754 19.8252 93.5754 20.0029C93.5754 20.1807 93.6187 20.3516 93.7053 20.5156C93.7964 20.6797 93.9354 20.8141 94.1223 20.9189C94.3137 21.0238 94.5529 21.0762 94.84 21.0762H97.0139V22.2793H94.84C94.3843 22.2793 93.9764 22.2223 93.6164 22.1084C93.2564 21.9899 92.951 21.8281 92.7004 21.623C92.4497 21.4134 92.2583 21.1696 92.1262 20.8916C91.994 20.609 91.9279 20.3014 91.9279 19.9688C91.9279 19.627 91.9963 19.3125 92.133 19.0254C92.2697 18.7383 92.4657 18.4876 92.7209 18.2734C92.9807 18.0592 93.2951 17.8952 93.6643 17.7812C94.038 17.6628 94.4595 17.6035 94.9289 17.6035ZM103.629 21.835H101.263L101.25 20.6729H103.191C103.51 20.6729 103.772 20.641 103.977 20.5771C104.187 20.5133 104.342 20.4176 104.442 20.29C104.542 20.1579 104.592 19.9984 104.592 19.8115C104.592 19.6566 104.563 19.5221 104.504 19.4082C104.444 19.2897 104.353 19.194 104.23 19.1211C104.112 19.0436 103.961 18.9889 103.779 18.957C103.601 18.9206 103.394 18.9023 103.157 18.9023H101.81V25H100.163V17.6035H103.157C103.631 17.6035 104.057 17.6445 104.435 17.7266C104.818 17.8086 105.144 17.9339 105.413 18.1025C105.682 18.2712 105.887 18.4854 106.028 18.7451C106.174 19.0003 106.247 19.3011 106.247 19.6475C106.247 19.8753 106.197 20.0895 106.096 20.29C106.001 20.4906 105.857 20.6683 105.666 20.8232C105.474 20.9782 105.24 21.1058 104.962 21.2061C104.684 21.3018 104.365 21.361 104.004 21.3838L103.629 21.835ZM103.629 25H100.785L101.441 23.7012H103.629C103.92 23.7012 104.162 23.6647 104.353 23.5918C104.545 23.5189 104.686 23.4141 104.777 23.2773C104.873 23.1361 104.921 22.9697 104.921 22.7783C104.921 22.5824 104.875 22.4137 104.784 22.2725C104.693 22.1312 104.551 22.0241 104.36 21.9512C104.173 21.8737 103.929 21.835 103.629 21.835H101.749L101.762 20.6729H103.998L104.469 21.124C104.939 21.1559 105.328 21.2562 105.638 21.4248C105.948 21.5934 106.181 21.8053 106.336 22.0605C106.49 22.3158 106.568 22.5938 106.568 22.8945C106.568 23.2409 106.502 23.5462 106.37 23.8105C106.242 24.0749 106.051 24.2959 105.796 24.4736C105.545 24.6468 105.237 24.779 104.873 24.8701C104.508 24.9567 104.093 25 103.629 25ZM109.867 17.6035V25H108.22V17.6035H109.867ZM114.693 17.6035L111.364 22.0537H109.484L109.266 20.5635H110.64L112.636 17.6035H114.693ZM112.766 25L110.537 21.7734L111.836 20.8369L114.933 25H112.766ZM118.075 24.1934L120.084 17.6035H121.848L118.881 26.1279C118.813 26.3102 118.724 26.5085 118.615 26.7227C118.505 26.9368 118.362 27.1396 118.184 27.3311C118.011 27.527 117.794 27.6842 117.535 27.8027C117.275 27.9258 116.96 27.9873 116.591 27.9873C116.445 27.9873 116.304 27.9736 116.167 27.9463C116.035 27.9235 115.91 27.8984 115.791 27.8711L115.785 26.6133C115.83 26.6178 115.885 26.6224 115.949 26.627C116.017 26.6315 116.072 26.6338 116.113 26.6338C116.386 26.6338 116.614 26.5996 116.796 26.5312C116.979 26.4674 117.127 26.3626 117.241 26.2168C117.359 26.071 117.459 25.875 117.541 25.6289L118.075 24.1934ZM116.94 17.6035L118.697 23.1406L118.991 24.877L117.849 25.1709L115.162 17.6035H116.94Z" fill="white"/>
</g>
<defs>
<clipPath id="clip0_157_342">
<rect width="146" height="40" rx="20" fill="white"/>
</clipPath>
</defs>
</svg>
