<svg width="97" height="40" viewBox="0 0 97 40" fill="none" xmlns="http://www.w3.org/2000/svg">
<g clip-path="url(#clip0_147_340)">
<rect width="97" height="40" rx="20" fill="#6750A4"/>
<rect width="97" height="40" fill="white" fill-opacity="0.12"/>
<path d="M28.918 20.2285H27.5371V19.251H28.7266C29.1504 19.251 29.4945 19.1895 29.7588 19.0664C30.0231 18.9388 30.2145 18.7633 30.333 18.54C30.4561 18.3122 30.5176 18.0479 30.5176 17.7471C30.5176 17.4782 30.4492 17.2321 30.3125 17.0088C30.1803 16.7855 29.9753 16.6077 29.6973 16.4756C29.4193 16.3389 29.0615 16.2705 28.624 16.2705C28.2959 16.2705 27.9974 16.3298 27.7285 16.4482C27.4596 16.5667 27.2454 16.7331 27.0859 16.9473C26.931 17.1615 26.8535 17.4144 26.8535 17.7061H25.1377C25.1377 17.2731 25.2288 16.8857 25.4111 16.5439C25.598 16.1976 25.8509 15.9036 26.1699 15.6621C26.4935 15.4206 26.8649 15.236 27.2842 15.1084C27.708 14.9762 28.1546 14.9102 28.624 14.9102C29.1709 14.9102 29.6654 14.9717 30.1074 15.0947C30.5495 15.2132 30.93 15.391 31.249 15.6279C31.568 15.8649 31.8118 16.1611 31.9805 16.5166C32.1491 16.8675 32.2334 17.2754 32.2334 17.7402C32.2334 18.082 32.1536 18.4033 31.9941 18.7041C31.8392 19.0049 31.6159 19.2692 31.3242 19.4971C31.0326 19.7249 30.6816 19.9049 30.2715 20.0371C29.8659 20.1647 29.4147 20.2285 28.918 20.2285ZM27.5371 19.6338H28.918C29.4694 19.6338 29.9593 19.6908 30.3877 19.8047C30.8161 19.9186 31.1784 20.085 31.4746 20.3037C31.7708 20.5225 31.9964 20.7936 32.1514 21.1172C32.3063 21.4362 32.3838 21.8031 32.3838 22.2178C32.3838 22.6826 32.2904 23.0973 32.1035 23.4619C31.9212 23.8219 31.6615 24.1273 31.3242 24.3779C30.987 24.6286 30.5882 24.8177 30.1279 24.9453C29.6722 25.0729 29.1709 25.1367 28.624 25.1367C28.182 25.1367 27.7445 25.082 27.3115 24.9727C26.8831 24.8587 26.4935 24.6855 26.1426 24.4531C25.7962 24.2161 25.5182 23.9154 25.3086 23.5508C25.099 23.1862 24.9941 22.7487 24.9941 22.2383H26.7168C26.7168 22.5208 26.7965 22.7806 26.9561 23.0176C27.1201 23.25 27.3434 23.4368 27.626 23.5781C27.9131 23.7148 28.2458 23.7832 28.624 23.7832C29.057 23.7832 29.4238 23.7148 29.7246 23.5781C30.0299 23.4414 30.2624 23.2546 30.4219 23.0176C30.5859 22.7806 30.668 22.514 30.668 22.2178C30.668 21.9352 30.6247 21.6914 30.5381 21.4863C30.4561 21.2767 30.333 21.1081 30.1689 20.9805C30.0049 20.8483 29.8021 20.7503 29.5605 20.6865C29.319 20.6227 29.041 20.5908 28.7266 20.5908H27.5371V19.6338ZM38.1166 23.5166V19.9893C38.1166 19.7249 38.0688 19.4971 37.973 19.3057C37.8773 19.1143 37.7315 18.9661 37.5355 18.8613C37.3441 18.7565 37.1026 18.7041 36.8109 18.7041C36.5421 18.7041 36.3096 18.7497 36.1137 18.8408C35.9177 18.932 35.765 19.055 35.6557 19.21C35.5463 19.3649 35.4916 19.5404 35.4916 19.7363H33.851C33.851 19.4447 33.9216 19.1621 34.0629 18.8887C34.2042 18.6152 34.4092 18.3714 34.6781 18.1572C34.947 17.943 35.2683 17.7744 35.642 17.6514C36.0157 17.5283 36.435 17.4668 36.8998 17.4668C37.4558 17.4668 37.948 17.5602 38.3764 17.7471C38.8093 17.9339 39.1488 18.2165 39.3949 18.5947C39.6456 18.9684 39.7709 19.4378 39.7709 20.0029V23.291C39.7709 23.6283 39.7937 23.9313 39.8393 24.2002C39.8894 24.4645 39.96 24.6947 40.0512 24.8906V25H38.3627C38.2852 24.8223 38.2237 24.5967 38.1781 24.3232C38.1371 24.0452 38.1166 23.7764 38.1166 23.5166ZM38.3559 20.502L38.3695 21.5205H37.1869C36.8816 21.5205 36.6127 21.5501 36.3803 21.6094C36.1479 21.6641 35.9542 21.7461 35.7992 21.8555C35.6443 21.9648 35.5281 22.097 35.4506 22.252C35.3731 22.4069 35.3344 22.5824 35.3344 22.7783C35.3344 22.9743 35.3799 23.1543 35.4711 23.3184C35.5622 23.4779 35.6944 23.6032 35.8676 23.6943C36.0453 23.7855 36.2595 23.8311 36.5102 23.8311C36.8474 23.8311 37.1413 23.7627 37.392 23.626C37.6472 23.4847 37.8477 23.3138 37.9936 23.1133C38.1394 22.9082 38.2169 22.7145 38.226 22.5322L38.7592 23.2637C38.7045 23.4505 38.6111 23.651 38.4789 23.8652C38.3467 24.0794 38.1736 24.2845 37.9594 24.4805C37.7497 24.6719 37.4968 24.8291 37.2006 24.9521C36.9089 25.0752 36.5717 25.1367 36.1889 25.1367C35.7058 25.1367 35.2751 25.041 34.8969 24.8496C34.5186 24.6536 34.2224 24.3916 34.0082 24.0635C33.794 23.7308 33.6869 23.3548 33.6869 22.9355C33.6869 22.5436 33.7598 22.1973 33.9057 21.8965C34.0561 21.5911 34.2748 21.3359 34.5619 21.1309C34.8536 20.9258 35.209 20.7708 35.6283 20.666C36.0476 20.5566 36.5261 20.502 37.0639 20.502H38.3559ZM43.1521 21.3838H44.8611L42.7625 25H41.0604L43.1521 21.3838ZM44.3553 17.6035H47.5271V25H45.8865V18.9023H44.3553C44.0454 18.9023 43.7902 18.957 43.5896 19.0664C43.3891 19.1712 43.241 19.3102 43.1453 19.4834C43.0496 19.652 43.0018 19.8252 43.0018 20.0029C43.0018 20.1807 43.0451 20.3516 43.1316 20.5156C43.2228 20.6797 43.3618 20.8141 43.5486 20.9189C43.74 21.0238 43.9793 21.0762 44.2664 21.0762H46.4402V22.2793H44.2664C43.8107 22.2793 43.4028 22.2223 43.0428 22.1084C42.6827 21.9899 42.3774 21.8281 42.1268 21.623C41.8761 21.4134 41.6847 21.1696 41.5525 20.8916C41.4204 20.609 41.3543 20.3014 41.3543 19.9688C41.3543 19.627 41.4227 19.3125 41.5594 19.0254C41.6961 18.7383 41.8921 18.4876 42.1473 18.2734C42.407 18.0592 42.7215 17.8952 43.0906 17.7812C43.4643 17.6628 43.8859 17.6035 44.3553 17.6035ZM53.0549 21.835H50.6896L50.676 20.6729H52.6174C52.9364 20.6729 53.1984 20.641 53.4035 20.5771C53.6132 20.5133 53.7681 20.4176 53.8684 20.29C53.9686 20.1579 54.0187 19.9984 54.0187 19.8115C54.0187 19.6566 53.9891 19.5221 53.9299 19.4082C53.8706 19.2897 53.7795 19.194 53.6564 19.1211C53.538 19.0436 53.3876 18.9889 53.2053 18.957C53.0275 18.9206 52.8202 18.9023 52.5832 18.9023H51.2365V25H49.5891V17.6035H52.5832C53.0572 17.6035 53.4833 17.6445 53.8615 17.7266C54.2443 17.8086 54.5702 17.9339 54.8391 18.1025C55.1079 18.2712 55.313 18.4854 55.4543 18.7451C55.6001 19.0003 55.673 19.3011 55.673 19.6475C55.673 19.8753 55.6229 20.0895 55.5227 20.29C55.427 20.4906 55.2834 20.6683 55.092 20.8232C54.9006 20.9782 54.6659 21.1058 54.3879 21.2061C54.1099 21.3018 53.7909 21.361 53.4309 21.3838L53.0549 21.835ZM53.0549 25H50.2111L50.8674 23.7012H53.0549C53.3465 23.7012 53.5881 23.6647 53.7795 23.5918C53.9709 23.5189 54.1122 23.4141 54.2033 23.2773C54.299 23.1361 54.3469 22.9697 54.3469 22.7783C54.3469 22.5824 54.3013 22.4137 54.2102 22.2725C54.119 22.1312 53.9777 22.0241 53.7863 21.9512C53.5995 21.8737 53.3557 21.835 53.0549 21.835H51.175L51.1887 20.6729H53.424L53.8957 21.124C54.3651 21.1559 54.7548 21.2562 55.0646 21.4248C55.3745 21.5934 55.607 21.8053 55.7619 22.0605C55.9169 22.3158 55.9943 22.5938 55.9943 22.8945C55.9943 23.2409 55.9283 23.5462 55.7961 23.8105C55.6685 24.0749 55.4771 24.2959 55.2219 24.4736C54.9712 24.6468 54.6636 24.779 54.299 24.8701C53.9344 24.9567 53.5197 25 53.0549 25ZM59.2936 17.6035V25H57.6461V17.6035H59.2936ZM64.1197 17.6035L60.7906 22.0537H58.9107L58.692 20.5635H60.066L62.0621 17.6035H64.1197ZM62.192 25L59.9635 21.7734L61.2623 20.8369L64.359 25H62.192ZM67.0566 22.5938L69.9619 17.6035H71.6094V25H69.9619V20.0029L67.0566 25H65.4092V17.6035H67.0566V22.5938Z" fill="white"/>
</g>
<defs>
<clipPath id="clip0_147_340">
<rect width="97" height="40" rx="20" fill="white"/>
</clipPath>
</defs>
</svg>
