<svg width="142" height="40" viewBox="0 0 142 40" fill="none" xmlns="http://www.w3.org/2000/svg">
<g clip-path="url(#clip0_140_349)">
<rect width="142" height="40" rx="20" fill="#6750A4"/>
<rect width="142" height="40" fill="white" fill-opacity="0.12"/>
<path d="M28.9969 20.502H26.4607L26.4471 19.251H28.6619C29.0356 19.251 29.3523 19.1963 29.6121 19.0869C29.8764 18.973 30.077 18.8112 30.2137 18.6016C30.3504 18.3874 30.4188 18.1299 30.4188 17.8291C30.4188 17.4964 30.3549 17.2253 30.2273 17.0156C30.0997 16.806 29.9038 16.6533 29.6395 16.5576C29.3797 16.4619 29.047 16.4141 28.6414 16.4141H26.9803V25H25.2645V15.0469H28.6414C29.1883 15.0469 29.6759 15.0993 30.1043 15.2041C30.5372 15.3089 30.9041 15.473 31.2049 15.6963C31.5102 15.915 31.7404 16.193 31.8953 16.5303C32.0548 16.8675 32.1346 17.2686 32.1346 17.7334C32.1346 18.1436 32.0366 18.5195 31.8406 18.8613C31.6447 19.1986 31.3553 19.4743 30.9725 19.6885C30.5896 19.9027 30.1134 20.0303 29.5438 20.0713L28.9969 20.502ZM28.9217 25H25.9207L26.6932 23.6396H28.9217C29.3091 23.6396 29.6326 23.5758 29.8924 23.4482C30.1521 23.3161 30.3458 23.1361 30.4734 22.9082C30.6056 22.6758 30.6717 22.4046 30.6717 22.0947C30.6717 21.7712 30.6147 21.4909 30.5008 21.2539C30.3868 21.0124 30.2068 20.8278 29.9607 20.7002C29.7146 20.568 29.3934 20.502 28.9969 20.502H27.0691L27.0828 19.251H29.5916L29.9813 19.7227C30.5281 19.7409 30.977 19.8617 31.3279 20.085C31.6834 20.3083 31.9477 20.5977 32.1209 20.9531C32.2941 21.3086 32.3807 21.6914 32.3807 22.1016C32.3807 22.735 32.2417 23.266 31.9637 23.6943C31.6902 24.1227 31.296 24.4486 30.7811 24.6719C30.2661 24.8906 29.6463 25 28.9217 25ZM33.7316 21.3838V21.2266C33.7316 20.6934 33.8091 20.1989 33.9641 19.7432C34.119 19.2829 34.3423 18.8841 34.634 18.5469C34.9302 18.2051 35.2902 17.9408 35.7141 17.7539C36.1424 17.5625 36.6255 17.4668 37.1633 17.4668C37.7056 17.4668 38.1887 17.5625 38.6125 17.7539C39.0409 17.9408 39.4032 18.2051 39.6994 18.5469C39.9956 18.8841 40.2212 19.2829 40.3762 19.7432C40.5311 20.1989 40.6086 20.6934 40.6086 21.2266V21.3838C40.6086 21.917 40.5311 22.4115 40.3762 22.8672C40.2212 23.3229 39.9956 23.7217 39.6994 24.0635C39.4032 24.4007 39.0432 24.665 38.6193 24.8564C38.1955 25.0433 37.7147 25.1367 37.177 25.1367C36.6346 25.1367 36.1493 25.0433 35.7209 24.8564C35.2971 24.665 34.937 24.4007 34.6408 24.0635C34.3446 23.7217 34.119 23.3229 33.9641 22.8672C33.8091 22.4115 33.7316 21.917 33.7316 21.3838ZM35.3791 21.2266V21.3838C35.3791 21.7165 35.4133 22.0309 35.4816 22.3271C35.55 22.6234 35.6571 22.8831 35.8029 23.1064C35.9488 23.3298 36.1356 23.5052 36.3635 23.6328C36.5913 23.7604 36.8625 23.8242 37.177 23.8242C37.4823 23.8242 37.7466 23.7604 37.9699 23.6328C38.1978 23.5052 38.3846 23.3298 38.5305 23.1064C38.6763 22.8831 38.7834 22.6234 38.8518 22.3271C38.9247 22.0309 38.9611 21.7165 38.9611 21.3838V21.2266C38.9611 20.8984 38.9247 20.5885 38.8518 20.2969C38.7834 20.0007 38.674 19.7386 38.5236 19.5107C38.3778 19.2829 38.191 19.1051 37.9631 18.9775C37.7398 18.8454 37.4732 18.7793 37.1633 18.7793C36.8534 18.7793 36.5845 18.8454 36.3566 18.9775C36.1333 19.1051 35.9488 19.2829 35.8029 19.5107C35.6571 19.7386 35.55 20.0007 35.4816 20.2969C35.4133 20.5885 35.3791 20.8984 35.3791 21.2266ZM45.1109 23.8242C45.3798 23.8242 45.6214 23.7718 45.8355 23.667C46.0543 23.5576 46.2298 23.4072 46.3619 23.2158C46.4986 23.0244 46.5738 22.8034 46.5875 22.5527H48.1393C48.1301 23.0312 47.9889 23.4665 47.7154 23.8584C47.442 24.2503 47.0797 24.5625 46.6285 24.7949C46.1773 25.0228 45.6783 25.1367 45.1314 25.1367C44.5663 25.1367 44.0742 25.041 43.6549 24.8496C43.2356 24.6536 42.887 24.3848 42.609 24.043C42.331 23.7012 42.1214 23.307 41.9801 22.8604C41.8434 22.4137 41.775 21.9352 41.775 21.4248V21.1855C41.775 20.6751 41.8434 20.1966 41.9801 19.75C42.1214 19.2988 42.331 18.9023 42.609 18.5605C42.887 18.2188 43.2356 17.9521 43.6549 17.7607C44.0742 17.5648 44.5641 17.4668 45.1246 17.4668C45.7171 17.4668 46.2366 17.5853 46.6832 17.8223C47.1298 18.0547 47.4807 18.3805 47.7359 18.7998C47.9957 19.2145 48.1301 19.6976 48.1393 20.249H46.5875C46.5738 19.9756 46.5055 19.7295 46.3824 19.5107C46.2639 19.2874 46.0953 19.1097 45.8766 18.9775C45.6624 18.8454 45.4049 18.7793 45.1041 18.7793C44.7714 18.7793 44.4957 18.8477 44.277 18.9844C44.0582 19.1165 43.8873 19.2988 43.7643 19.5312C43.6412 19.7591 43.5523 20.0166 43.4977 20.3037C43.4475 20.5863 43.4225 20.8802 43.4225 21.1855V21.4248C43.4225 21.7301 43.4475 22.0264 43.4977 22.3135C43.5478 22.6006 43.6344 22.8581 43.7574 23.0859C43.885 23.3092 44.0582 23.4893 44.277 23.626C44.4957 23.7581 44.7737 23.8242 45.1109 23.8242ZM52.5254 23.8242C52.7943 23.8242 53.0358 23.7718 53.25 23.667C53.4688 23.5576 53.6442 23.4072 53.7764 23.2158C53.9131 23.0244 53.9883 22.8034 54.002 22.5527H55.5537C55.5446 23.0312 55.4033 23.4665 55.1299 23.8584C54.8564 24.2503 54.4941 24.5625 54.043 24.7949C53.5918 25.0228 53.0928 25.1367 52.5459 25.1367C51.9808 25.1367 51.4886 25.041 51.0693 24.8496C50.6501 24.6536 50.3014 24.3848 50.0234 24.043C49.7454 23.7012 49.5358 23.307 49.3945 22.8604C49.2578 22.4137 49.1895 21.9352 49.1895 21.4248V21.1855C49.1895 20.6751 49.2578 20.1966 49.3945 19.75C49.5358 19.2988 49.7454 18.9023 50.0234 18.5605C50.3014 18.2188 50.6501 17.9521 51.0693 17.7607C51.4886 17.5648 51.9785 17.4668 52.5391 17.4668C53.1315 17.4668 53.651 17.5853 54.0977 17.8223C54.5443 18.0547 54.8952 18.3805 55.1504 18.7998C55.4102 19.2145 55.5446 19.6976 55.5537 20.249H54.002C53.9883 19.9756 53.9199 19.7295 53.7969 19.5107C53.6784 19.2874 53.5098 19.1097 53.291 18.9775C53.0768 18.8454 52.8193 18.7793 52.5186 18.7793C52.1859 18.7793 51.9102 18.8477 51.6914 18.9844C51.4727 19.1165 51.3018 19.2988 51.1787 19.5312C51.0557 19.7591 50.9668 20.0166 50.9121 20.3037C50.862 20.5863 50.8369 20.8802 50.8369 21.1855V21.4248C50.8369 21.7301 50.862 22.0264 50.9121 22.3135C50.9622 22.6006 51.0488 22.8581 51.1719 23.0859C51.2995 23.3092 51.4727 23.4893 51.6914 23.626C51.9102 23.7581 52.1882 23.8242 52.5254 23.8242ZM60.35 17.6035V25H58.6957V17.6035H60.35ZM62.7768 17.6035V18.9023H56.31V17.6035H62.7768ZM68.0379 23.5166V19.9893C68.0379 19.7249 67.99 19.4971 67.8943 19.3057C67.7986 19.1143 67.6528 18.9661 67.4568 18.8613C67.2654 18.7565 67.0239 18.7041 66.7322 18.7041C66.4633 18.7041 66.2309 18.7497 66.035 18.8408C65.839 18.932 65.6863 19.055 65.577 19.21C65.4676 19.3649 65.4129 19.5404 65.4129 19.7363H63.7723C63.7723 19.4447 63.8429 19.1621 63.9842 18.8887C64.1255 18.6152 64.3305 18.3714 64.5994 18.1572C64.8683 17.943 65.1896 17.7744 65.5633 17.6514C65.937 17.5283 66.3563 17.4668 66.8211 17.4668C67.3771 17.4668 67.8693 17.5602 68.2977 17.7471C68.7306 17.9339 69.0701 18.2165 69.3162 18.5947C69.5669 18.9684 69.6922 19.4378 69.6922 20.0029V23.291C69.6922 23.6283 69.715 23.9313 69.7605 24.2002C69.8107 24.4645 69.8813 24.6947 69.9725 24.8906V25H68.284C68.2065 24.8223 68.145 24.5967 68.0994 24.3232C68.0584 24.0452 68.0379 23.7764 68.0379 23.5166ZM68.2771 20.502L68.2908 21.5205H67.1082C66.8029 21.5205 66.534 21.5501 66.3016 21.6094C66.0691 21.6641 65.8755 21.7461 65.7205 21.8555C65.5656 21.9648 65.4493 22.097 65.3719 22.252C65.2944 22.4069 65.2557 22.5824 65.2557 22.7783C65.2557 22.9743 65.3012 23.1543 65.3924 23.3184C65.4835 23.4779 65.6157 23.6032 65.7889 23.6943C65.9666 23.7855 66.1808 23.8311 66.4314 23.8311C66.7687 23.8311 67.0626 23.7627 67.3133 23.626C67.5685 23.4847 67.769 23.3138 67.9148 23.1133C68.0607 22.9082 68.1382 22.7145 68.1473 22.5322L68.6805 23.2637C68.6258 23.4505 68.5324 23.651 68.4002 23.8652C68.268 24.0794 68.0949 24.2845 67.8807 24.4805C67.671 24.6719 67.4181 24.8291 67.1219 24.9521C66.8302 25.0752 66.493 25.1367 66.1102 25.1367C65.6271 25.1367 65.1964 25.041 64.8182 24.8496C64.4399 24.6536 64.1437 24.3916 63.9295 24.0635C63.7153 23.7308 63.6082 23.3548 63.6082 22.9355C63.6082 22.5436 63.6811 22.1973 63.827 21.8965C63.9773 21.5911 64.1961 21.3359 64.4832 21.1309C64.7749 20.9258 65.1303 20.7708 65.5496 20.666C65.9689 20.5566 66.4474 20.502 66.9852 20.502H68.2771ZM76.5666 20.6934V21.9922H72.7385V20.6934H76.5666ZM73.217 17.6035V25H71.5695V17.6035H73.217ZM77.7561 17.6035V25H76.1086V17.6035H77.7561ZM79.2984 21.3838V21.2266C79.2984 20.6934 79.3759 20.1989 79.5309 19.7432C79.6858 19.2829 79.9091 18.8841 80.2008 18.5469C80.497 18.2051 80.857 17.9408 81.2809 17.7539C81.7092 17.5625 82.1923 17.4668 82.7301 17.4668C83.2724 17.4668 83.7555 17.5625 84.1793 17.7539C84.6077 17.9408 84.97 18.2051 85.2662 18.5469C85.5624 18.8841 85.788 19.2829 85.943 19.7432C86.0979 20.1989 86.1754 20.6934 86.1754 21.2266V21.3838C86.1754 21.917 86.0979 22.4115 85.943 22.8672C85.788 23.3229 85.5624 23.7217 85.2662 24.0635C84.97 24.4007 84.61 24.665 84.1861 24.8564C83.7623 25.0433 83.2815 25.1367 82.7438 25.1367C82.2014 25.1367 81.7161 25.0433 81.2877 24.8564C80.8639 24.665 80.5038 24.4007 80.2076 24.0635C79.9114 23.7217 79.6858 23.3229 79.5309 22.8672C79.3759 22.4115 79.2984 21.917 79.2984 21.3838ZM80.9459 21.2266V21.3838C80.9459 21.7165 80.9801 22.0309 81.0484 22.3271C81.1168 22.6234 81.2239 22.8831 81.3697 23.1064C81.5156 23.3298 81.7024 23.5052 81.9303 23.6328C82.1581 23.7604 82.4293 23.8242 82.7438 23.8242C83.0491 23.8242 83.3134 23.7604 83.5367 23.6328C83.7646 23.5052 83.9514 23.3298 84.0973 23.1064C84.2431 22.8831 84.3502 22.6234 84.4186 22.3271C84.4915 22.0309 84.5279 21.7165 84.5279 21.3838V21.2266C84.5279 20.8984 84.4915 20.5885 84.4186 20.2969C84.3502 20.0007 84.2408 19.7386 84.0904 19.5107C83.9446 19.2829 83.7577 19.1051 83.5299 18.9775C83.3066 18.8454 83.04 18.7793 82.7301 18.7793C82.4202 18.7793 82.1513 18.8454 81.9234 18.9775C81.7001 19.1051 81.5156 19.2829 81.3697 19.5107C81.2239 19.7386 81.1168 20.0007 81.0484 20.2969C80.9801 20.5885 80.9459 20.8984 80.9459 21.2266ZM91.252 21.835H88.8867L88.873 20.6729H90.8145C91.1335 20.6729 91.3955 20.641 91.6006 20.5771C91.8102 20.5133 91.9652 20.4176 92.0654 20.29C92.1657 20.1579 92.2158 19.9984 92.2158 19.8115C92.2158 19.6566 92.1862 19.5221 92.127 19.4082C92.0677 19.2897 91.9766 19.194 91.8535 19.1211C91.735 19.0436 91.5846 18.9889 91.4023 18.957C91.2246 18.9206 91.0173 18.9023 90.7803 18.9023H89.4336V25H87.7861V17.6035H90.7803C91.2542 17.6035 91.6803 17.6445 92.0586 17.7266C92.4414 17.8086 92.7673 17.9339 93.0361 18.1025C93.305 18.2712 93.5101 18.4854 93.6514 18.7451C93.7972 19.0003 93.8701 19.3011 93.8701 19.6475C93.8701 19.8753 93.82 20.0895 93.7197 20.29C93.624 20.4906 93.4805 20.6683 93.2891 20.8232C93.0977 20.9782 92.863 21.1058 92.585 21.2061C92.307 21.3018 91.988 21.361 91.6279 21.3838L91.252 21.835ZM91.252 25H88.4082L89.0645 23.7012H91.252C91.5436 23.7012 91.7852 23.6647 91.9766 23.5918C92.168 23.5189 92.3092 23.4141 92.4004 23.2773C92.4961 23.1361 92.5439 22.9697 92.5439 22.7783C92.5439 22.5824 92.4984 22.4137 92.4072 22.2725C92.3161 22.1312 92.1748 22.0241 91.9834 21.9512C91.7965 21.8737 91.5527 21.835 91.252 21.835H89.3721L89.3857 20.6729H91.6211L92.0928 21.124C92.5622 21.1559 92.9518 21.2562 93.2617 21.4248C93.5716 21.5934 93.804 21.8053 93.959 22.0605C94.1139 22.3158 94.1914 22.5938 94.1914 22.8945C94.1914 23.2409 94.1253 23.5462 93.9932 23.8105C93.8656 24.0749 93.6742 24.2959 93.4189 24.4736C93.1683 24.6468 92.8607 24.779 92.4961 24.8701C92.1315 24.9567 91.7168 25 91.252 25ZM97.4154 22.5938L100.321 17.6035H101.968V25H100.321V20.0029L97.4154 25H95.768V17.6035H97.4154V22.5938ZM107.243 17.6035V25H105.589V17.6035H107.243ZM109.67 17.6035V18.9023H103.203V17.6035H109.67ZM112.094 19.9551H114.275C114.913 19.9551 115.455 20.0622 115.902 20.2764C116.348 20.4906 116.688 20.7891 116.92 21.1719C117.157 21.5501 117.276 21.9831 117.276 22.4707C117.276 22.8307 117.21 23.1657 117.077 23.4756C116.945 23.7809 116.749 24.0475 116.489 24.2754C116.234 24.5033 115.92 24.681 115.546 24.8086C115.177 24.9362 114.753 25 114.275 25H111V17.6035H112.654V23.6943H114.275C114.603 23.6943 114.865 23.6374 115.061 23.5234C115.257 23.4095 115.398 23.2614 115.485 23.0791C115.576 22.8968 115.621 22.7031 115.621 22.498C115.621 22.2884 115.576 22.0902 115.485 21.9033C115.398 21.7165 115.257 21.5638 115.061 21.4453C114.865 21.3268 114.603 21.2676 114.275 21.2676H112.094V19.9551Z" fill="white"/>
</g>
<defs>
<clipPath id="clip0_140_349">
<rect width="142" height="40" rx="20" fill="white"/>
</clipPath>
</defs>
</svg>
