<svg width="115" height="14" viewBox="0 0 115 14" fill="none" xmlns="http://www.w3.org/2000/svg">
<path d="M7.0959 7.75977H8.80488C8.75019 8.41146 8.5679 8.99251 8.25801 9.50293C7.94811 10.0088 7.51289 10.4076 6.95234 10.6992C6.3918 10.9909 5.71048 11.1367 4.9084 11.1367C4.29316 11.1367 3.73945 11.0273 3.24726 10.8086C2.75508 10.5853 2.33353 10.2708 1.98262 9.86523C1.6317 9.45508 1.36282 8.96061 1.17598 8.38184C0.993684 7.80306 0.902538 7.15592 0.902538 6.44043V5.61328C0.902538 4.89779 0.995963 4.25065 1.18281 3.67188C1.37422 3.0931 1.64766 2.59863 2.00312 2.18848C2.35859 1.77376 2.7847 1.45703 3.28144 1.23828C3.78275 1.01953 4.34557 0.910156 4.96992 0.910156C5.76289 0.910156 6.43281 1.05599 6.97969 1.34766C7.52656 1.63932 7.95039 2.04264 8.25117 2.55762C8.55651 3.07259 8.74336 3.66276 8.81172 4.32812H7.10273C7.05716 3.89974 6.9569 3.53288 6.80195 3.22754C6.65156 2.9222 6.42825 2.68978 6.13203 2.53027C5.83581 2.36621 5.44844 2.28418 4.96992 2.28418C4.57799 2.28418 4.2362 2.3571 3.94453 2.50293C3.65286 2.64876 3.40905 2.86296 3.21309 3.14551C3.01712 3.42806 2.86901 3.77669 2.76875 4.19141C2.67305 4.60156 2.62519 5.07096 2.62519 5.59961V6.44043C2.62519 6.94173 2.66849 7.39746 2.75508 7.80762C2.84622 8.21322 2.98294 8.56185 3.16523 8.85352C3.35208 9.14518 3.58906 9.37077 3.87617 9.53027C4.16328 9.68978 4.50736 9.76953 4.9084 9.76953C5.39603 9.76953 5.79023 9.69206 6.09101 9.53711C6.39635 9.38216 6.6265 9.15658 6.78144 8.86035C6.94095 8.55957 7.04577 8.19271 7.0959 7.75977ZM14.941 0.363281H16.274C16.274 0.76888 16.2171 1.10384 16.1031 1.36816C15.9937 1.62793 15.8297 1.84212 15.6109 2.01074C15.3967 2.1748 15.1301 2.30697 14.8111 2.40723C14.4967 2.50749 14.1321 2.59863 13.7174 2.68066C13.3346 2.7627 12.9882 2.89258 12.6783 3.07031C12.373 3.24349 12.1155 3.4873 11.9059 3.80176C11.7008 4.11165 11.5527 4.51042 11.4615 4.99805C11.3704 5.48568 11.343 6.0804 11.3795 6.78223V7.24707L10.0738 7.36328V6.89844C10.0738 6.02799 10.1536 5.26921 10.3131 4.62207C10.4726 3.97493 10.6982 3.43034 10.9898 2.98828C11.2861 2.54167 11.637 2.1862 12.0426 1.92188C12.4527 1.65755 12.9085 1.47526 13.4098 1.375C13.7516 1.30208 14.0364 1.22917 14.2643 1.15625C14.4921 1.07878 14.6607 0.980794 14.7701 0.862305C14.884 0.739258 14.941 0.572917 14.941 0.363281ZM13.7857 4.02051C14.2779 4.02051 14.7154 4.1071 15.0982 4.28027C15.4811 4.44889 15.8046 4.68587 16.0689 4.99121C16.3333 5.29655 16.5338 5.65658 16.6705 6.07129C16.8118 6.486 16.8824 6.93717 16.8824 7.4248V7.5752C16.8824 8.08561 16.8072 8.55729 16.6568 8.99023C16.5064 9.42318 16.2854 9.80143 15.9937 10.125C15.7021 10.444 15.3443 10.6947 14.9205 10.877C14.5012 11.0547 14.0204 11.1436 13.4781 11.1436C12.9404 11.1436 12.4596 11.0501 12.0357 10.8633C11.6119 10.6764 11.2542 10.4167 10.9625 10.084C10.6708 9.74674 10.4498 9.35254 10.2994 8.90137C10.149 8.4502 10.0738 7.95801 10.0738 7.4248V7.27441C10.0693 7.17871 10.0943 7.08529 10.149 6.99414C10.2083 6.90299 10.2789 6.80501 10.3609 6.7002C10.443 6.59538 10.5159 6.47461 10.5797 6.33789C10.8076 5.8776 11.0764 5.47428 11.3863 5.12793C11.6962 4.78158 12.0494 4.51042 12.4459 4.31445C12.8469 4.11849 13.2936 4.02051 13.7857 4.02051ZM13.4645 5.32617C13.0543 5.32617 12.7193 5.42415 12.4596 5.62012C12.2044 5.81152 12.0152 6.06673 11.8922 6.38574C11.7737 6.70475 11.7145 7.05111 11.7145 7.4248V7.5752C11.7145 7.88053 11.7486 8.16992 11.817 8.44336C11.8854 8.7168 11.9879 8.95833 12.1246 9.16797C12.2659 9.37305 12.4482 9.53483 12.6715 9.65332C12.8993 9.77181 13.1682 9.83105 13.4781 9.83105C13.7926 9.83105 14.0592 9.77181 14.2779 9.65332C14.5012 9.53483 14.6812 9.37305 14.818 9.16797C14.9592 8.95833 15.0618 8.7168 15.1256 8.44336C15.1939 8.16992 15.2281 7.88053 15.2281 7.5752V7.4248C15.2281 7.14225 15.1939 6.87565 15.1256 6.625C15.0618 6.37435 14.9592 6.15332 14.818 5.96191C14.6767 5.76595 14.4944 5.611 14.2711 5.49707C14.0478 5.38314 13.7789 5.32617 13.4645 5.32617ZM19.8057 5.02539V13.8438H18.1582V3.60352H19.6758L19.8057 5.02539ZM24.625 7.2334V7.37695C24.625 7.91471 24.5612 8.41374 24.4336 8.87402C24.3105 9.32975 24.126 9.72852 23.8799 10.0703C23.6383 10.4076 23.3398 10.6696 22.9844 10.8564C22.6289 11.0433 22.2188 11.1367 21.7539 11.1367C21.2936 11.1367 20.8903 11.0524 20.5439 10.8838C20.2021 10.7106 19.9128 10.4668 19.6758 10.1523C19.4388 9.83789 19.2474 9.46875 19.1016 9.04492C18.9603 8.61654 18.86 8.14714 18.8008 7.63672V7.08301C18.86 6.54069 18.9603 6.0485 19.1016 5.60645C19.2474 5.16439 19.4388 4.78385 19.6758 4.46484C19.9128 4.14583 20.2021 3.89974 20.5439 3.72656C20.8857 3.55339 21.2845 3.4668 21.7402 3.4668C22.2051 3.4668 22.6175 3.55794 22.9775 3.74023C23.3376 3.91797 23.6406 4.17318 23.8867 4.50586C24.1328 4.83398 24.3174 5.23047 24.4404 5.69531C24.5635 6.1556 24.625 6.66829 24.625 7.2334ZM22.9775 7.37695V7.2334C22.9775 6.8916 22.9456 6.57487 22.8818 6.2832C22.818 5.98698 22.7178 5.72721 22.5811 5.50391C22.4443 5.2806 22.2689 5.10742 22.0547 4.98438C21.8451 4.85677 21.5921 4.79297 21.2959 4.79297C21.0042 4.79297 20.7536 4.8431 20.5439 4.94336C20.3343 5.03906 20.1589 5.1735 20.0176 5.34668C19.8763 5.51986 19.7669 5.72266 19.6895 5.95508C19.612 6.18294 19.5573 6.43132 19.5254 6.7002V8.02637C19.5801 8.35449 19.6735 8.65527 19.8057 8.92871C19.9378 9.20215 20.1247 9.4209 20.3662 9.58496C20.6123 9.74447 20.9268 9.82422 21.3096 9.82422C21.6058 9.82422 21.8587 9.76042 22.0684 9.63281C22.278 9.50521 22.4489 9.32975 22.5811 9.10645C22.7178 8.87858 22.818 8.61654 22.8818 8.32031C22.9456 8.02409 22.9775 7.70964 22.9775 7.37695ZM25.8119 7.38379V7.22656C25.8119 6.69336 25.8894 6.19889 26.0443 5.74316C26.1993 5.28288 26.4226 4.88411 26.7143 4.54688C27.0105 4.20508 27.3705 3.94076 27.7943 3.75391C28.2227 3.5625 28.7058 3.4668 29.2436 3.4668C29.7859 3.4668 30.2689 3.5625 30.6928 3.75391C31.1212 3.94076 31.4835 4.20508 31.7797 4.54688C32.0759 4.88411 32.3015 5.28288 32.4564 5.74316C32.6114 6.19889 32.6889 6.69336 32.6889 7.22656V7.38379C32.6889 7.91699 32.6114 8.41146 32.4564 8.86719C32.3015 9.32292 32.0759 9.72168 31.7797 10.0635C31.4835 10.4007 31.1234 10.665 30.6996 10.8564C30.2758 11.0433 29.795 11.1367 29.2572 11.1367C28.7149 11.1367 28.2296 11.0433 27.8012 10.8564C27.3773 10.665 27.0173 10.4007 26.7211 10.0635C26.4249 9.72168 26.1993 9.32292 26.0443 8.86719C25.8894 8.41146 25.8119 7.91699 25.8119 7.38379ZM27.4594 7.22656V7.38379C27.4594 7.71647 27.4936 8.03092 27.5619 8.32715C27.6303 8.62337 27.7374 8.88314 27.8832 9.10645C28.029 9.32975 28.2159 9.50521 28.4437 9.63281C28.6716 9.76042 28.9428 9.82422 29.2572 9.82422C29.5626 9.82422 29.8269 9.76042 30.0502 9.63281C30.2781 9.50521 30.4649 9.32975 30.6107 9.10645C30.7566 8.88314 30.8637 8.62337 30.932 8.32715C31.0049 8.03092 31.0414 7.71647 31.0414 7.38379V7.22656C31.0414 6.89844 31.0049 6.58854 30.932 6.29688C30.8637 6.00065 30.7543 5.73861 30.6039 5.51074C30.4581 5.28288 30.2712 5.10514 30.0434 4.97754C29.8201 4.84538 29.5534 4.7793 29.2436 4.7793C28.9337 4.7793 28.6648 4.84538 28.4369 4.97754C28.2136 5.10514 28.029 5.28288 27.8832 5.51074C27.7374 5.73861 27.6303 6.00065 27.5619 6.29688C27.4936 6.58854 27.4594 6.89844 27.4594 7.22656ZM37.1912 9.82422C37.4601 9.82422 37.7016 9.77181 37.9158 9.66699C38.1346 9.55762 38.31 9.40723 38.4422 9.21582C38.5789 9.02441 38.6541 8.80339 38.6678 8.55273H40.2195C40.2104 9.03125 40.0691 9.46647 39.7957 9.8584C39.5223 10.2503 39.16 10.5625 38.7088 10.7949C38.2576 11.0228 37.7586 11.1367 37.2117 11.1367C36.6466 11.1367 36.1544 11.041 35.7352 10.8496C35.3159 10.6536 34.9673 10.3848 34.6893 10.043C34.4113 9.70117 34.2016 9.30697 34.0604 8.86035C33.9236 8.41374 33.8553 7.93522 33.8553 7.4248V7.18555C33.8553 6.67513 33.9236 6.19661 34.0604 5.75C34.2016 5.29883 34.4113 4.90234 34.6893 4.56055C34.9673 4.21875 35.3159 3.95215 35.7352 3.76074C36.1544 3.56478 36.6443 3.4668 37.2049 3.4668C37.7973 3.4668 38.3169 3.58529 38.7635 3.82227C39.2101 4.05469 39.561 4.38053 39.8162 4.7998C40.076 5.21452 40.2104 5.69759 40.2195 6.24902H38.6678C38.6541 5.97559 38.5857 5.72949 38.4627 5.51074C38.3442 5.28743 38.1756 5.1097 37.9568 4.97754C37.7426 4.84538 37.4852 4.7793 37.1844 4.7793C36.8517 4.7793 36.576 4.84766 36.3572 4.98438C36.1385 5.11654 35.9676 5.29883 35.8445 5.53125C35.7215 5.75911 35.6326 6.0166 35.5779 6.30371C35.5278 6.58626 35.5027 6.88021 35.5027 7.18555V7.4248C35.5027 7.73014 35.5278 8.02637 35.5779 8.31348C35.6281 8.60059 35.7146 8.85807 35.8377 9.08594C35.9653 9.30924 36.1385 9.48926 36.3572 9.62598C36.576 9.75814 36.854 9.82422 37.1912 9.82422ZM43.2863 8.59375L46.1916 3.60352H47.8391V11H46.1916V6.00293L43.2863 11H41.6389V3.60352H43.2863V8.59375ZM53.1139 3.60352V11H51.4596V3.60352H53.1139ZM55.5406 3.60352V4.90234H49.0738V3.60352H55.5406ZM57.9648 5.95508H60.1455C60.7835 5.95508 61.3258 6.06217 61.7725 6.27637C62.2191 6.49056 62.5586 6.78906 62.791 7.17188C63.028 7.55013 63.1465 7.98307 63.1465 8.4707C63.1465 8.83073 63.0804 9.16569 62.9482 9.47559C62.8161 9.78092 62.6201 10.0475 62.3604 10.2754C62.1051 10.5033 61.7907 10.681 61.417 10.8086C61.0479 10.9362 60.624 11 60.1455 11H56.8711V3.60352H58.5254V9.69434H60.1455C60.4736 9.69434 60.7357 9.63737 60.9316 9.52344C61.1276 9.40951 61.2689 9.26139 61.3555 9.0791C61.4466 8.89681 61.4922 8.70312 61.4922 8.49805C61.4922 8.28841 61.4466 8.09017 61.3555 7.90332C61.2689 7.71647 61.1276 7.5638 60.9316 7.44531C60.7357 7.32682 60.4736 7.26758 60.1455 7.26758H57.9648V5.95508ZM73.115 3.60352V4.91602H69.4646V3.60352H73.115ZM69.8543 3.60352V11H68.2068V3.60352H69.8543ZM74.407 3.60352V11H72.7527V3.60352H74.407ZM80.4201 9.5166V5.98926C80.4201 5.72493 80.3723 5.49707 80.2766 5.30566C80.1809 5.11426 80.035 4.96615 79.8391 4.86133C79.6477 4.75651 79.4061 4.7041 79.1145 4.7041C78.8456 4.7041 78.6132 4.74967 78.4172 4.84082C78.2212 4.93197 78.0686 5.05501 77.9592 5.20996C77.8498 5.36491 77.7951 5.54036 77.7951 5.73633H76.1545C76.1545 5.44466 76.2251 5.16211 76.3664 4.88867C76.5077 4.61523 76.7128 4.37142 76.9816 4.15723C77.2505 3.94303 77.5718 3.77441 77.9455 3.65137C78.3192 3.52832 78.7385 3.4668 79.2033 3.4668C79.7593 3.4668 80.2515 3.56022 80.6799 3.74707C81.1128 3.93392 81.4523 4.21647 81.6984 4.59473C81.9491 4.96842 82.0744 5.43783 82.0744 6.00293V9.29102C82.0744 9.62826 82.0972 9.93132 82.1428 10.2002C82.1929 10.4645 82.2635 10.6947 82.3547 10.8906V11H80.6662C80.5887 10.8223 80.5272 10.5967 80.4816 10.3232C80.4406 10.0452 80.4201 9.77637 80.4201 9.5166ZM80.6594 6.50195L80.673 7.52051H79.4904C79.1851 7.52051 78.9162 7.55013 78.6838 7.60938C78.4514 7.66406 78.2577 7.74609 78.1027 7.85547C77.9478 7.96484 77.8316 8.09701 77.7541 8.25195C77.6766 8.4069 77.6379 8.58236 77.6379 8.77832C77.6379 8.97428 77.6835 9.1543 77.7746 9.31836C77.8658 9.47786 77.9979 9.60319 78.1711 9.69434C78.3488 9.78548 78.563 9.83105 78.8137 9.83105C79.1509 9.83105 79.4449 9.7627 79.6955 9.62598C79.9507 9.4847 80.1512 9.3138 80.2971 9.11328C80.4429 8.9082 80.5204 8.71452 80.5295 8.53223L81.0627 9.26367C81.008 9.45052 80.9146 9.65104 80.7824 9.86523C80.6503 10.0794 80.4771 10.2845 80.2629 10.4805C80.0533 10.6719 79.8003 10.8291 79.5041 10.9521C79.2124 11.0752 78.8752 11.1367 78.4924 11.1367C78.0093 11.1367 77.5786 11.041 77.2004 10.8496C76.8221 10.6536 76.5259 10.3916 76.3117 10.0635C76.0975 9.73079 75.9904 9.35482 75.9904 8.93555C75.9904 8.54362 76.0633 8.19727 76.2092 7.89648C76.3596 7.59115 76.5783 7.33594 76.8654 7.13086C77.1571 6.92578 77.5126 6.77083 77.9318 6.66602C78.3511 6.55664 78.8296 6.50195 79.3674 6.50195H80.6594ZM85.5514 5.02539V13.8438H83.9039V3.60352H85.4215L85.5514 5.02539ZM90.3707 7.2334V7.37695C90.3707 7.91471 90.3069 8.41374 90.1793 8.87402C90.0562 9.32975 89.8717 9.72852 89.6256 10.0703C89.384 10.4076 89.0855 10.6696 88.7301 10.8564C88.3746 11.0433 87.9644 11.1367 87.4996 11.1367C87.0393 11.1367 86.636 11.0524 86.2896 10.8838C85.9478 10.7106 85.6585 10.4668 85.4215 10.1523C85.1845 9.83789 84.9931 9.46875 84.8473 9.04492C84.706 8.61654 84.6057 8.14714 84.5465 7.63672V7.08301C84.6057 6.54069 84.706 6.0485 84.8473 5.60645C84.9931 5.16439 85.1845 4.78385 85.4215 4.46484C85.6585 4.14583 85.9478 3.89974 86.2896 3.72656C86.6314 3.55339 87.0302 3.4668 87.4859 3.4668C87.9508 3.4668 88.3632 3.55794 88.7232 3.74023C89.0833 3.91797 89.3863 4.17318 89.6324 4.50586C89.8785 4.83398 90.0631 5.23047 90.1861 5.69531C90.3092 6.1556 90.3707 6.66829 90.3707 7.2334ZM88.7232 7.37695V7.2334C88.7232 6.8916 88.6913 6.57487 88.6275 6.2832C88.5637 5.98698 88.4635 5.72721 88.3268 5.50391C88.19 5.2806 88.0146 5.10742 87.8004 4.98438C87.5907 4.85677 87.3378 4.79297 87.0416 4.79297C86.7499 4.79297 86.4993 4.8431 86.2896 4.94336C86.08 5.03906 85.9046 5.1735 85.7633 5.34668C85.622 5.51986 85.5126 5.72266 85.4352 5.95508C85.3577 6.18294 85.303 6.43132 85.2711 6.7002V8.02637C85.3258 8.35449 85.4192 8.65527 85.5514 8.92871C85.6835 9.20215 85.8704 9.4209 86.1119 9.58496C86.358 9.74447 86.6725 9.82422 87.0553 9.82422C87.3515 9.82422 87.6044 9.76042 87.8141 9.63281C88.0237 9.50521 88.1946 9.32975 88.3268 9.10645C88.4635 8.87858 88.5637 8.61654 88.6275 8.32031C88.6913 8.02409 88.7232 7.70964 88.7232 7.37695ZM91.5576 7.38379V7.22656C91.5576 6.69336 91.6351 6.19889 91.79 5.74316C91.945 5.28288 92.1683 4.88411 92.46 4.54688C92.7562 4.20508 93.1162 3.94076 93.54 3.75391C93.9684 3.5625 94.4515 3.4668 94.9893 3.4668C95.5316 3.4668 96.0146 3.5625 96.4385 3.75391C96.8669 3.94076 97.2292 4.20508 97.5254 4.54688C97.8216 4.88411 98.0472 5.28288 98.2021 5.74316C98.3571 6.19889 98.4346 6.69336 98.4346 7.22656V7.38379C98.4346 7.91699 98.3571 8.41146 98.2021 8.86719C98.0472 9.32292 97.8216 9.72168 97.5254 10.0635C97.2292 10.4007 96.8691 10.665 96.4453 10.8564C96.0215 11.0433 95.5407 11.1367 95.0029 11.1367C94.4606 11.1367 93.9753 11.0433 93.5469 10.8564C93.123 10.665 92.763 10.4007 92.4668 10.0635C92.1706 9.72168 91.945 9.32292 91.79 8.86719C91.6351 8.41146 91.5576 7.91699 91.5576 7.38379ZM93.2051 7.22656V7.38379C93.2051 7.71647 93.2393 8.03092 93.3076 8.32715C93.376 8.62337 93.4831 8.88314 93.6289 9.10645C93.7747 9.32975 93.9616 9.50521 94.1895 9.63281C94.4173 9.76042 94.6885 9.82422 95.0029 9.82422C95.3083 9.82422 95.5726 9.76042 95.7959 9.63281C96.0238 9.50521 96.2106 9.32975 96.3564 9.10645C96.5023 8.88314 96.6094 8.62337 96.6777 8.32715C96.7507 8.03092 96.7871 7.71647 96.7871 7.38379V7.22656C96.7871 6.89844 96.7507 6.58854 96.6777 6.29688C96.6094 6.00065 96.5 5.73861 96.3496 5.51074C96.2038 5.28288 96.0169 5.10514 95.7891 4.97754C95.5658 4.84538 95.2992 4.7793 94.9893 4.7793C94.6794 4.7793 94.4105 4.84538 94.1826 4.97754C93.9593 5.10514 93.7747 5.28288 93.6289 5.51074C93.4831 5.73861 93.376 6.00065 93.3076 6.29688C93.2393 6.58854 93.2051 6.89844 93.2051 7.22656ZM104.776 3.60352V4.91602H101.166V3.60352H104.776ZM106.068 3.60352V11H104.42V3.60352H106.068ZM100.763 3.60352H102.39L102.192 7.26074C102.164 7.80306 102.11 8.28158 102.028 8.69629C101.95 9.10645 101.845 9.45964 101.713 9.75586C101.581 10.0475 101.419 10.2845 101.228 10.4668C101.037 10.6491 100.813 10.7835 100.558 10.8701C100.303 10.9567 100.016 11 99.6967 11H99.184L99.1772 9.64648L99.4369 9.62598C99.6055 9.6123 99.7514 9.56901 99.8744 9.49609C99.9975 9.41862 100.102 9.30924 100.189 9.16797C100.28 9.02669 100.353 8.8444 100.408 8.62109C100.467 8.39779 100.512 8.13346 100.544 7.82812C100.581 7.52279 100.608 7.16732 100.626 6.76172L100.763 3.60352ZM109.141 5.95508H111.322C111.96 5.95508 112.502 6.06217 112.949 6.27637C113.396 6.49056 113.735 6.78906 113.968 7.17188C114.205 7.55013 114.323 7.98307 114.323 8.4707C114.323 8.83073 114.257 9.16569 114.125 9.47559C113.993 9.78092 113.797 10.0475 113.537 10.2754C113.282 10.5033 112.967 10.681 112.594 10.8086C112.224 10.9362 111.801 11 111.322 11H108.048V3.60352H109.702V9.69434H111.322C111.65 9.69434 111.912 9.63737 112.108 9.52344C112.304 9.40951 112.445 9.26139 112.532 9.0791C112.623 8.89681 112.669 8.70312 112.669 8.49805C112.669 8.28841 112.623 8.09017 112.532 7.90332C112.445 7.71647 112.304 7.5638 112.108 7.44531C111.912 7.32682 111.65 7.26758 111.322 7.26758H109.141V5.95508Z" fill="#2094FF"/>
<path d="M0.205273 12.3672H114.788V13.0508H0.205273V12.3672Z" fill="#2094FF"/>
</svg>
