<svg width="89" height="40" viewBox="0 0 89 40" fill="none" xmlns="http://www.w3.org/2000/svg">
<g clip-path="url(#clip0_88_334)">
<rect width="89" height="40" fill="#6750A4" fill-opacity="0.08"/>
<path d="M31.175 21.7598H32.884C32.8293 22.4115 32.647 22.9925 32.3371 23.5029C32.0272 24.0088 31.592 24.4076 31.0314 24.6992C30.4709 24.9909 29.7896 25.1367 28.9875 25.1367C28.3723 25.1367 27.8186 25.0273 27.3264 24.8086C26.8342 24.5853 26.4126 24.2708 26.0617 23.8652C25.7108 23.4551 25.4419 22.9606 25.2551 22.3818C25.0728 21.8031 24.9816 21.1559 24.9816 20.4404V19.6133C24.9816 18.8978 25.0751 18.2507 25.2619 17.6719C25.4533 17.0931 25.7268 16.5986 26.0822 16.1885C26.4377 15.7738 26.8638 15.457 27.3605 15.2383C27.8618 15.0195 28.4247 14.9102 29.049 14.9102C29.842 14.9102 30.5119 15.056 31.0588 15.3477C31.6057 15.6393 32.0295 16.0426 32.3303 16.5576C32.6356 17.0726 32.8225 17.6628 32.8908 18.3281H31.1818C31.1363 17.8997 31.036 17.5329 30.8811 17.2275C30.7307 16.9222 30.5074 16.6898 30.2111 16.5303C29.9149 16.3662 29.5275 16.2842 29.049 16.2842C28.6571 16.2842 28.3153 16.3571 28.0236 16.5029C27.732 16.6488 27.4882 16.863 27.2922 17.1455C27.0962 17.4281 26.9481 17.7767 26.8479 18.1914C26.7521 18.6016 26.7043 19.071 26.7043 19.5996V20.4404C26.7043 20.9417 26.7476 21.3975 26.8342 21.8076C26.9253 22.2132 27.062 22.5618 27.2443 22.8535C27.4312 23.1452 27.6682 23.3708 27.9553 23.5303C28.2424 23.6898 28.5865 23.7695 28.9875 23.7695C29.4751 23.7695 29.8693 23.6921 30.1701 23.5371C30.4755 23.3822 30.7056 23.1566 30.8605 22.8604C31.0201 22.5596 31.1249 22.1927 31.175 21.7598ZM39.0201 14.3633H40.3531C40.3531 14.7689 40.2962 15.1038 40.1822 15.3682C40.0729 15.6279 39.9088 15.8421 39.69 16.0107C39.4758 16.1748 39.2092 16.307 38.8902 16.4072C38.5758 16.5075 38.2112 16.5986 37.7965 16.6807C37.4137 16.7627 37.0673 16.8926 36.7574 17.0703C36.4521 17.2435 36.1946 17.4873 35.985 17.8018C35.7799 18.1117 35.6318 18.5104 35.5406 18.998C35.4495 19.4857 35.4221 20.0804 35.4586 20.7822V21.2471L34.1529 21.3633V20.8984C34.1529 20.028 34.2327 19.2692 34.3922 18.6221C34.5517 17.9749 34.7773 17.4303 35.0689 16.9883C35.3652 16.5417 35.7161 16.1862 36.1217 15.9219C36.5318 15.6576 36.9876 15.4753 37.4889 15.375C37.8307 15.3021 38.1155 15.2292 38.3434 15.1562C38.5712 15.0788 38.7398 14.9808 38.8492 14.8623C38.9632 14.7393 39.0201 14.5729 39.0201 14.3633ZM37.8648 18.0205C38.357 18.0205 38.7945 18.1071 39.1773 18.2803C39.5602 18.4489 39.8837 18.6859 40.148 18.9912C40.4124 19.2965 40.6129 19.6566 40.7496 20.0713C40.8909 20.486 40.9615 20.9372 40.9615 21.4248V21.5752C40.9615 22.0856 40.8863 22.5573 40.7359 22.9902C40.5855 23.4232 40.3645 23.8014 40.0729 24.125C39.7812 24.444 39.4234 24.6947 38.9996 24.877C38.5803 25.0547 38.0995 25.1436 37.5572 25.1436C37.0195 25.1436 36.5387 25.0501 36.1148 24.8633C35.691 24.6764 35.3333 24.4167 35.0416 24.084C34.7499 23.7467 34.5289 23.3525 34.3785 22.9014C34.2281 22.4502 34.1529 21.958 34.1529 21.4248V21.2744C34.1484 21.1787 34.1734 21.0853 34.2281 20.9941C34.2874 20.903 34.358 20.805 34.44 20.7002C34.5221 20.5954 34.595 20.4746 34.6588 20.3379C34.8867 19.8776 35.1555 19.4743 35.4654 19.1279C35.7753 18.7816 36.1285 18.5104 36.525 18.3145C36.926 18.1185 37.3727 18.0205 37.8648 18.0205ZM37.5436 19.3262C37.1334 19.3262 36.7984 19.4242 36.5387 19.6201C36.2835 19.8115 36.0943 20.0667 35.9713 20.3857C35.8528 20.7048 35.7936 21.0511 35.7936 21.4248V21.5752C35.7936 21.8805 35.8277 22.1699 35.8961 22.4434C35.9645 22.7168 36.067 22.9583 36.2037 23.168C36.345 23.373 36.5273 23.5348 36.7506 23.6533C36.9785 23.7718 37.2473 23.8311 37.5572 23.8311C37.8717 23.8311 38.1383 23.7718 38.357 23.6533C38.5803 23.5348 38.7604 23.373 38.8971 23.168C39.0383 22.9583 39.1409 22.7168 39.2047 22.4434C39.273 22.1699 39.3072 21.8805 39.3072 21.5752V21.4248C39.3072 21.1423 39.273 20.8757 39.2047 20.625C39.1409 20.3743 39.0383 20.1533 38.8971 19.9619C38.7558 19.766 38.5735 19.611 38.3502 19.4971C38.1269 19.3831 37.858 19.3262 37.5436 19.3262ZM43.8848 19.0254V27.8438H42.2373V17.6035H43.7549L43.8848 19.0254ZM48.7041 21.2334V21.377C48.7041 21.9147 48.6403 22.4137 48.5127 22.874C48.3896 23.3298 48.2051 23.7285 47.959 24.0703C47.7174 24.4076 47.4189 24.6696 47.0635 24.8564C46.708 25.0433 46.2979 25.1367 45.833 25.1367C45.3727 25.1367 44.9694 25.0524 44.623 24.8838C44.2812 24.7106 43.9919 24.4668 43.7549 24.1523C43.5179 23.8379 43.3265 23.4688 43.1807 23.0449C43.0394 22.6165 42.9391 22.1471 42.8799 21.6367V21.083C42.9391 20.5407 43.0394 20.0485 43.1807 19.6064C43.3265 19.1644 43.5179 18.7839 43.7549 18.4648C43.9919 18.1458 44.2812 17.8997 44.623 17.7266C44.9648 17.5534 45.3636 17.4668 45.8193 17.4668C46.2842 17.4668 46.6966 17.5579 47.0566 17.7402C47.4167 17.918 47.7197 18.1732 47.9658 18.5059C48.2119 18.834 48.3965 19.2305 48.5195 19.6953C48.6426 20.1556 48.7041 20.6683 48.7041 21.2334ZM47.0566 21.377V21.2334C47.0566 20.8916 47.0247 20.5749 46.9609 20.2832C46.8971 19.987 46.7969 19.7272 46.6602 19.5039C46.5234 19.2806 46.348 19.1074 46.1338 18.9844C45.9242 18.8568 45.6712 18.793 45.375 18.793C45.0833 18.793 44.8327 18.8431 44.623 18.9434C44.4134 19.0391 44.238 19.1735 44.0967 19.3467C43.9554 19.5199 43.846 19.7227 43.7686 19.9551C43.6911 20.1829 43.6364 20.4313 43.6045 20.7002V22.0264C43.6592 22.3545 43.7526 22.6553 43.8848 22.9287C44.0169 23.2021 44.2038 23.4209 44.4453 23.585C44.6914 23.7445 45.0059 23.8242 45.3887 23.8242C45.6849 23.8242 45.9378 23.7604 46.1475 23.6328C46.3571 23.5052 46.528 23.3298 46.6602 23.1064C46.7969 22.8786 46.8971 22.6165 46.9609 22.3203C47.0247 22.0241 47.0566 21.7096 47.0566 21.377ZM49.891 21.3838V21.2266C49.891 20.6934 49.9685 20.1989 50.1234 19.7432C50.2784 19.2829 50.5017 18.8841 50.7934 18.5469C51.0896 18.2051 51.4496 17.9408 51.8734 17.7539C52.3018 17.5625 52.7849 17.4668 53.3227 17.4668C53.865 17.4668 54.348 17.5625 54.7719 17.7539C55.2003 17.9408 55.5626 18.2051 55.8588 18.5469C56.155 18.8841 56.3806 19.2829 56.5355 19.7432C56.6905 20.1989 56.768 20.6934 56.768 21.2266V21.3838C56.768 21.917 56.6905 22.4115 56.5355 22.8672C56.3806 23.3229 56.155 23.7217 55.8588 24.0635C55.5626 24.4007 55.2025 24.665 54.7787 24.8564C54.3549 25.0433 53.8741 25.1367 53.3363 25.1367C52.794 25.1367 52.3087 25.0433 51.8803 24.8564C51.4564 24.665 51.0964 24.4007 50.8002 24.0635C50.504 23.7217 50.2784 23.3229 50.1234 22.8672C49.9685 22.4115 49.891 21.917 49.891 21.3838ZM51.5385 21.2266V21.3838C51.5385 21.7165 51.5727 22.0309 51.641 22.3271C51.7094 22.6234 51.8165 22.8831 51.9623 23.1064C52.1081 23.3298 52.295 23.5052 52.5229 23.6328C52.7507 23.7604 53.0219 23.8242 53.3363 23.8242C53.6417 23.8242 53.906 23.7604 54.1293 23.6328C54.3572 23.5052 54.544 23.3298 54.6898 23.1064C54.8357 22.8831 54.9428 22.6234 55.0111 22.3271C55.084 22.0309 55.1205 21.7165 55.1205 21.3838V21.2266C55.1205 20.8984 55.084 20.5885 55.0111 20.2969C54.9428 20.0007 54.8334 19.7386 54.683 19.5107C54.5372 19.2829 54.3503 19.1051 54.1225 18.9775C53.8992 18.8454 53.6326 18.7793 53.3227 18.7793C53.0128 18.7793 52.7439 18.8454 52.516 18.9775C52.2927 19.1051 52.1081 19.2829 51.9623 19.5107C51.8165 19.7386 51.7094 20.0007 51.641 20.2969C51.5727 20.5885 51.5385 20.8984 51.5385 21.2266ZM61.2703 23.8242C61.5392 23.8242 61.7807 23.7718 61.9949 23.667C62.2137 23.5576 62.3891 23.4072 62.5213 23.2158C62.658 23.0244 62.7332 22.8034 62.7469 22.5527H64.2986C64.2895 23.0312 64.1482 23.4665 63.8748 23.8584C63.6014 24.2503 63.2391 24.5625 62.7879 24.7949C62.3367 25.0228 61.8377 25.1367 61.2908 25.1367C60.7257 25.1367 60.2335 25.041 59.8143 24.8496C59.395 24.6536 59.0464 24.3848 58.7684 24.043C58.4904 23.7012 58.2807 23.307 58.1395 22.8604C58.0027 22.4137 57.9344 21.9352 57.9344 21.4248V21.1855C57.9344 20.6751 58.0027 20.1966 58.1395 19.75C58.2807 19.2988 58.4904 18.9023 58.7684 18.5605C59.0464 18.2188 59.395 17.9521 59.8143 17.7607C60.2335 17.5648 60.7234 17.4668 61.284 17.4668C61.8764 17.4668 62.396 17.5853 62.8426 17.8223C63.2892 18.0547 63.6401 18.3805 63.8953 18.7998C64.1551 19.2145 64.2895 19.6976 64.2986 20.249H62.7469C62.7332 19.9756 62.6648 19.7295 62.5418 19.5107C62.4233 19.2874 62.2547 19.1097 62.0359 18.9775C61.8217 18.8454 61.5643 18.7793 61.2635 18.7793C60.9308 18.7793 60.6551 18.8477 60.4363 18.9844C60.2176 19.1165 60.0467 19.2988 59.9236 19.5312C59.8006 19.7591 59.7117 20.0166 59.657 20.3037C59.6069 20.5863 59.5818 20.8802 59.5818 21.1855V21.4248C59.5818 21.7301 59.6069 22.0264 59.657 22.3135C59.7072 22.6006 59.7938 22.8581 59.9168 23.0859C60.0444 23.3092 60.2176 23.4893 60.4363 23.626C60.6551 23.7581 60.9331 23.8242 61.2703 23.8242Z" fill="#6750A4"/>
</g>
<rect x="0.5" y="0.5" width="88" height="39" rx="19.5" stroke="#79747E"/>
<defs>
<clipPath id="clip0_88_334">
<rect width="89" height="40" rx="20" fill="white"/>
</clipPath>
</defs>
</svg>
