<svg width="22" height="21" viewBox="0 0 22 21" fill="none" xmlns="http://www.w3.org/2000/svg">
<path d="M15.5086 13.2075H14.56L14.2238 12.8834C15.4005 11.5146 16.1089 9.73756 16.1089 7.80446C16.1089 3.494 12.6149 0 8.30446 0C3.994 0 0.5 3.494 0.5 7.80446C0.5 12.1149 3.994 15.6089 8.30446 15.6089C10.2376 15.6089 12.0146 14.9005 13.3834 13.7238L13.7075 14.06V15.0086L19.711 21L21.5 19.211L15.5086 13.2075ZM8.30446 13.2075C5.31475 13.2075 2.90137 10.7942 2.90137 7.80446C2.90137 4.81475 5.31475 2.40137 8.30446 2.40137C11.2942 2.40137 13.7075 4.81475 13.7075 7.80446C13.7075 10.7942 11.2942 13.2075 8.30446 13.2075Z" fill="black"/>
</svg>
