<svg width="110" height="40" viewBox="0 0 110 40" fill="none" xmlns="http://www.w3.org/2000/svg">
<g clip-path="url(#clip0_39_314)">
<rect width="110" height="40" rx="20" fill="#6750A4"/>
<rect width="110" height="40" fill="white" fill-opacity="0.12"/>
<path d="M29.0221 20.502H26.4859L26.4723 19.251H28.6871C29.0608 19.251 29.3775 19.1963 29.6373 19.0869C29.9016 18.973 30.1021 18.8112 30.2389 18.6016C30.3756 18.3874 30.4439 18.1299 30.4439 17.8291C30.4439 17.4964 30.3801 17.2253 30.2525 17.0156C30.1249 16.806 29.929 16.6533 29.6646 16.5576C29.4049 16.4619 29.0722 16.4141 28.6666 16.4141H27.0055V25H25.2896V15.0469H28.6666C29.2135 15.0469 29.7011 15.0993 30.1295 15.2041C30.5624 15.3089 30.9293 15.473 31.2301 15.6963C31.5354 15.915 31.7656 16.193 31.9205 16.5303C32.08 16.8675 32.1598 17.2686 32.1598 17.7334C32.1598 18.1436 32.0618 18.5195 31.8658 18.8613C31.6699 19.1986 31.3805 19.4743 30.9977 19.6885C30.6148 19.9027 30.1386 20.0303 29.5689 20.0713L29.0221 20.502ZM28.9469 25H25.9459L26.7184 23.6396H28.9469C29.3342 23.6396 29.6578 23.5758 29.9176 23.4482C30.1773 23.3161 30.371 23.1361 30.4986 22.9082C30.6308 22.6758 30.6969 22.4046 30.6969 22.0947C30.6969 21.7712 30.6399 21.4909 30.526 21.2539C30.412 21.0124 30.232 20.8278 29.9859 20.7002C29.7398 20.568 29.4186 20.502 29.0221 20.502H27.0943L27.108 19.251H29.6168L30.0064 19.7227C30.5533 19.7409 31.0022 19.8617 31.3531 20.085C31.7086 20.3083 31.9729 20.5977 32.1461 20.9531C32.3193 21.3086 32.4059 21.6914 32.4059 22.1016C32.4059 22.735 32.2669 23.266 31.9889 23.6943C31.7154 24.1227 31.3212 24.4486 30.8062 24.6719C30.2913 24.8906 29.6715 25 28.9469 25ZM37.0928 23.8242C37.3617 23.8242 37.6032 23.7718 37.8174 23.667C38.0361 23.5576 38.2116 23.4072 38.3438 23.2158C38.4805 23.0244 38.5557 22.8034 38.5693 22.5527H40.1211C40.112 23.0312 39.9707 23.4665 39.6973 23.8584C39.4238 24.2503 39.0615 24.5625 38.6104 24.7949C38.1592 25.0228 37.6602 25.1367 37.1133 25.1367C36.5482 25.1367 36.056 25.041 35.6367 24.8496C35.2174 24.6536 34.8688 24.3848 34.5908 24.043C34.3128 23.7012 34.1032 23.307 33.9619 22.8604C33.8252 22.4137 33.7568 21.9352 33.7568 21.4248V21.1855C33.7568 20.6751 33.8252 20.1966 33.9619 19.75C34.1032 19.2988 34.3128 18.9023 34.5908 18.5605C34.8688 18.2188 35.2174 17.9521 35.6367 17.7607C36.056 17.5648 36.5459 17.4668 37.1064 17.4668C37.6989 17.4668 38.2184 17.5853 38.665 17.8223C39.1117 18.0547 39.4626 18.3805 39.7178 18.7998C39.9775 19.2145 40.112 19.6976 40.1211 20.249H38.5693C38.5557 19.9756 38.4873 19.7295 38.3643 19.5107C38.2458 19.2874 38.0771 19.1097 37.8584 18.9775C37.6442 18.8454 37.3867 18.7793 37.0859 18.7793C36.7533 18.7793 36.4775 18.8477 36.2588 18.9844C36.04 19.1165 35.8691 19.2988 35.7461 19.5312C35.623 19.7591 35.5342 20.0166 35.4795 20.3037C35.4294 20.5863 35.4043 20.8802 35.4043 21.1855V21.4248C35.4043 21.7301 35.4294 22.0264 35.4795 22.3135C35.5296 22.6006 35.6162 22.8581 35.7393 23.0859C35.8669 23.3092 36.04 23.4893 36.2588 23.626C36.4775 23.7581 36.7555 23.8242 37.0928 23.8242ZM44.9174 17.6035V25H43.2631V17.6035H44.9174ZM47.3441 17.6035V18.9023H40.8773V17.6035H47.3441ZM50.7732 24.1934L52.783 17.6035H54.5467L51.5799 26.1279C51.5115 26.3102 51.4227 26.5085 51.3133 26.7227C51.2039 26.9368 51.0604 27.1396 50.8826 27.3311C50.7094 27.527 50.493 27.6842 50.2332 27.8027C49.9734 27.9258 49.659 27.9873 49.2898 27.9873C49.144 27.9873 49.0027 27.9736 48.866 27.9463C48.7339 27.9235 48.6085 27.8984 48.49 27.8711L48.4832 26.6133C48.5288 26.6178 48.5835 26.6224 48.6473 26.627C48.7156 26.6315 48.7703 26.6338 48.8113 26.6338C49.0848 26.6338 49.3126 26.5996 49.4949 26.5312C49.6772 26.4674 49.8253 26.3626 49.9393 26.2168C50.0577 26.071 50.158 25.875 50.24 25.6289L50.7732 24.1934ZM49.6385 17.6035L51.3953 23.1406L51.6893 24.877L50.5477 25.1709L47.8611 17.6035H49.6385ZM60.5529 17.6035V18.916H56.9025V17.6035H60.5529ZM57.2922 17.6035V25H55.6447V17.6035H57.2922ZM61.8449 17.6035V25H60.1906V17.6035H61.8449ZM65.3902 22.5938L68.2955 17.6035H69.943V25H68.2955V20.0029L65.3902 25H63.7428V17.6035H65.3902V22.5938ZM75.2178 17.6035V25H73.5635V17.6035H75.2178ZM77.6445 17.6035V18.9023H71.1777V17.6035H77.6445ZM80.0687 19.9551H82.2494C82.8874 19.9551 83.4298 20.0622 83.8764 20.2764C84.323 20.4906 84.6625 20.7891 84.8949 21.1719C85.1319 21.5501 85.2504 21.9831 85.2504 22.4707C85.2504 22.8307 85.1843 23.1657 85.0521 23.4756C84.92 23.7809 84.724 24.0475 84.4643 24.2754C84.209 24.5033 83.8946 24.681 83.5209 24.8086C83.1518 24.9362 82.7279 25 82.2494 25H78.975V17.6035H80.6293V23.6943H82.2494C82.5775 23.6943 82.8396 23.6374 83.0355 23.5234C83.2315 23.4095 83.3728 23.2614 83.4594 23.0791C83.5505 22.8968 83.5961 22.7031 83.5961 22.498C83.5961 22.2884 83.5505 22.0902 83.4594 21.9033C83.3728 21.7165 83.2315 21.5638 83.0355 21.4453C82.8396 21.3268 82.5775 21.2676 82.2494 21.2676H80.0687V19.9551Z" fill="white"/>
</g>
<defs>
<clipPath id="clip0_39_314">
<rect width="110" height="40" rx="20" fill="white"/>
</clipPath>
</defs>
</svg>
