<svg width="184" height="40" viewBox="0 0 184 40" fill="none" xmlns="http://www.w3.org/2000/svg">
<g clip-path="url(#clip0_253_347)">
<rect width="184" height="40" rx="20" fill="#B7B7B7"/>
<rect width="184" height="40" fill="white" fill-opacity="0.12"/>
<path d="M28.7469 20.2285H27.366V19.251H28.5555C28.9793 19.251 29.3234 19.1895 29.5877 19.0664C29.852 18.9388 30.0434 18.7633 30.1619 18.54C30.285 18.3122 30.3465 18.0479 30.3465 17.7471C30.3465 17.4782 30.2781 17.2321 30.1414 17.0088C30.0092 16.7855 29.8042 16.6077 29.5262 16.4756C29.2482 16.3389 28.8904 16.2705 28.4529 16.2705C28.1248 16.2705 27.8263 16.3298 27.5574 16.4482C27.2885 16.5667 27.0743 16.7331 26.9148 16.9473C26.7599 17.1615 26.6824 17.4144 26.6824 17.7061H24.9666C24.9666 17.2731 25.0577 16.8857 25.24 16.5439C25.4269 16.1976 25.6798 15.9036 25.9988 15.6621C26.3224 15.4206 26.6938 15.236 27.1131 15.1084C27.5369 14.9762 27.9835 14.9102 28.4529 14.9102C28.9998 14.9102 29.4943 14.9717 29.9363 15.0947C30.3784 15.2132 30.7589 15.391 31.0779 15.6279C31.3969 15.8649 31.6408 16.1611 31.8094 16.5166C31.978 16.8675 32.0623 17.2754 32.0623 17.7402C32.0623 18.082 31.9825 18.4033 31.823 18.7041C31.6681 19.0049 31.4448 19.2692 31.1531 19.4971C30.8615 19.7249 30.5105 19.9049 30.1004 20.0371C29.6948 20.1647 29.2436 20.2285 28.7469 20.2285ZM27.366 19.6338H28.7469C29.2983 19.6338 29.7882 19.6908 30.2166 19.8047C30.645 19.9186 31.0073 20.085 31.3035 20.3037C31.5997 20.5225 31.8253 20.7936 31.9803 21.1172C32.1352 21.4362 32.2127 21.8031 32.2127 22.2178C32.2127 22.6826 32.1193 23.0973 31.9324 23.4619C31.7501 23.8219 31.4904 24.1273 31.1531 24.3779C30.8159 24.6286 30.4171 24.8177 29.9568 24.9453C29.5011 25.0729 28.9998 25.1367 28.4529 25.1367C28.0109 25.1367 27.5734 25.082 27.1404 24.9727C26.712 24.8587 26.3224 24.6855 25.9715 24.4531C25.6251 24.2161 25.3471 23.9154 25.1375 23.5508C24.9279 23.1862 24.823 22.7487 24.823 22.2383H26.5457C26.5457 22.5208 26.6255 22.7806 26.785 23.0176C26.949 23.25 27.1723 23.4368 27.4549 23.5781C27.742 23.7148 28.0747 23.7832 28.4529 23.7832C28.8859 23.7832 29.2527 23.7148 29.5535 23.5781C29.8589 23.4414 30.0913 23.2546 30.2508 23.0176C30.4148 22.7806 30.4969 22.514 30.4969 22.2178C30.4969 21.9352 30.4536 21.6914 30.367 21.4863C30.285 21.2767 30.1619 21.1081 29.9978 20.9805C29.8338 20.8483 29.631 20.7503 29.3895 20.6865C29.1479 20.6227 28.8699 20.5908 28.5555 20.5908H27.366V19.6338ZM37.9455 23.5166V19.9893C37.9455 19.7249 37.8977 19.4971 37.802 19.3057C37.7062 19.1143 37.5604 18.9661 37.3645 18.8613C37.173 18.7565 36.9315 18.7041 36.6398 18.7041C36.371 18.7041 36.1385 18.7497 35.9426 18.8408C35.7466 18.932 35.5939 19.055 35.4846 19.21C35.3752 19.3649 35.3205 19.5404 35.3205 19.7363H33.6799C33.6799 19.4447 33.7505 19.1621 33.8918 18.8887C34.0331 18.6152 34.2381 18.3714 34.507 18.1572C34.7759 17.943 35.0972 17.7744 35.4709 17.6514C35.8446 17.5283 36.2639 17.4668 36.7287 17.4668C37.2847 17.4668 37.7769 17.5602 38.2053 17.7471C38.6382 17.9339 38.9777 18.2165 39.2238 18.5947C39.4745 18.9684 39.5998 19.4378 39.5998 20.0029V23.291C39.5998 23.6283 39.6226 23.9313 39.6682 24.2002C39.7183 24.4645 39.7889 24.6947 39.8801 24.8906V25H38.1916C38.1141 24.8223 38.0526 24.5967 38.007 24.3232C37.966 24.0452 37.9455 23.7764 37.9455 23.5166ZM38.1848 20.502L38.1984 21.5205H37.0158C36.7105 21.5205 36.4416 21.5501 36.2092 21.6094C35.9768 21.6641 35.7831 21.7461 35.6281 21.8555C35.4732 21.9648 35.357 22.097 35.2795 22.252C35.202 22.4069 35.1633 22.5824 35.1633 22.7783C35.1633 22.9743 35.2089 23.1543 35.3 23.3184C35.3911 23.4779 35.5233 23.6032 35.6965 23.6943C35.8742 23.7855 36.0884 23.8311 36.3391 23.8311C36.6763 23.8311 36.9702 23.7627 37.2209 23.626C37.4761 23.4847 37.6766 23.3138 37.8225 23.1133C37.9683 22.9082 38.0458 22.7145 38.0549 22.5322L38.5881 23.2637C38.5334 23.4505 38.44 23.651 38.3078 23.8652C38.1756 24.0794 38.0025 24.2845 37.7883 24.4805C37.5786 24.6719 37.3257 24.8291 37.0295 24.9521C36.7378 25.0752 36.4006 25.1367 36.0178 25.1367C35.5347 25.1367 35.104 25.041 34.7258 24.8496C34.3475 24.6536 34.0513 24.3916 33.8371 24.0635C33.6229 23.7308 33.5158 23.3548 33.5158 22.9355C33.5158 22.5436 33.5887 22.1973 33.7346 21.8965C33.885 21.5911 34.1037 21.3359 34.3908 21.1309C34.6825 20.9258 35.038 20.7708 35.4572 20.666C35.8765 20.5566 36.355 20.502 36.8928 20.502H38.1848ZM42.7623 17.6035H44.4098L44.3277 20.208C44.3049 20.9645 44.2184 21.6139 44.068 22.1562C43.9176 22.6986 43.7216 23.1566 43.4801 23.5303C43.2385 23.8994 42.9651 24.2025 42.6598 24.4395C42.359 24.6764 42.0423 24.8633 41.7096 25H41.2242V23.7012L41.4566 23.6875C41.6526 23.4779 41.8212 23.2682 41.9625 23.0586C42.1083 22.8444 42.2314 22.6097 42.3316 22.3545C42.4319 22.0947 42.5094 21.7917 42.5641 21.4453C42.6233 21.099 42.662 20.6865 42.6803 20.208L42.7623 17.6035ZM43.1998 17.6035H47.8893V25H46.2486V18.998H43.1998V17.6035ZM40.8482 23.6875H48.901V27.2012H47.2535V25H42.5162V27.2012H40.8414L40.8482 23.6875ZM54.3467 23.5166V19.9893C54.3467 19.7249 54.2988 19.4971 54.2031 19.3057C54.1074 19.1143 53.9616 18.9661 53.7656 18.8613C53.5742 18.7565 53.3327 18.7041 53.041 18.7041C52.7721 18.7041 52.5397 18.7497 52.3437 18.8408C52.1478 18.932 51.9951 19.055 51.8857 19.21C51.7764 19.3649 51.7217 19.5404 51.7217 19.7363H50.0811C50.0811 19.4447 50.1517 19.1621 50.293 18.8887C50.4342 18.6152 50.6393 18.3714 50.9082 18.1572C51.1771 17.943 51.4984 17.7744 51.8721 17.6514C52.2458 17.5283 52.665 17.4668 53.1299 17.4668C53.6859 17.4668 54.1781 17.5602 54.6064 17.7471C55.0394 17.9339 55.3789 18.2165 55.625 18.5947C55.8756 18.9684 56.001 19.4378 56.001 20.0029V23.291C56.001 23.6283 56.0238 23.9313 56.0693 24.2002C56.1195 24.4645 56.1901 24.6947 56.2812 24.8906V25H54.5928C54.5153 24.8223 54.4538 24.5967 54.4082 24.3232C54.3672 24.0452 54.3467 23.7764 54.3467 23.5166ZM54.5859 20.502L54.5996 21.5205H53.417C53.1116 21.5205 52.8428 21.5501 52.6103 21.6094C52.3779 21.6641 52.1842 21.7461 52.0293 21.8555C51.8743 21.9648 51.7581 22.097 51.6807 22.252C51.6032 22.4069 51.5644 22.5824 51.5644 22.7783C51.5644 22.9743 51.61 23.1543 51.7012 23.3184C51.7923 23.4779 51.9245 23.6032 52.0977 23.6943C52.2754 23.7855 52.4896 23.8311 52.7402 23.8311C53.0775 23.8311 53.3714 23.7627 53.6221 23.626C53.8773 23.4847 54.0778 23.3138 54.2236 23.1133C54.3695 22.9082 54.4469 22.7145 54.4561 22.5322L54.9893 23.2637C54.9346 23.4505 54.8411 23.651 54.709 23.8652C54.5768 24.0794 54.4036 24.2845 54.1894 24.4805C53.9798 24.6719 53.7269 24.8291 53.4307 24.9521C53.139 25.0752 52.8018 25.1367 52.4189 25.1367C51.9359 25.1367 51.5052 25.041 51.1269 24.8496C50.7487 24.6536 50.4525 24.3916 50.2383 24.0635C50.0241 23.7308 49.917 23.3548 49.917 22.9355C49.917 22.5436 49.9899 22.1973 50.1357 21.8965C50.2861 21.5911 50.5049 21.3359 50.792 21.1309C51.0837 20.9258 51.4391 20.7708 51.8584 20.666C52.2777 20.5566 52.7562 20.502 53.2939 20.502H54.5859ZM62.8754 20.6934V21.9922H59.0473V20.6934H62.8754ZM59.5258 17.6035V25H57.8783V17.6035H59.5258ZM64.0648 17.6035V25H62.4174V17.6035H64.0648ZM67.6238 22.5938L70.5291 17.6035H72.1766V25H70.5291V20.0029L67.6238 25H65.9764V17.6035H67.6238V22.5938ZM77.2805 25.1367C76.7336 25.1367 76.2391 25.0479 75.7971 24.8701C75.3596 24.6878 74.9859 24.4349 74.676 24.1113C74.3706 23.7878 74.1359 23.4072 73.9719 22.9697C73.8078 22.5322 73.7258 22.0605 73.7258 21.5547V21.2812C73.7258 20.7025 73.8101 20.1784 73.9787 19.709C74.1473 19.2396 74.382 18.8385 74.6828 18.5059C74.9836 18.1686 75.3391 17.9111 75.7492 17.7334C76.1594 17.5557 76.6037 17.4668 77.0822 17.4668C77.6109 17.4668 78.0734 17.5557 78.4699 17.7334C78.8664 17.9111 79.1945 18.1618 79.4543 18.4854C79.7186 18.8044 79.9146 19.1849 80.0422 19.627C80.1743 20.069 80.2404 20.5566 80.2404 21.0898V21.7939H74.5256V20.6113H78.6135V20.4814C78.6044 20.1852 78.5451 19.9072 78.4357 19.6475C78.3309 19.3877 78.1691 19.1781 77.9504 19.0186C77.7316 18.859 77.44 18.7793 77.0754 18.7793C76.8019 18.7793 76.5581 18.8385 76.3439 18.957C76.1343 19.071 75.9588 19.2373 75.8176 19.4561C75.6763 19.6748 75.5669 19.9391 75.4894 20.249C75.4165 20.5544 75.3801 20.8984 75.3801 21.2812V21.5547C75.3801 21.8783 75.4234 22.179 75.51 22.457C75.6011 22.7305 75.7333 22.9697 75.9064 23.1748C76.0796 23.3799 76.2893 23.5417 76.5353 23.6602C76.7814 23.7741 77.0617 23.8311 77.3762 23.8311C77.7727 23.8311 78.1258 23.7513 78.4357 23.5918C78.7456 23.4323 79.0145 23.2067 79.2424 22.915L80.1105 23.7559C79.951 23.9883 79.7437 24.2116 79.4885 24.4258C79.2333 24.6354 78.9211 24.8063 78.5519 24.9385C78.1874 25.0706 77.7635 25.1367 77.2805 25.1367ZM88.8076 21.835H86.4424L86.4287 20.6729H88.3701C88.6891 20.6729 88.9512 20.641 89.1562 20.5771C89.3659 20.5133 89.5208 20.4176 89.6211 20.29C89.7214 20.1579 89.7715 19.9984 89.7715 19.8115C89.7715 19.6566 89.7419 19.5221 89.6826 19.4082C89.6234 19.2897 89.5322 19.194 89.4092 19.1211C89.2907 19.0436 89.1403 18.9889 88.958 18.957C88.7803 18.9206 88.5729 18.9023 88.3359 18.9023H86.9893V25H85.3418V17.6035H88.3359C88.8099 17.6035 89.236 17.6445 89.6143 17.7266C89.9971 17.8086 90.3229 17.9339 90.5918 18.1025C90.8607 18.2712 91.0658 18.4854 91.207 18.7451C91.3529 19.0003 91.4258 19.3011 91.4258 19.6475C91.4258 19.8753 91.3756 20.0895 91.2754 20.29C91.1797 20.4906 91.0361 20.6683 90.8447 20.8232C90.6533 20.9782 90.4186 21.1058 90.1406 21.2061C89.8626 21.3018 89.5436 21.361 89.1836 21.3838L88.8076 21.835ZM88.8076 25H85.9639L86.6201 23.7012H88.8076C89.0993 23.7012 89.3408 23.6647 89.5322 23.5918C89.7236 23.5189 89.8649 23.4141 89.9561 23.2773C90.0518 23.1361 90.0996 22.9697 90.0996 22.7783C90.0996 22.5824 90.054 22.4137 89.9629 22.2725C89.8717 22.1312 89.7305 22.0241 89.5391 21.9512C89.3522 21.8737 89.1084 21.835 88.8076 21.835H86.9277L86.9414 20.6729H89.1768L89.6484 21.124C90.1178 21.1559 90.5075 21.2562 90.8174 21.4248C91.1273 21.5934 91.3597 21.8053 91.5146 22.0605C91.6696 22.3158 91.7471 22.5938 91.7471 22.8945C91.7471 23.2409 91.681 23.5462 91.5488 23.8105C91.4212 24.0749 91.2298 24.2959 90.9746 24.4736C90.724 24.6468 90.4163 24.779 90.0518 24.8701C89.6872 24.9567 89.2725 25 88.8076 25ZM94.4926 19.9551H96.6732C97.3113 19.9551 97.8536 20.0622 98.3002 20.2764C98.7468 20.4906 99.0863 20.7891 99.3187 21.1719C99.5557 21.5501 99.6742 21.9831 99.6742 22.4707C99.6742 22.8307 99.6081 23.1657 99.476 23.4756C99.3438 23.7809 99.1479 24.0475 98.8881 24.2754C98.6329 24.5033 98.3184 24.681 97.9447 24.8086C97.5756 24.9362 97.1518 25 96.6732 25H93.3988V17.6035H95.0531V23.6943H96.6732C97.0014 23.6943 97.2634 23.6374 97.4594 23.5234C97.6553 23.4095 97.7966 23.2614 97.8832 23.0791C97.9743 22.8968 98.0199 22.7031 98.0199 22.498C98.0199 22.2884 97.9743 22.0902 97.8832 21.9033C97.7966 21.7165 97.6553 21.5638 97.4594 21.4453C97.2634 21.3268 97.0014 21.2676 96.6732 21.2676H94.4926V19.9551ZM102.586 17.6035V25H100.939V17.6035H102.586ZM109.597 17.6035V18.916H105.947V17.6035H109.597ZM106.337 17.6035V25H104.689V17.6035H106.337ZM110.889 17.6035V25H109.235V17.6035H110.889ZM112.418 21.3838V21.2266C112.418 20.6934 112.496 20.1989 112.651 19.7432C112.806 19.2829 113.029 18.8841 113.321 18.5469C113.617 18.2051 113.977 17.9408 114.401 17.7539C114.829 17.5625 115.312 17.4668 115.85 17.4668C116.392 17.4668 116.875 17.5625 117.299 17.7539C117.727 17.9408 118.09 18.2051 118.386 18.5469C118.682 18.8841 118.908 19.2829 119.063 19.7432C119.218 20.1989 119.295 20.6934 119.295 21.2266V21.3838C119.295 21.917 119.218 22.4115 119.063 22.8672C118.908 23.3229 118.682 23.7217 118.386 24.0635C118.09 24.4007 117.73 24.665 117.306 24.8564C116.882 25.0433 116.401 25.1367 115.863 25.1367C115.321 25.1367 114.836 25.0433 114.407 24.8564C113.984 24.665 113.624 24.4007 113.327 24.0635C113.031 23.7217 112.806 23.3229 112.651 22.8672C112.496 22.4115 112.418 21.917 112.418 21.3838ZM114.066 21.2266V21.3838C114.066 21.7165 114.1 22.0309 114.168 22.3271C114.237 22.6234 114.344 22.8831 114.489 23.1064C114.635 23.3298 114.822 23.5052 115.05 23.6328C115.278 23.7604 115.549 23.8242 115.863 23.8242C116.169 23.8242 116.433 23.7604 116.656 23.6328C116.884 23.5052 117.071 23.3298 117.217 23.1064C117.363 22.8831 117.47 22.6234 117.538 22.3271C117.611 22.0309 117.648 21.7165 117.648 21.3838V21.2266C117.648 20.8984 117.611 20.5885 117.538 20.2969C117.47 20.0007 117.361 19.7386 117.21 19.5107C117.064 19.2829 116.877 19.1051 116.65 18.9775C116.426 18.8454 116.16 18.7793 115.85 18.7793C115.54 18.7793 115.271 18.8454 115.043 18.9775C114.82 19.1051 114.635 19.2829 114.489 19.5107C114.344 19.7386 114.237 20.0007 114.168 20.2969C114.1 20.5885 114.066 20.8984 114.066 21.2266ZM125.636 17.6035V18.916H122.027V17.6035H125.636ZM126.928 17.6035V25H125.281V17.6035H126.928ZM121.624 17.6035H123.251L123.052 21.2607C123.025 21.8031 122.97 22.2816 122.888 22.6963C122.811 23.1064 122.706 23.4596 122.574 23.7559C122.442 24.0475 122.28 24.2845 122.088 24.4668C121.897 24.6491 121.674 24.7835 121.419 24.8701C121.163 24.9567 120.876 25 120.557 25H120.045L120.038 23.6465L120.297 23.626C120.466 23.6123 120.612 23.569 120.735 23.4961C120.858 23.4186 120.963 23.3092 121.049 23.168C121.141 23.0267 121.213 22.8444 121.268 22.6211C121.327 22.3978 121.373 22.1335 121.405 21.8281C121.441 21.5228 121.469 21.1673 121.487 20.7617L121.624 17.6035ZM133.83 20.6934V21.9922H130.002V20.6934H133.83ZM130.48 17.6035V25H128.833V17.6035H130.48ZM135.02 17.6035V25H133.372V17.6035H135.02ZM140.137 25.1367C139.59 25.1367 139.096 25.0479 138.654 24.8701C138.216 24.6878 137.843 24.4349 137.533 24.1113C137.227 23.7878 136.993 23.4072 136.829 22.9697C136.664 22.5322 136.582 22.0605 136.582 21.5547V21.2812C136.582 20.7025 136.667 20.1784 136.835 19.709C137.004 19.2396 137.239 18.8385 137.539 18.5059C137.84 18.1686 138.196 17.9111 138.606 17.7334C139.016 17.5557 139.46 17.4668 139.939 17.4668C140.468 17.4668 140.93 17.5557 141.327 17.7334C141.723 17.9111 142.051 18.1618 142.311 18.4854C142.575 18.8044 142.771 19.1849 142.899 19.627C143.031 20.069 143.097 20.5566 143.097 21.0898V21.7939H137.382V20.6113H141.47V20.4814C141.461 20.1852 141.402 19.9072 141.292 19.6475C141.188 19.3877 141.026 19.1781 140.807 19.0186C140.588 18.859 140.297 18.7793 139.932 18.7793C139.659 18.7793 139.415 18.8385 139.201 18.957C138.991 19.071 138.815 19.2373 138.674 19.4561C138.533 19.6748 138.424 19.9391 138.346 20.249C138.273 20.5544 138.237 20.8984 138.237 21.2812V21.5547C138.237 21.8783 138.28 22.179 138.367 22.457C138.458 22.7305 138.59 22.9697 138.763 23.1748C138.936 23.3799 139.146 23.5417 139.392 23.6602C139.638 23.7741 139.918 23.8311 140.233 23.8311C140.629 23.8311 140.982 23.7513 141.292 23.5918C141.602 23.4323 141.871 23.2067 142.099 22.915L142.967 23.7559C142.808 23.9883 142.6 24.2116 142.345 24.4258C142.09 24.6354 141.778 24.8063 141.409 24.9385C141.044 25.0706 140.62 25.1367 140.137 25.1367ZM149.534 20.6934V21.9922H145.706V20.6934H149.534ZM146.184 17.6035V25H144.537V17.6035H146.184ZM150.723 17.6035V25H149.076V17.6035H150.723ZM152.266 21.3838V21.2266C152.266 20.6934 152.343 20.1989 152.498 19.7432C152.653 19.2829 152.876 18.8841 153.168 18.5469C153.464 18.2051 153.824 17.9408 154.248 17.7539C154.677 17.5625 155.16 17.4668 155.697 17.4668C156.24 17.4668 156.723 17.5625 157.147 17.7539C157.575 17.9408 157.937 18.2051 158.234 18.5469C158.53 18.8841 158.755 19.2829 158.91 19.7432C159.065 20.1989 159.143 20.6934 159.143 21.2266V21.3838C159.143 21.917 159.065 22.4115 158.91 22.8672C158.755 23.3229 158.53 23.7217 158.234 24.0635C157.937 24.4007 157.577 24.665 157.154 24.8564C156.73 25.0433 156.249 25.1367 155.711 25.1367C155.169 25.1367 154.683 25.0433 154.255 24.8564C153.831 24.665 153.471 24.4007 153.175 24.0635C152.879 23.7217 152.653 23.3229 152.498 22.8672C152.343 22.4115 152.266 21.917 152.266 21.3838ZM153.913 21.2266V21.3838C153.913 21.7165 153.947 22.0309 154.016 22.3271C154.084 22.6234 154.191 22.8831 154.337 23.1064C154.483 23.3298 154.67 23.5052 154.898 23.6328C155.126 23.7604 155.397 23.8242 155.711 23.8242C156.016 23.8242 156.281 23.7604 156.504 23.6328C156.732 23.5052 156.919 23.3298 157.065 23.1064C157.21 22.8831 157.318 22.6234 157.386 22.3271C157.459 22.0309 157.495 21.7165 157.495 21.3838V21.2266C157.495 20.8984 157.459 20.5885 157.386 20.2969C157.318 20.0007 157.208 19.7386 157.058 19.5107C156.912 19.2829 156.725 19.1051 156.497 18.9775C156.274 18.8454 156.007 18.7793 155.697 18.7793C155.388 18.7793 155.119 18.8454 154.891 18.9775C154.668 19.1051 154.483 19.2829 154.337 19.5107C154.191 19.7386 154.084 20.0007 154.016 20.2969C153.947 20.5885 153.913 20.8984 153.913 21.2266Z" fill="white"/>
</g>
<defs>
<clipPath id="clip0_253_347">
<rect width="184" height="40" rx="20" fill="white"/>
</clipPath>
</defs>
</svg>
