<svg width="228" height="40" viewBox="0 0 228 40" fill="none" xmlns="http://www.w3.org/2000/svg">
<g clip-path="url(#clip0_254_353)">
<rect width="228" height="40" rx="20" fill="#B7B7B7"/>
<rect width="228" height="40" fill="white" fill-opacity="0.12"/>
<path d="M33.0105 19.75V20.2969C33.0105 21.0488 32.9126 21.7233 32.7166 22.3203C32.5206 22.9173 32.2404 23.4255 31.8758 23.8447C31.5158 24.264 31.0828 24.5853 30.577 24.8086C30.0711 25.0273 29.5105 25.1367 28.8953 25.1367C28.2846 25.1367 27.7264 25.0273 27.2205 24.8086C26.7192 24.5853 26.284 24.264 25.9148 23.8447C25.5457 23.4255 25.2586 22.9173 25.0535 22.3203C24.853 21.7233 24.7527 21.0488 24.7527 20.2969V19.75C24.7527 18.998 24.853 18.3258 25.0535 17.7334C25.254 17.1364 25.5366 16.6283 25.9012 16.209C26.2703 15.7852 26.7055 15.4639 27.2068 15.2451C27.7127 15.0218 28.271 14.9102 28.8816 14.9102C29.4969 14.9102 30.0574 15.0218 30.5633 15.2451C31.0691 15.4639 31.5044 15.7852 31.8689 16.209C32.2335 16.6283 32.5138 17.1364 32.7098 17.7334C32.9103 18.3258 33.0105 18.998 33.0105 19.75ZM31.2947 20.2969V19.7363C31.2947 19.1803 31.24 18.6904 31.1307 18.2666C31.0258 17.8382 30.8686 17.4805 30.659 17.1934C30.4539 16.9017 30.201 16.6829 29.9002 16.5371C29.5994 16.3867 29.2599 16.3115 28.8816 16.3115C28.5034 16.3115 28.1661 16.3867 27.8699 16.5371C27.5737 16.6829 27.3208 16.9017 27.1111 17.1934C26.9061 17.4805 26.7488 17.8382 26.6395 18.2666C26.5301 18.6904 26.4754 19.1803 26.4754 19.7363V20.2969C26.4754 20.8529 26.5301 21.3451 26.6395 21.7734C26.7488 22.2018 26.9083 22.5641 27.118 22.8604C27.3322 23.152 27.5874 23.373 27.8836 23.5234C28.1798 23.6693 28.5171 23.7422 28.8953 23.7422C29.2781 23.7422 29.6176 23.6693 29.9139 23.5234C30.2101 23.373 30.4607 23.152 30.6658 22.8604C30.8709 22.5641 31.0258 22.2018 31.1307 21.7734C31.24 21.3451 31.2947 20.8529 31.2947 20.2969ZM37.1164 22.0127L34.1633 17.6035H36.1867L37.9094 20.5156H39.3518L39.1398 22.0127H37.1164ZM37.9504 21.7734L36.0568 25H34.0334L36.7131 20.8369L37.9504 21.7734ZM40.343 17.6035V25H38.7023V17.6035H40.343ZM44.9025 17.6035L41.9494 22.0127H39.9191L39.7004 20.5156H41.1496L42.8723 17.6035H44.9025ZM43.0021 25L41.1018 21.7734L42.3801 20.8369L45.0461 25H43.0021ZM47.8941 22.5938L50.7994 17.6035H52.4469V25H50.7994V20.0029L47.8941 25H46.2467V17.6035H47.8941V22.5938ZM55.6299 17.6035H57.2773L57.1953 20.208C57.1725 20.9645 57.0859 21.6139 56.9355 22.1562C56.7852 22.6986 56.5892 23.1566 56.3477 23.5303C56.1061 23.8994 55.8327 24.2025 55.5273 24.4395C55.2266 24.6764 54.9098 24.8633 54.5771 25H54.0918V23.7012L54.3242 23.6875C54.5202 23.4779 54.6888 23.2682 54.8301 23.0586C54.9759 22.8444 55.099 22.6097 55.1992 22.3545C55.2995 22.0947 55.3769 21.7917 55.4316 21.4453C55.4909 21.099 55.5296 20.6865 55.5478 20.208L55.6299 17.6035ZM56.0674 17.6035H60.7568V25H59.1162V18.998H56.0674V17.6035ZM53.7158 23.6875H61.7686V27.2012H60.1211V25H55.3838V27.2012H53.709L53.7158 23.6875ZM67.2143 23.5166V19.9893C67.2143 19.7249 67.1664 19.4971 67.0707 19.3057C66.975 19.1143 66.8292 18.9661 66.6332 18.8613C66.4418 18.7565 66.2003 18.7041 65.9086 18.7041C65.6397 18.7041 65.4073 18.7497 65.2113 18.8408C65.0154 18.932 64.8627 19.055 64.7533 19.21C64.6439 19.3649 64.5893 19.5404 64.5893 19.7363H62.9486C62.9486 19.4447 63.0193 19.1621 63.1605 18.8887C63.3018 18.6152 63.5069 18.3714 63.7758 18.1572C64.0447 17.943 64.3659 17.7744 64.7396 17.6514C65.1133 17.5283 65.5326 17.4668 65.9975 17.4668C66.5534 17.4668 67.0456 17.5602 67.474 17.7471C67.907 17.9339 68.2465 18.2165 68.4926 18.5947C68.7432 18.9684 68.8686 19.4378 68.8686 20.0029V23.291C68.8686 23.6283 68.8913 23.9313 68.9369 24.2002C68.987 24.4645 69.0577 24.6947 69.1488 24.8906V25H67.4604C67.3829 24.8223 67.3214 24.5967 67.2758 24.3232C67.2348 24.0452 67.2143 23.7764 67.2143 23.5166ZM67.4535 20.502L67.4672 21.5205H66.2846C65.9792 21.5205 65.7104 21.5501 65.4779 21.6094C65.2455 21.6641 65.0518 21.7461 64.8969 21.8555C64.7419 21.9648 64.6257 22.097 64.5482 22.252C64.4708 22.4069 64.432 22.5824 64.432 22.7783C64.432 22.9743 64.4776 23.1543 64.5687 23.3184C64.6599 23.4779 64.7921 23.6032 64.9652 23.6943C65.143 23.7855 65.3572 23.8311 65.6078 23.8311C65.9451 23.8311 66.239 23.7627 66.4896 23.626C66.7449 23.4847 66.9454 23.3138 67.0912 23.1133C67.237 22.9082 67.3145 22.7145 67.3236 22.5322L67.8568 23.2637C67.8021 23.4505 67.7087 23.651 67.5766 23.8652C67.4444 24.0794 67.2712 24.2845 67.057 24.4805C66.8474 24.6719 66.5945 24.8291 66.2982 24.9521C66.0066 25.0752 65.6693 25.1367 65.2865 25.1367C64.8034 25.1367 64.3728 25.041 63.9945 24.8496C63.6163 24.6536 63.3201 24.3916 63.1059 24.0635C62.8917 23.7308 62.7846 23.3548 62.7846 22.9355C62.7846 22.5436 62.8575 22.1973 63.0033 21.8965C63.1537 21.5911 63.3725 21.3359 63.6596 21.1309C63.9512 20.9258 64.3067 20.7708 64.726 20.666C65.1452 20.5566 65.6238 20.502 66.1615 20.502H67.4535ZM75.743 20.6934V21.9922H71.9148V20.6934H75.743ZM72.3934 17.6035V25H70.7459V17.6035H72.3934ZM76.9324 17.6035V25H75.285V17.6035H76.9324ZM80.4914 22.5938L83.3967 17.6035H85.0441V25H83.3967V20.0029L80.4914 25H78.8439V17.6035H80.4914V22.5938ZM90.148 25.1367C89.6012 25.1367 89.1067 25.0479 88.6646 24.8701C88.2271 24.6878 87.8534 24.4349 87.5436 24.1113C87.2382 23.7878 87.0035 23.4072 86.8395 22.9697C86.6754 22.5322 86.5934 22.0605 86.5934 21.5547V21.2812C86.5934 20.7025 86.6777 20.1784 86.8463 19.709C87.0149 19.2396 87.2496 18.8385 87.5504 18.5059C87.8512 18.1686 88.2066 17.9111 88.6168 17.7334C89.027 17.5557 89.4713 17.4668 89.9498 17.4668C90.4784 17.4668 90.941 17.5557 91.3375 17.7334C91.734 17.9111 92.0621 18.1618 92.3219 18.4854C92.5862 18.8044 92.7822 19.1849 92.9098 19.627C93.0419 20.069 93.108 20.5566 93.108 21.0898V21.7939H87.3932V20.6113H91.4811V20.4814C91.4719 20.1852 91.4127 19.9072 91.3033 19.6475C91.1985 19.3877 91.0367 19.1781 90.818 19.0186C90.5992 18.859 90.3075 18.7793 89.943 18.7793C89.6695 18.7793 89.4257 18.8385 89.2115 18.957C89.0019 19.071 88.8264 19.2373 88.6852 19.4561C88.5439 19.6748 88.4345 19.9391 88.357 20.249C88.2841 20.5544 88.2477 20.8984 88.2477 21.2812V21.5547C88.2477 21.8783 88.2909 22.179 88.3775 22.457C88.4687 22.7305 88.6008 22.9697 88.774 23.1748C88.9472 23.3799 89.1568 23.5417 89.4029 23.6602C89.649 23.7741 89.9293 23.8311 90.2437 23.8311C90.6402 23.8311 90.9934 23.7513 91.3033 23.5918C91.6132 23.4323 91.8821 23.2067 92.11 22.915L92.9781 23.7559C92.8186 23.9883 92.6113 24.2116 92.3561 24.4258C92.1008 24.6354 91.7887 24.8063 91.4195 24.9385C91.0549 25.0706 90.6311 25.1367 90.148 25.1367ZM103.042 17.6035V18.916H99.392V17.6035H103.042ZM99.7816 17.6035V25H98.1342V17.6035H99.7816ZM104.334 17.6035V25H102.68V17.6035H104.334ZM105.863 21.3838V21.2266C105.863 20.6934 105.941 20.1989 106.096 19.7432C106.25 19.2829 106.474 18.8841 106.765 18.5469C107.062 18.2051 107.422 17.9408 107.846 17.7539C108.274 17.5625 108.757 17.4668 109.295 17.4668C109.837 17.4668 110.32 17.5625 110.744 17.7539C111.172 17.9408 111.535 18.2051 111.831 18.5469C112.127 18.8841 112.353 19.2829 112.508 19.7432C112.663 20.1989 112.74 20.6934 112.74 21.2266V21.3838C112.74 21.917 112.663 22.4115 112.508 22.8672C112.353 23.3229 112.127 23.7217 111.831 24.0635C111.535 24.4007 111.175 24.665 110.751 24.8564C110.327 25.0433 109.846 25.1367 109.308 25.1367C108.766 25.1367 108.281 25.0433 107.852 24.8564C107.429 24.665 107.068 24.4007 106.772 24.0635C106.476 23.7217 106.25 23.3229 106.096 22.8672C105.941 22.4115 105.863 21.917 105.863 21.3838ZM107.511 21.2266V21.3838C107.511 21.7165 107.545 22.0309 107.613 22.3271C107.681 22.6234 107.789 22.8831 107.934 23.1064C108.08 23.3298 108.267 23.5052 108.495 23.6328C108.723 23.7604 108.994 23.8242 109.308 23.8242C109.614 23.8242 109.878 23.7604 110.101 23.6328C110.329 23.5052 110.516 23.3298 110.662 23.1064C110.808 22.8831 110.915 22.6234 110.983 22.3271C111.056 22.0309 111.093 21.7165 111.093 21.3838V21.2266C111.093 20.8984 111.056 20.5885 110.983 20.2969C110.915 20.0007 110.805 19.7386 110.655 19.5107C110.509 19.2829 110.322 19.1051 110.095 18.9775C109.871 18.8454 109.605 18.7793 109.295 18.7793C108.985 18.7793 108.716 18.8454 108.488 18.9775C108.265 19.1051 108.08 19.2829 107.934 19.5107C107.789 19.7386 107.681 20.0007 107.613 20.2969C107.545 20.5885 107.511 20.8984 107.511 21.2266ZM115.069 17.6035H116.716L116.634 20.208C116.611 20.9645 116.525 21.6139 116.374 22.1562C116.224 22.6986 116.028 23.1566 115.786 23.5303C115.545 23.8994 115.271 24.2025 114.966 24.4395C114.665 24.6764 114.348 24.8633 114.016 25H113.53V23.7012L113.763 23.6875C113.959 23.4779 114.127 23.2682 114.269 23.0586C114.415 22.8444 114.538 22.6097 114.638 22.3545C114.738 22.0947 114.816 21.7917 114.87 21.4453C114.93 21.099 114.968 20.6865 114.987 20.208L115.069 17.6035ZM115.506 17.6035H120.196V25H118.555V18.998H115.506V17.6035ZM113.154 23.6875H121.207V27.2012H119.56V25H114.822V27.2012H113.148L113.154 23.6875ZM125.778 17.6035V25H124.124V17.6035H125.778ZM128.205 17.6035V18.9023H121.738V17.6035H128.205ZM133.001 21.835H130.636L130.622 20.6729H132.563C132.882 20.6729 133.145 20.641 133.35 20.5771C133.559 20.5133 133.714 20.4176 133.814 20.29C133.915 20.1579 133.965 19.9984 133.965 19.8115C133.965 19.6566 133.935 19.5221 133.876 19.4082C133.817 19.2897 133.726 19.194 133.603 19.1211C133.484 19.0436 133.334 18.9889 133.151 18.957C132.974 18.9206 132.766 18.9023 132.529 18.9023H131.183V25H129.535V17.6035H132.529C133.003 17.6035 133.429 17.6445 133.808 17.7266C134.19 17.8086 134.516 17.9339 134.785 18.1025C135.054 18.2712 135.259 18.4854 135.4 18.7451C135.546 19.0003 135.619 19.3011 135.619 19.6475C135.619 19.8753 135.569 20.0895 135.469 20.29C135.373 20.4906 135.229 20.6683 135.038 20.8232C134.847 20.9782 134.612 21.1058 134.334 21.2061C134.056 21.3018 133.737 21.361 133.377 21.3838L133.001 21.835ZM133.001 25H130.157L130.813 23.7012H133.001C133.293 23.7012 133.534 23.6647 133.726 23.5918C133.917 23.5189 134.058 23.4141 134.149 23.2773C134.245 23.1361 134.293 22.9697 134.293 22.7783C134.293 22.5824 134.247 22.4137 134.156 22.2725C134.065 22.1312 133.924 22.0241 133.732 21.9512C133.546 21.8737 133.302 21.835 133.001 21.835H131.121L131.135 20.6729H133.37L133.842 21.124C134.311 21.1559 134.701 21.2562 135.011 21.4248C135.321 21.5934 135.553 21.8053 135.708 22.0605C135.863 22.3158 135.94 22.5938 135.94 22.8945C135.94 23.2409 135.874 23.5462 135.742 23.8105C135.615 24.0749 135.423 24.2959 135.168 24.4736C134.917 24.6468 134.61 24.779 134.245 24.8701C133.881 24.9567 133.466 25 133.001 25ZM140.723 25.1367C140.176 25.1367 139.682 25.0479 139.24 24.8701C138.802 24.6878 138.428 24.4349 138.119 24.1113C137.813 23.7878 137.579 23.4072 137.414 22.9697C137.25 22.5322 137.168 22.0605 137.168 21.5547V21.2812C137.168 20.7025 137.253 20.1784 137.421 19.709C137.59 19.2396 137.825 18.8385 138.125 18.5059C138.426 18.1686 138.782 17.9111 139.192 17.7334C139.602 17.5557 140.046 17.4668 140.525 17.4668C141.053 17.4668 141.516 17.5557 141.912 17.7334C142.309 17.9111 142.637 18.1618 142.897 18.4854C143.161 18.8044 143.357 19.1849 143.485 19.627C143.617 20.069 143.683 20.5566 143.683 21.0898V21.7939H137.968V20.6113H142.056V20.4814C142.047 20.1852 141.988 19.9072 141.878 19.6475C141.774 19.3877 141.612 19.1781 141.393 19.0186C141.174 18.859 140.883 18.7793 140.518 18.7793C140.245 18.7793 140.001 18.8385 139.787 18.957C139.577 19.071 139.401 19.2373 139.26 19.4561C139.119 19.6748 139.01 19.9391 138.932 20.249C138.859 20.5544 138.823 20.8984 138.823 21.2812V21.5547C138.823 21.8783 138.866 22.179 138.953 22.457C139.044 22.7305 139.176 22.9697 139.349 23.1748C139.522 23.3799 139.732 23.5417 139.978 23.6602C140.224 23.7741 140.504 23.8311 140.819 23.8311C141.215 23.8311 141.568 23.7513 141.878 23.5918C142.188 23.4323 142.457 23.2067 142.685 22.915L143.553 23.7559C143.394 23.9883 143.186 24.2116 142.931 24.4258C142.676 24.6354 142.364 24.8063 141.995 24.9385C141.63 25.0706 141.206 25.1367 140.723 25.1367ZM146.722 19.0254V27.8438H145.075V17.6035H146.593L146.722 19.0254ZM151.542 21.2334V21.377C151.542 21.9147 151.478 22.4137 151.35 22.874C151.227 23.3298 151.043 23.7285 150.797 24.0703C150.555 24.4076 150.257 24.6696 149.901 24.8564C149.546 25.0433 149.136 25.1367 148.671 25.1367C148.21 25.1367 147.807 25.0524 147.461 24.8838C147.119 24.7106 146.83 24.4668 146.593 24.1523C146.356 23.8379 146.164 23.4688 146.018 23.0449C145.877 22.6165 145.777 22.1471 145.718 21.6367V21.083C145.777 20.5407 145.877 20.0485 146.018 19.6064C146.164 19.1644 146.356 18.7839 146.593 18.4648C146.83 18.1458 147.119 17.8997 147.461 17.7266C147.803 17.5534 148.201 17.4668 148.657 17.4668C149.122 17.4668 149.534 17.5579 149.894 17.7402C150.254 17.918 150.557 18.1732 150.804 18.5059C151.05 18.834 151.234 19.2305 151.357 19.6953C151.48 20.1556 151.542 20.6683 151.542 21.2334ZM149.894 21.377V21.2334C149.894 20.8916 149.862 20.5749 149.799 20.2832C149.735 19.987 149.635 19.7272 149.498 19.5039C149.361 19.2806 149.186 19.1074 148.971 18.9844C148.762 18.8568 148.509 18.793 148.213 18.793C147.921 18.793 147.67 18.8431 147.461 18.9434C147.251 19.0391 147.076 19.1735 146.934 19.3467C146.793 19.5199 146.684 19.7227 146.606 19.9551C146.529 20.1829 146.474 20.4313 146.442 20.7002V22.0264C146.497 22.3545 146.59 22.6553 146.722 22.9287C146.855 23.2021 147.041 23.4209 147.283 23.585C147.529 23.7445 147.844 23.8242 148.226 23.8242C148.523 23.8242 148.776 23.7604 148.985 23.6328C149.195 23.5052 149.366 23.3298 149.498 23.1064C149.635 22.8786 149.735 22.6165 149.799 22.3203C149.862 22.0241 149.894 21.7096 149.894 21.377ZM155.388 22.0127L152.435 17.6035H154.458L156.181 20.5156H157.623L157.411 22.0127H155.388ZM156.222 21.7734L154.328 25H152.305L154.985 20.8369L156.222 21.7734ZM158.614 17.6035V25H156.974V17.6035H158.614ZM163.174 17.6035L160.221 22.0127H158.191L157.972 20.5156H159.421L161.144 17.6035H163.174ZM161.274 25L159.373 21.7734L160.652 20.8369L163.318 25H161.274ZM165.803 17.6035H167.451L167.369 20.208C167.346 20.9645 167.259 21.6139 167.109 22.1562C166.959 22.6986 166.763 23.1566 166.521 23.5303C166.28 23.8994 166.006 24.2025 165.701 24.4395C165.4 24.6764 165.083 24.8633 164.751 25H164.265V23.7012L164.498 23.6875C164.694 23.4779 164.862 23.2682 165.004 23.0586C165.149 22.8444 165.272 22.6097 165.373 22.3545C165.473 22.0947 165.55 21.7917 165.605 21.4453C165.664 21.099 165.703 20.6865 165.721 20.208L165.803 17.6035ZM166.241 17.6035H170.93V25H169.29V18.998H166.241V17.6035ZM163.889 23.6875H171.942V27.2012H170.295V25H165.557V27.2012H163.882L163.889 23.6875ZM176.479 25.1367C175.932 25.1367 175.437 25.0479 174.995 24.8701C174.558 24.6878 174.184 24.4349 173.874 24.1113C173.569 23.7878 173.334 23.4072 173.17 22.9697C173.006 22.5322 172.924 22.0605 172.924 21.5547V21.2812C172.924 20.7025 173.008 20.1784 173.177 19.709C173.345 19.2396 173.58 18.8385 173.881 18.5059C174.182 18.1686 174.537 17.9111 174.947 17.7334C175.357 17.5557 175.802 17.4668 176.28 17.4668C176.809 17.4668 177.271 17.5557 177.668 17.7334C178.064 17.9111 178.393 18.1618 178.652 18.4854C178.917 18.8044 179.113 19.1849 179.24 19.627C179.372 20.069 179.438 20.5566 179.438 21.0898V21.7939H173.724V20.6113H177.812V20.4814C177.802 20.1852 177.743 19.9072 177.634 19.6475C177.529 19.3877 177.367 19.1781 177.148 19.0186C176.93 18.859 176.638 18.7793 176.273 18.7793C176 18.7793 175.756 18.8385 175.542 18.957C175.332 19.071 175.157 19.2373 175.016 19.4561C174.874 19.6748 174.765 19.9391 174.688 20.249C174.615 20.5544 174.578 20.8984 174.578 21.2812V21.5547C174.578 21.8783 174.621 22.179 174.708 22.457C174.799 22.7305 174.931 22.9697 175.104 23.1748C175.278 23.3799 175.487 23.5417 175.733 23.6602C175.979 23.7741 176.26 23.8311 176.574 23.8311C176.971 23.8311 177.324 23.7513 177.634 23.5918C177.944 23.4323 178.213 23.2067 178.44 22.915L179.309 23.7559C179.149 23.9883 178.942 24.2116 178.687 24.4258C178.431 24.6354 178.119 24.8063 177.75 24.9385C177.385 25.0706 176.962 25.1367 176.479 25.1367ZM185.875 20.6934V21.9922H182.047V20.6934H185.875ZM182.526 17.6035V25H180.878V17.6035H182.526ZM187.065 17.6035V25H185.417V17.6035H187.065ZM190.624 22.5938L193.529 17.6035H195.177V25H193.529V20.0029L190.624 25H188.976V17.6035H190.624V22.5938ZM198.578 21.3838H200.287L198.189 25H196.487L198.578 21.3838ZM199.781 17.6035H202.953V25H201.313V18.9023H199.781C199.472 18.9023 199.216 18.957 199.016 19.0664C198.815 19.1712 198.667 19.3102 198.571 19.4834C198.476 19.652 198.428 19.8252 198.428 20.0029C198.428 20.1807 198.471 20.3516 198.558 20.5156C198.649 20.6797 198.788 20.8141 198.975 20.9189C199.166 21.0238 199.405 21.0762 199.693 21.0762H201.866V22.2793H199.693C199.237 22.2793 198.829 22.2223 198.469 22.1084C198.109 21.9899 197.804 21.8281 197.553 21.623C197.302 21.4134 197.111 21.1696 196.979 20.8916C196.847 20.609 196.78 20.3014 196.78 19.9688C196.78 19.627 196.849 19.3125 196.986 19.0254C197.122 18.7383 197.318 18.4876 197.573 18.2734C197.833 18.0592 198.148 17.8952 198.517 17.7812C198.89 17.6628 199.312 17.6035 199.781 17.6035Z" fill="white"/>
</g>
<defs>
<clipPath id="clip0_254_353">
<rect width="228" height="40" rx="20" fill="white"/>
</clipPath>
</defs>
</svg>
